<svg width="64" height="64" viewBox="0 0 64 64" fill="none" xmlns="http://www.w3.org/2000/svg">
<g id="fi_2636402">
<g id="Group">
<path id="Vector" d="M50.8391 1.9375H13.161C5.904 1.9375 0 7.8415 0 15.0985C0 22.3906 5.96538 28.2595 13.0825 28.2595H18.9937V17.9478C18.9937 13.3298 22.7506 9.57275 27.3685 9.57275H27.3867C31.9949 9.58262 35.7438 13.3396 35.7438 17.9478V28.2595H50.8391C58.0961 28.2595 64 22.3555 64 15.0985C64 7.8415 58.0961 1.9375 50.8391 1.9375ZM54.5634 13.2633L47.0634 20.7633C46.3312 21.4955 45.144 21.4956 44.4118 20.7633L40.6618 17.0133C39.9295 16.281 39.9295 15.0939 40.6618 14.3616C41.3939 13.6294 42.5811 13.6294 43.3134 14.3616L45.7376 16.7857L51.9119 10.6116C52.644 9.87937 53.8312 9.87937 54.5635 10.6116C55.2956 11.3439 55.2956 12.5311 54.5634 13.2633Z" fill="#6265F0"/>
<path id="Vector_2" d="M44.0642 33.5361L31.9939 32.2815V17.9475C31.9939 15.397 29.9292 13.328 27.3787 13.3225C24.8206 13.317 22.7439 15.3893 22.7439 17.9475V41.9374H22.7019L18.1365 38.1249C16.2109 36.5169 13.3374 36.8184 11.7874 38.791C10.301 40.6828 10.588 43.4134 12.4351 44.9548L21.7017 52.6874H48.9937V39.1179C48.9937 36.2801 46.8801 33.8869 44.0642 33.5361Z" fill="#6265F0"/>
<path id="Vector_3" d="M22.7438 60.1875C22.7438 61.223 23.5833 62.0625 24.6188 62.0625H47.1188C48.1543 62.0625 48.9938 61.223 48.9938 60.1875V56.4375H22.7438V60.1875Z" fill="#6265F0"/>
</g>
</g>
</svg>
