<svg xmlns="http://www.w3.org/2000/svg" width="25" height="24" viewBox="0 0 25 24" fill="none">
  <path d="M15.9081 14.5477L15.4526 15.0272C15.4526 15.0272 14.3701 16.167 11.4151 13.0559C8.46004 9.94484 9.54263 8.80507 9.54263 8.80507L9.82945 8.50311C10.536 7.75924 10.6026 6.56497 9.98617 5.6931L8.72518 3.90961C7.96221 2.8305 6.48789 2.68795 5.61338 3.60864L4.04378 5.26114C3.61016 5.71766 3.31958 6.30945 3.35482 6.96594C3.44496 8.64546 4.16264 12.259 8.16729 16.4752C12.4141 20.9462 16.3988 21.1239 18.0282 20.9631C18.5436 20.9122 18.9919 20.6343 19.3531 20.254L20.7736 18.7584C21.7325 17.7489 21.4621 16.0182 20.2353 15.312L18.3247 14.2123C17.5192 13.7486 16.5377 13.8848 15.9081 14.5477Z" fill="white"/>
  <path d="M13.6114 1.88008C13.6776 1.47119 14.0642 1.19381 14.473 1.26001C14.4984 1.26485 14.5798 1.28007 14.6225 1.28958C14.7078 1.30858 14.8268 1.33784 14.9752 1.38106C15.272 1.46751 15.6866 1.60991 16.1842 1.83805C17.1805 2.2948 18.5063 3.09381 19.8821 4.46961C21.2579 5.84541 22.0569 7.17122 22.5137 8.1675C22.7418 8.66511 22.8842 9.07972 22.9707 9.3765C23.0139 9.5249 23.0431 9.64393 23.0621 9.72926C23.0716 9.77193 23.0786 9.80619 23.0834 9.8315L23.0892 9.86269C23.1554 10.2716 22.8805 10.6741 22.4716 10.7403C22.0639 10.8063 21.6798 10.5303 21.612 10.1233C21.6099 10.1124 21.6042 10.083 21.598 10.0553C21.5857 9.99994 21.5643 9.91212 21.5305 9.79597C21.4628 9.56363 21.3453 9.2183 21.1501 8.79262C20.7603 7.94232 20.0593 6.76813 18.8214 5.53027C17.5836 4.2924 16.4094 3.59141 15.5591 3.20158C15.1334 3.00642 14.7881 2.88889 14.5557 2.82122C14.4396 2.78739 14.2936 2.75387 14.2382 2.74154C13.8312 2.67372 13.5454 2.2878 13.6114 1.88008Z" fill="white"/>
  <path fill-rule="evenodd" clip-rule="evenodd" d="M13.8377 5.32954C13.9515 4.93126 14.3666 4.70065 14.7648 4.81444L14.5588 5.53558C14.7648 4.81444 14.7648 4.81444 14.7648 4.81444L14.7663 4.81485L14.7678 4.81529L14.7712 4.81627L14.7789 4.81858L14.7987 4.82475C14.8138 4.82957 14.8326 4.83585 14.8551 4.84381C14.9 4.85975 14.9593 4.88242 15.0321 4.91362C15.1778 4.97605 15.3769 5.07248 15.6214 5.21719C16.1109 5.50687 16.779 5.98805 17.564 6.77302C18.349 7.55799 18.8302 8.22618 19.1198 8.71564C19.2646 8.96015 19.361 9.15922 19.4234 9.3049C19.4546 9.37771 19.4773 9.43707 19.4932 9.48198C19.5012 9.50443 19.5075 9.52326 19.5123 9.53834L19.5184 9.55812L19.5208 9.56587L19.5217 9.56921L19.5222 9.57074C19.5222 9.57074 19.5226 9.57218 18.8014 9.77822L19.5226 9.57218C19.6364 9.97046 19.4058 10.3856 19.0075 10.4994C18.6126 10.6122 18.2011 10.3864 18.0833 9.99437L18.0796 9.98359C18.0742 9.96856 18.0632 9.93898 18.0447 9.89578C18.0077 9.80944 17.9406 9.66821 17.829 9.47962C17.606 9.10288 17.2033 8.53363 16.5034 7.83368C15.8034 7.13373 15.2341 6.73102 14.8574 6.50805C14.6688 6.39644 14.5276 6.32934 14.4413 6.29234C14.398 6.27382 14.3685 6.26279 14.3534 6.25746L14.3427 6.25376C13.9506 6.13588 13.7248 5.72443 13.8377 5.32954Z" fill="white"/>
</svg>