<svg width="64" height="64" viewBox="0 0 64 64" fill="none" xmlns="http://www.w3.org/2000/svg">
<g id="fi_3005334" clip-path="url(#clip0_766_5)">
<g id="Page-1">
<g id="017---Handing-Over-Keys">
<path id="Rectangle-path" d="M6.73684 38.1755H1.12281C0.502698 38.1755 0 38.6782 0 39.2983V62.8773C0 63.4974 0.502698 64.0001 1.12281 64.0001H6.73684C7.35695 64.0001 7.85965 63.4974 7.85965 62.8773V39.2983C7.85965 38.6782 7.35695 38.1755 6.73684 38.1755Z" fill="#6265F0"/>
<path id="Shape" d="M62.4281 46.1688C61.9124 45.5427 61.0649 45.2978 60.2948 45.5524L39.5228 52.479C38.9479 52.6741 38.3447 52.7731 37.7376 52.772H27.7558C25.9825 52.7729 24.249 53.2975 22.7728 54.2799L21.9599 54.8279C21.4446 55.1739 20.7463 55.0367 20.4003 54.5214C20.0543 54.006 20.1915 53.3078 20.7068 52.9618L21.5276 52.4116C23.3727 51.1836 25.5394 50.5278 27.7558 50.5264H34.5825C35.2967 49.5723 35.3628 48.2811 34.7498 47.259C34.7152 47.2019 34.6859 47.1418 34.6622 47.0794C33.8256 45.7492 32.3721 44.9335 30.8009 44.9124H24.9263C22.3451 44.909 19.8412 44.0307 17.8235 42.4209C16.2053 41.1291 14.1969 40.4241 12.1263 40.4211H10.1053V62.8773H37.3895C38.6254 62.8774 39.8377 62.538 40.8938 61.8959L61.9329 49.0847C62.4058 48.8018 62.736 48.3311 62.8412 47.7902C62.9464 47.2493 62.8166 46.6892 62.4842 46.2496C62.4651 46.2227 62.4472 46.1969 62.4281 46.1688Z" fill="#6265F0"/>
<path id="Shape_2" d="M56.1403 5.61401H49.4035C48.7834 5.61401 48.2807 6.11671 48.2807 6.73682C48.2807 7.35693 48.7834 7.85963 49.4035 7.85963H56.1403C56.7605 7.85963 57.2632 7.35693 57.2632 6.73682C57.2632 6.11671 56.7605 5.61401 56.1403 5.61401Z" fill="#6265F0"/>
<path id="Shape_3" d="M59.5088 0H46.0351C44.6466 0.00103549 43.3367 0.64423 42.4868 1.74225C41.6369 2.84026 41.3427 4.26963 41.6899 5.61404H37.0527C33.9521 5.61404 31.4386 8.12752 31.4386 11.2281V11.6996C30.9653 11.8629 30.5352 12.1316 30.1811 12.4856L25.6899 16.9768C25.0595 17.609 24.7044 18.4645 24.7018 19.3572V35.9298C24.7018 37.7902 26.2099 39.2982 28.0702 39.2982H37.0527C38.913 39.2982 40.4211 37.7902 40.4211 35.9298V19.3572C40.4185 18.4645 40.0633 17.609 39.433 16.9768L34.9418 12.4856C34.5876 12.1316 34.1576 11.8629 33.6842 11.6996V11.2281C33.6898 9.37005 35.1946 7.8652 37.0527 7.85965H42.4646L45.3727 16.0898C46.0025 17.8876 47.7007 19.0903 49.6056 19.0877H55.9383C57.8432 19.0903 59.5414 17.8876 60.1713 16.0898L63.7418 5.98456C64.2262 4.61062 64.0141 3.08708 63.1728 1.8977C62.3315 0.708323 60.9656 0.000878742 59.5088 0ZM35.9299 26.9474V33.6842C35.9299 34.3043 35.4272 34.807 34.807 34.807H30.3158C29.6957 34.807 29.193 34.3043 29.193 33.6842V26.9474C29.193 26.3273 29.6957 25.8246 30.3158 25.8246H34.807C35.4272 25.8246 35.9299 26.3273 35.9299 26.9474ZM34.807 19.0877C34.8095 20.1846 34.0192 21.1228 32.9378 21.3067C31.8564 21.4905 30.8004 20.8662 30.4403 19.8301C30.0802 18.794 30.5213 17.6493 31.4835 17.1228C32.1534 16.7485 32.9695 16.7485 33.6393 17.1228C34.3577 17.5159 34.8052 18.2688 34.807 19.0877ZM56.1404 10.1053H49.4035C47.9795 10.1013 46.7119 9.20222 46.2372 7.85965C45.9678 7.13536 45.9678 6.33832 46.2372 5.61404C46.7119 4.27146 47.9795 3.37242 49.4035 3.36842H56.1404C58.0007 3.36842 59.5088 4.87651 59.5088 6.73684C59.5088 8.59717 58.0007 10.1053 56.1404 10.1053Z" fill="#6265F0"/>
<path id="Shape_4" d="M55.3465 27.7411L55.8114 27.2763C56.0219 27.0658 56.1403 26.7802 56.1403 26.4824V21.3333H49.4035V26.4824C49.4036 26.7802 49.5219 27.0658 49.7325 27.2763L50.1973 27.7411C50.4079 27.9516 50.5262 28.2372 50.5263 28.5349V33.4191C50.5264 33.5934 50.4857 33.7653 50.4073 33.921L49.655 35.4278C49.4971 35.7438 49.4971 36.1157 49.655 36.4316L50.3186 37.7599C50.4515 38.0262 50.4733 38.3343 50.3792 38.6166L49.6281 40.8858C49.4939 41.2893 49.599 41.7339 49.8998 42.0344L51.9837 44.1184C52.4222 44.5567 53.1329 44.5567 53.5714 44.1184L55.6553 42.0344C55.956 41.7339 56.0612 41.2893 55.927 40.8858L55.1702 38.6166C55.0761 38.3343 55.0979 38.0262 55.2309 37.7599L55.8944 36.4316C56.0523 36.1157 56.0523 35.7438 55.8944 35.4278L55.1422 33.921C55.0619 33.7658 55.0192 33.5939 55.0175 33.4191V28.5349C55.0176 28.2372 55.1359 27.9516 55.3465 27.7411Z" fill="#6265F0"/>
</g>
</g>
</g>
<defs>
<clipPath id="clip0_766_5">
<rect width="64" height="64" fill="white"/>
</clipPath>
</defs>
</svg>
