<svg xmlns="http://www.w3.org/2000/svg" width="25" height="24" viewBox="0 0 25 24" fill="none">
  <path fill-rule="evenodd" clip-rule="evenodd" d="M1.35193 12C1.35193 5.92487 6.2768 1 12.3519 1C18.4271 1 23.3519 5.92487 23.3519 12C23.3519 18.0751 18.4271 23 12.3519 23C6.2768 23 1.35193 18.0751 1.35193 12ZM3.99699 8.64769C3.58089 9.68376 3.35193 10.8151 3.35193 12C3.35193 12.6299 3.41664 13.2447 3.53979 13.8381C4.50909 14.3465 5.52739 14.7734 6.58578 15.1101C6.43319 14.123 6.35179 13.0788 6.35179 12.0004C6.35179 11.3391 6.38239 10.6911 6.44115 10.0616C5.57704 9.66992 4.75892 9.19519 3.99699 8.64769ZM4.95578 6.87053C5.51799 7.29259 6.11732 7.66765 6.74789 7.98992C7.05662 6.4924 7.53745 5.14026 8.15972 4.03394C6.87741 4.71017 5.77818 5.68694 4.95578 6.87053ZM12.1083 3.00323L12.1108 3.0192C11.4628 3.12072 10.6991 3.67034 9.9946 4.85579C9.40269 5.85176 8.92048 7.19239 8.63494 8.76387C9.80693 9.13387 11.0553 9.3337 12.3518 9.3337L12.3532 9.3337C13.6236 9.33553 14.876 9.14041 16.0686 8.76382C15.7831 7.19237 15.3009 5.85175 14.709 4.8558C14.0044 3.67035 13.2408 3.12072 12.5928 3.0192L12.5953 3.00323C12.5144 3.00108 12.4333 3 12.3519 3C12.2704 3 12.1892 3.00108 12.1083 3.00323ZM16.5437 4.03372C17.1661 5.1402 17.647 6.49258 17.9558 7.99039C18.5817 7.67081 19.1817 7.29674 19.7483 6.87091C18.9258 5.68702 17.8263 4.71002 16.5437 4.03372ZM20.7071 8.64822C19.9378 9.20131 19.1185 9.67413 18.2624 10.0618C18.3212 10.6913 18.3518 11.3392 18.3518 12.0004C18.3518 13.0787 18.2704 14.1228 18.1178 15.1098C19.1651 14.7765 20.1846 14.3515 21.1641 13.8379C21.2872 13.2446 21.3519 12.6298 21.3519 12C21.3519 10.8153 21.123 9.68415 20.7071 8.64822ZM20.144 16.5068C19.3227 16.835 18.4822 17.1106 17.6277 17.332C17.3436 18.3009 16.9798 19.1915 16.5443 19.966C18.0451 19.1745 19.2951 17.9713 20.144 16.5068ZM12.6353 20.9956L12.6315 20.975C13.1653 20.8778 13.7778 20.4787 14.3785 19.6495C14.7414 19.1486 15.076 18.5214 15.3629 17.787C14.3686 17.9301 13.3621 18.0019 12.351 18.0004C11.3291 18.0003 10.3239 17.9273 9.34031 17.786C9.62725 18.5208 9.96201 19.1483 10.325 19.6494C10.9257 20.4787 11.5383 20.8778 12.0721 20.975L12.0683 20.9956C12.1625 20.9985 12.257 21 12.3519 21C12.4467 21 12.5412 20.9985 12.6353 20.9956ZM8.15913 19.9657C7.72369 19.1914 7.35992 18.3008 7.07587 17.3319C6.21462 17.1091 5.37483 16.8329 4.56019 16.5073C5.40901 17.9715 6.65872 19.1744 8.15913 19.9657ZM8.71629 15.6532C9.89225 15.881 11.1076 16.0004 12.3518 16.0004L12.3533 16.0004C13.5776 16.0023 14.7944 15.8853 15.9872 15.6537C16.2209 14.5373 16.3518 13.3027 16.3518 12.0004C16.3518 11.586 16.3385 11.1783 16.3129 10.7789C15.0345 11.146 13.7016 11.3356 12.3511 11.3337C10.9784 11.3336 9.64943 11.1402 8.39068 10.7789C8.36504 11.1783 8.35179 11.586 8.35179 12.0004C8.35179 13.3025 8.48267 14.5369 8.71629 15.6532Z" fill="#636C79"/>
</svg>