<svg xmlns="http://www.w3.org/2000/svg" width="245" height="42" viewBox="0 0 245 42" fill="none">
  <path d="M242.771 32.2656V35.8635C242.771 36.1073 242.826 36.2843 242.936 36.3944C243.054 36.4966 243.251 36.5477 243.526 36.5477H244.352V37.6684H243.29C242.685 37.6684 242.221 37.5268 241.898 37.2437C241.576 36.9606 241.415 36.5006 241.415 35.8635V32.2656H240.648V31.1686H241.415V29.5525H242.771V31.1686H244.352V32.2656H242.771Z" fill="#0D1017"/>
  <path d="M236.821 31.0624C237.332 31.0624 237.788 31.1686 238.189 31.3809C238.598 31.5932 238.917 31.9078 239.145 32.3246C239.373 32.7414 239.487 33.2447 239.487 33.8346V37.6684H238.154V34.0351C238.154 33.4531 238.008 33.0088 237.718 32.7021C237.427 32.3875 237.029 32.2303 236.526 32.2303C236.023 32.2303 235.622 32.3875 235.323 32.7021C235.032 33.0088 234.886 33.4531 234.886 34.0351V37.6684H233.542V31.1686H234.886V31.9118C235.107 31.6444 235.386 31.436 235.724 31.2865C236.07 31.1371 236.436 31.0624 236.821 31.0624Z" fill="#0D1017"/>
  <path d="M232.218 34.2592C232.218 34.503 232.202 34.7232 232.171 34.9198H227.205C227.244 35.4389 227.437 35.8557 227.783 36.1703C228.129 36.4848 228.553 36.6421 229.057 36.6421C229.78 36.6421 230.291 36.3393 230.59 35.7338H232.041C231.845 36.3315 231.487 36.823 230.968 37.2083C230.457 37.5858 229.82 37.7746 229.057 37.7746C228.435 37.7746 227.877 37.6369 227.382 37.3617C226.894 37.0786 226.509 36.6854 226.226 36.1821C225.95 35.6709 225.813 35.0811 225.813 34.4126C225.813 33.7441 225.946 33.1582 226.214 32.6549C226.489 32.1437 226.87 31.7505 227.358 31.4753C227.853 31.2 228.42 31.0624 229.057 31.0624C229.67 31.0624 230.217 31.1961 230.696 31.4635C231.176 31.7309 231.55 32.1084 231.817 32.5959C232.084 33.0757 232.218 33.6301 232.218 34.2592ZM230.814 33.8346C230.807 33.3391 230.63 32.942 230.284 32.6431C229.937 32.3443 229.509 32.1949 228.998 32.1949C228.534 32.1949 228.137 32.3443 227.806 32.6431C227.476 32.9341 227.279 33.3313 227.216 33.8346H230.814Z" fill="#0D1017"/>
  <path d="M221.872 31.0624C222.383 31.0624 222.839 31.1686 223.24 31.3809C223.649 31.5932 223.968 31.9078 224.196 32.3246C224.432 32.7414 224.55 33.2447 224.55 33.8346V37.6684H223.217V34.0351C223.217 33.4531 223.071 33.0088 222.78 32.7021C222.489 32.3875 222.092 32.2303 221.589 32.2303C221.086 32.2303 220.684 32.3875 220.386 32.7021C220.095 33.0088 219.949 33.4531 219.949 34.0351V37.6684H218.616V34.0351C218.616 33.4531 218.471 33.0088 218.18 32.7021C217.889 32.3875 217.492 32.2303 216.988 32.2303C216.485 32.2303 216.084 32.3875 215.785 32.7021C215.494 33.0088 215.349 33.4531 215.349 34.0351V37.6684H214.004V31.1686H215.349V31.9118C215.569 31.6444 215.848 31.436 216.186 31.2865C216.524 31.1371 216.886 31.0624 217.271 31.0624C217.79 31.0624 218.254 31.1725 218.663 31.3927C219.072 31.6129 219.387 31.9314 219.607 32.3482C219.804 31.955 220.11 31.6444 220.527 31.4163C220.944 31.1804 221.392 31.0624 221.872 31.0624Z" fill="#0D1017"/>
  <path d="M212.68 34.2592C212.68 34.503 212.665 34.7232 212.633 34.9198H207.667C207.706 35.4389 207.899 35.8557 208.245 36.1703C208.591 36.4848 209.016 36.6421 209.519 36.6421C210.242 36.6421 210.754 36.3393 211.052 35.7338H212.503C212.307 36.3315 211.949 36.823 211.43 37.2083C210.919 37.5858 210.282 37.7746 209.519 37.7746C208.898 37.7746 208.339 37.6369 207.844 37.3617C207.356 37.0786 206.971 36.6854 206.688 36.1821C206.412 35.6709 206.275 35.0811 206.275 34.4126C206.275 33.7441 206.409 33.1582 206.676 32.6549C206.951 32.1437 207.333 31.7505 207.82 31.4753C208.316 31.2 208.882 31.0624 209.519 31.0624C210.132 31.0624 210.679 31.1961 211.159 31.4635C211.638 31.7309 212.012 32.1084 212.279 32.5959C212.547 33.0757 212.68 33.6301 212.68 34.2592ZM211.277 33.8346C211.269 33.3391 211.092 32.942 210.746 32.6431C210.4 32.3443 209.971 32.1949 209.46 32.1949C208.996 32.1949 208.599 32.3443 208.268 32.6431C207.938 32.9341 207.742 33.3313 207.679 33.8346H211.277Z" fill="#0D1017"/>
  <path d="M201.347 31.0624C201.85 31.0624 202.295 31.1646 202.68 31.3691C203.073 31.5657 203.38 31.8134 203.6 32.1123V31.1686H204.957V37.7746C204.957 38.3723 204.831 38.9031 204.579 39.3671C204.328 39.8389 203.962 40.2086 203.482 40.476C203.01 40.7433 202.444 40.877 201.784 40.877C200.903 40.877 200.171 40.6686 199.589 40.2518C199.007 39.8429 198.677 39.2845 198.598 38.5767H199.931C200.034 38.9149 200.25 39.1862 200.58 39.3907C200.918 39.603 201.32 39.7092 201.784 39.7092C202.326 39.7092 202.763 39.544 203.093 39.2137C203.431 38.8834 203.6 38.4037 203.6 37.7746V36.6893C203.372 36.996 203.061 37.2555 202.668 37.4679C202.283 37.6723 201.842 37.7746 201.347 37.7746C200.781 37.7746 200.262 37.633 199.79 37.3499C199.326 37.0589 198.956 36.6578 198.681 36.1467C198.414 35.6276 198.28 35.0417 198.28 34.389C198.28 33.7363 198.414 33.1582 198.681 32.6549C198.956 32.1516 199.326 31.7623 199.79 31.4871C200.262 31.204 200.781 31.0624 201.347 31.0624ZM203.6 34.4126C203.6 33.9643 203.506 33.575 203.317 33.2447C203.136 32.9144 202.896 32.6628 202.597 32.4898C202.299 32.3168 201.976 32.2303 201.63 32.2303C201.284 32.2303 200.962 32.3168 200.663 32.4898C200.364 32.6549 200.12 32.9027 199.931 33.233C199.751 33.5554 199.66 33.9407 199.66 34.389C199.66 34.8373 199.751 35.2305 199.931 35.5686C200.12 35.9068 200.364 36.1663 200.663 36.3472C200.97 36.5202 201.292 36.6067 201.63 36.6067C201.976 36.6067 202.299 36.5202 202.597 36.3472C202.896 36.1742 203.136 35.9225 203.317 35.5922C203.506 35.2541 203.6 34.8609 203.6 34.4126Z" fill="#0D1017"/>
  <path d="M190.285 34.389C190.285 33.7363 190.419 33.1582 190.686 32.6549C190.961 32.1516 191.331 31.7623 191.795 31.4871C192.267 31.204 192.786 31.0624 193.352 31.0624C193.863 31.0624 194.308 31.1646 194.685 31.3691C195.071 31.5657 195.377 31.8134 195.605 32.1123V31.1686H196.962V37.6684H195.605V36.7011C195.377 37.0078 195.067 37.2634 194.673 37.4679C194.28 37.6723 193.832 37.7746 193.329 37.7746C192.77 37.7746 192.259 37.633 191.795 37.3499C191.331 37.0589 190.961 36.6578 190.686 36.1467C190.419 35.6276 190.285 35.0417 190.285 34.389ZM195.605 34.4126C195.605 33.9643 195.511 33.575 195.322 33.2447C195.141 32.9144 194.901 32.6628 194.603 32.4898C194.304 32.3168 193.981 32.2303 193.635 32.2303C193.289 32.2303 192.967 32.3168 192.668 32.4898C192.369 32.6549 192.125 32.9027 191.937 33.233C191.756 33.5554 191.665 33.9407 191.665 34.389C191.665 34.8373 191.756 35.2305 191.937 35.5686C192.125 35.9068 192.369 36.1663 192.668 36.3472C192.975 36.5202 193.297 36.6067 193.635 36.6067C193.981 36.6067 194.304 36.5202 194.603 36.3472C194.901 36.1742 195.141 35.9225 195.322 35.5922C195.511 35.2541 195.605 34.8609 195.605 34.4126Z" fill="#0D1017"/>
  <path d="M186.352 31.0624C186.863 31.0624 187.319 31.1686 187.72 31.3809C188.129 31.5932 188.448 31.9078 188.676 32.3246C188.904 32.7414 189.018 33.2447 189.018 33.8346V37.6684H187.685V34.0351C187.685 33.4531 187.54 33.0088 187.249 32.7021C186.958 32.3875 186.561 32.2303 186.057 32.2303C185.554 32.2303 185.153 32.3875 184.854 32.7021C184.563 33.0088 184.417 33.4531 184.417 34.0351V37.6684H183.073V31.1686H184.417V31.9118C184.638 31.6444 184.917 31.436 185.255 31.2865C185.601 31.1371 185.967 31.0624 186.352 31.0624Z" fill="#0D1017"/>
  <path d="M174.63 34.389C174.63 33.7363 174.763 33.1582 175.031 32.6549C175.306 32.1516 175.676 31.7623 176.14 31.4871C176.611 31.204 177.13 31.0624 177.697 31.0624C178.208 31.0624 178.652 31.1646 179.03 31.3691C179.415 31.5657 179.722 31.8134 179.95 32.1123V31.1686H181.306V37.6684H179.95V36.7011C179.722 37.0078 179.411 37.2634 179.018 37.4679C178.625 37.6723 178.176 37.7746 177.673 37.7746C177.115 37.7746 176.604 37.633 176.14 37.3499C175.676 37.0589 175.306 36.6578 175.031 36.1467C174.763 35.6276 174.63 35.0417 174.63 34.389ZM179.95 34.4126C179.95 33.9643 179.855 33.575 179.667 33.2447C179.486 32.9144 179.246 32.6628 178.947 32.4898C178.648 32.3168 178.326 32.2303 177.98 32.2303C177.634 32.2303 177.311 32.3168 177.012 32.4898C176.714 32.6549 176.47 32.9027 176.281 33.233C176.1 33.5554 176.01 33.9407 176.01 34.389C176.01 34.8373 176.1 35.2305 176.281 35.5686C176.47 35.9068 176.714 36.1663 177.012 36.3472C177.319 36.5202 177.642 36.6067 177.98 36.6067C178.326 36.6067 178.648 36.5202 178.947 36.3472C179.246 36.1742 179.486 35.9225 179.667 35.5922C179.855 35.2541 179.95 34.8609 179.95 34.4126Z" fill="#0D1017"/>
  <path d="M173.536 29.4485V38.0199H172.201V32.1494L169.719 38.0199H168.794L166.3 32.1494V38.0199H164.965V29.4485H166.405L169.262 36.17L172.108 29.4485H173.536Z" fill="#0D1017"/>
  <path d="M213.784 19.3722L209.796 28.9273H208.405L209.726 25.7659L207.166 19.3722H208.664L210.492 24.3267L212.392 19.3722H213.784Z" fill="#0D1017"/>
  <path d="M205.112 20.4692V24.0671C205.112 24.3109 205.168 24.4879 205.278 24.598C205.396 24.7002 205.592 24.7513 205.867 24.7513H206.693V25.872H205.632C205.026 25.872 204.562 25.7304 204.24 25.4473C203.917 25.1642 203.756 24.7041 203.756 24.0671V20.4692H202.989V19.3722H203.756V17.756H205.112V19.3722H206.693V20.4692H205.112Z" fill="#0D1017"/>
  <path d="M200.361 20.3159C200.558 19.9856 200.817 19.73 201.14 19.5491C201.47 19.3604 201.859 19.266 202.308 19.266V20.658H201.965C201.438 20.658 201.037 20.7917 200.762 21.059C200.495 21.3264 200.361 21.7904 200.361 22.451V25.872H199.016V19.3722H200.361V20.3159Z" fill="#0D1017"/>
  <path d="M197.693 22.4628C197.693 22.7066 197.677 22.9268 197.646 23.1234H192.679C192.719 23.6425 192.911 24.0593 193.257 24.3738C193.603 24.6884 194.028 24.8457 194.531 24.8457C195.255 24.8457 195.766 24.5429 196.065 23.9374H197.516C197.319 24.5351 196.961 25.0266 196.442 25.4119C195.931 25.7894 195.294 25.9782 194.531 25.9782C193.91 25.9782 193.352 25.8405 192.856 25.5653C192.369 25.2822 191.983 24.889 191.7 24.3856C191.425 23.8745 191.287 23.2846 191.287 22.6162C191.287 21.9477 191.421 21.3618 191.688 20.8585C191.964 20.3473 192.345 19.9541 192.833 19.6789C193.328 19.4036 193.894 19.266 194.531 19.266C195.145 19.266 195.691 19.3997 196.171 19.6671C196.651 19.9345 197.024 20.3119 197.292 20.7995C197.559 21.2792 197.693 21.8337 197.693 22.4628ZM196.289 22.0382C196.281 21.5427 196.104 21.1456 195.758 20.8467C195.412 20.5479 194.984 20.3984 194.472 20.3984C194.008 20.3984 193.611 20.5479 193.281 20.8467C192.951 21.1377 192.754 21.5348 192.691 22.0382H196.289Z" fill="#0D1017"/>
  <path d="M185.086 20.3277C185.314 20.0288 185.624 19.7772 186.018 19.5727C186.411 19.3682 186.855 19.266 187.351 19.266C187.917 19.266 188.432 19.4075 188.896 19.6907C189.368 19.9659 189.737 20.3552 190.005 20.8585C190.272 21.3618 190.406 21.9398 190.406 22.5926C190.406 23.2453 190.272 23.8312 190.005 24.3503C189.737 24.8614 189.368 25.2625 188.896 25.5535C188.432 25.8366 187.917 25.9782 187.351 25.9782C186.855 25.9782 186.415 25.8799 186.029 25.6832C185.644 25.4788 185.329 25.2271 185.086 24.9283V28.9627H183.741V19.3722H185.086V20.3277ZM189.037 22.5926C189.037 22.1443 188.943 21.759 188.754 21.4365C188.573 21.1062 188.33 20.8585 188.023 20.6934C187.724 20.5203 187.402 20.4338 187.056 20.4338C186.717 20.4338 186.395 20.5203 186.088 20.6934C185.789 20.8664 185.546 21.118 185.357 21.4483C185.176 21.7786 185.086 22.1679 185.086 22.6162C185.086 23.0644 185.176 23.4577 185.357 23.7958C185.546 24.1261 185.789 24.3778 186.088 24.5508C186.395 24.7238 186.717 24.8103 187.056 24.8103C187.402 24.8103 187.724 24.7238 188.023 24.5508C188.33 24.3699 188.573 24.1104 188.754 23.7722C188.943 23.4341 189.037 23.0408 189.037 22.5926Z" fill="#0D1017"/>
  <path d="M179.038 25.9782C178.424 25.9782 177.87 25.8405 177.374 25.5653C176.879 25.2822 176.49 24.889 176.206 24.3856C175.923 23.8745 175.782 23.2846 175.782 22.6162C175.782 21.9556 175.927 21.3697 176.218 20.8585C176.509 20.3473 176.906 19.9541 177.41 19.6789C177.913 19.4036 178.475 19.266 179.097 19.266C179.718 19.266 180.28 19.4036 180.783 19.6789C181.287 19.9541 181.684 20.3473 181.975 20.8585C182.266 21.3697 182.411 21.9556 182.411 22.6162C182.411 23.2768 182.262 23.8627 181.963 24.3738C181.664 24.885 181.255 25.2822 180.736 25.5653C180.225 25.8405 179.659 25.9782 179.038 25.9782ZM179.038 24.8103C179.384 24.8103 179.706 24.7277 180.005 24.5626C180.312 24.3974 180.559 24.1497 180.748 23.8194C180.937 23.4891 181.031 23.088 181.031 22.6162C181.031 22.1443 180.941 21.7472 180.76 21.4247C180.579 21.0944 180.339 20.8467 180.04 20.6816C179.741 20.5164 179.419 20.4338 179.073 20.4338C178.727 20.4338 178.405 20.5164 178.106 20.6816C177.815 20.8467 177.583 21.0944 177.41 21.4247C177.237 21.7472 177.15 22.1443 177.15 22.6162C177.15 23.3161 177.327 23.8587 177.681 24.2441C178.043 24.6216 178.495 24.8103 179.038 24.8103Z" fill="#0D1017"/>
  <path d="M173.036 20.3159C173.232 19.9856 173.492 19.73 173.814 19.5491C174.145 19.3604 174.534 19.266 174.982 19.266V20.658H174.64C174.113 20.658 173.712 20.7917 173.437 21.059C173.169 21.3264 173.036 21.7904 173.036 22.451V25.872H171.691V19.3722H173.036V20.3159Z" fill="#0D1017"/>
  <path d="M170.408 20.1153C170.408 20.5321 170.31 20.9253 170.114 21.295C169.917 21.6646 169.602 21.9674 169.17 22.2033C168.737 22.4314 168.183 22.5454 167.506 22.5454H166.02V25.872H164.675V17.6735H167.506C168.136 17.6735 168.666 17.7836 169.099 18.0038C169.539 18.2161 169.866 18.5071 170.078 18.8767C170.298 19.2463 170.408 19.6592 170.408 20.1153ZM167.506 21.4483C168.018 21.4483 168.399 21.3343 168.651 21.1062C168.902 20.8703 169.028 20.54 169.028 20.1153C169.028 19.2188 168.521 18.7705 167.506 18.7705H166.02V21.4483H167.506Z" fill="#0D1017"/>
  <path d="M191.87 7.46954C192.381 7.46954 192.837 7.57571 193.239 7.78805C193.647 8.00038 193.966 8.31495 194.194 8.73176C194.422 9.14857 194.536 9.65188 194.536 10.2417V14.0755H193.203V10.4422C193.203 9.86029 193.058 9.41595 192.767 9.10925C192.476 8.79468 192.079 8.63739 191.575 8.63739C191.072 8.63739 190.671 8.79468 190.372 9.10925C190.081 9.41595 189.936 9.86029 189.936 10.4422V14.0755H188.591V7.57571H189.936V8.31889C190.156 8.0515 190.435 7.8431 190.773 7.69368C191.119 7.54425 191.485 7.46954 191.87 7.46954Z" fill="#0D1017"/>
  <path d="M187.586 7.57574L185.569 14.0756H184.153L182.844 9.27443L181.534 14.0756H180.119L178.09 7.57574H179.458L180.815 12.8016L182.195 7.57574H183.599L184.92 12.778L186.265 7.57574H187.586Z" fill="#0D1017"/>
  <path d="M174.153 14.1817C173.54 14.1817 172.985 14.0441 172.49 13.7688C171.994 13.4857 171.605 13.0925 171.322 12.5892C171.039 12.078 170.897 11.4882 170.897 10.8197C170.897 10.1591 171.043 9.57324 171.334 9.06206C171.625 8.55088 172.022 8.15767 172.525 7.88242C173.029 7.60717 173.591 7.46954 174.212 7.46954C174.833 7.46954 175.396 7.60717 175.899 7.88242C176.402 8.15767 176.799 8.55088 177.09 9.06206C177.381 9.57324 177.527 10.1591 177.527 10.8197C177.527 11.4803 177.378 12.0662 177.079 12.5774C176.78 13.0886 176.371 13.4857 175.852 13.7688C175.341 14.0441 174.774 14.1817 174.153 14.1817ZM174.153 13.0139C174.499 13.0139 174.822 12.9313 175.12 12.7661C175.427 12.601 175.675 12.3533 175.864 12.023C176.052 11.6927 176.147 11.2916 176.147 10.8197C176.147 10.3479 176.056 9.95073 175.875 9.62829C175.695 9.29799 175.455 9.05026 175.156 8.88511C174.857 8.71996 174.535 8.63739 174.189 8.63739C173.843 8.63739 173.52 8.71996 173.221 8.88511C172.93 9.05026 172.698 9.29799 172.525 9.62829C172.352 9.95073 172.266 10.3479 172.266 10.8197C172.266 11.5196 172.443 12.0623 172.797 12.4476C173.158 12.8251 173.611 13.0139 174.153 13.0139Z" fill="#0D1017"/>
  <path d="M169.972 5.87704V6.97411H167.79V14.0756H166.445V6.97411H164.251V5.87704H169.972Z" fill="#0D1017"/>
  <path d="M147.535 5.87704V37.9685H139.718V18.7228L132.541 37.9685H126.232L119.009 18.677V37.9685H111.192V5.87704H120.426L129.432 28.0942L138.346 5.87704H147.535Z" fill="#0D1017"/>
  <path d="M107.122 16.2085C107.122 18.0675 106.696 19.7742 105.842 21.3285C104.989 22.8523 103.679 24.0866 101.911 25.0313C100.143 25.9761 97.9491 26.4485 95.3281 26.4485H90.4824V37.9685H82.6653V5.87704H95.3281C97.8881 5.87704 100.052 6.31895 101.82 7.20276C103.587 8.08657 104.913 9.30561 105.797 10.8599C106.681 12.4142 107.122 14.197 107.122 16.2085ZM94.7339 20.2313C96.2272 20.2313 97.3396 19.8809 98.071 19.1799C98.8024 18.479 99.1681 17.4885 99.1681 16.2085C99.1681 14.9285 98.8024 13.938 98.071 13.237C97.3396 12.5361 96.2272 12.1856 94.7339 12.1856H90.4824V20.2313H94.7339Z" fill="#0D1017"/>
  <path d="M78.742 5.87704V12.1399H70.2392V37.9685H62.422V12.1399H53.9192V5.87704H78.742Z" fill="#0D1017"/>
  <rect x="155.679" y="5.87704" width="0.714286" height="32.1429" fill="#0D1017"/>
  <path fill-rule="evenodd" clip-rule="evenodd" d="M15.097 6.86178L9.41214 41.1229H21.6055V0.877045L15.097 6.86178ZM20.4092 34.6888L11.2274 38.129L11.7511 34.5385L20.41 31.0231V34.6888H20.4092ZM20.4092 29.3038L11.8815 32.8184L12.4045 29.2279L20.4092 25.6373V29.3038ZM20.4092 23.9187L12.6668 27.2838L13.1906 23.6925L20.4092 20.2531V23.9187ZM20.4092 18.6066L13.6024 22.1227L14.1254 18.5314L20.4084 14.9401L20.4092 18.6066ZM20.4092 13.1448L14.3869 16.7369L14.9107 13.1464L20.4092 9.47991V13.1448ZM20.4092 7.83419L15.1722 11.3488L15.9199 7.83419L20.4092 4.1685V7.83419ZM3.87758 41.1229L6.19586 9.85337L3.12987 14.7154L0.959595 41.1229H3.87758ZM41.056 41.123L39.3351 14.9416L41.1679 18.3834L43 41.123H41.056ZM22.2781 0.877045L27.5151 5.36483L34.0972 41.1229H22.2781V0.877045ZM26.9162 6.93617L23.0273 4.1685V7.45918L27.6278 10.1532L26.9162 6.93617ZM27.6278 11.7054L23.0273 9.47991V12.7714L28.1877 14.7906L27.6278 11.7054ZM28.1877 16.7377L23.0273 14.7906V18.0828L28.8963 20.1027L28.1877 16.7377ZM28.8963 22.1227L23.0273 20.1012V23.7677L29.6478 26.0668L28.8963 22.1227ZM29.8342 27.8452L23.0273 25.4126L23.0281 28.9848L30.5696 31.5208L29.8342 27.8452ZM23.0281 30.7243V34.3713L31.4162 36.8844L30.5696 33.4549L23.0281 30.7243ZM6.79401 10.1532L4.40058 41.123H8.88836L9.508 37.307L5.36685 36.2218L5.51639 34.4634L9.75954 35.7617L9.95663 34.5462L5.59538 33.2801L5.74492 31.5216L10.2066 33.0193L10.4053 31.7869L5.79246 30.4357L5.94201 28.6772L10.6522 30.2754L10.8554 29.0285L6.0463 27.5461L6.19584 25.7869L11.1 27.5315L11.3063 26.2677L6.19661 24.6488L6.34692 22.8904L11.4313 24.7424V25.4939L12.4053 19.5046V12.5474L6.79401 10.1532ZM11.5425 23.431L6.5325 21.635L6.68205 19.8758L11.5425 21.8597V23.431ZM11.656 20.5514L6.78327 18.8029L6.93358 17.0444L11.656 18.9808V20.5514ZM11.7688 17.671L7.05628 15.9884L7.20583 14.23L11.7695 16.1004L11.7688 17.671ZM11.8815 14.7906L7.16825 13.1088L7.31779 11.3496L11.8823 13.22V14.7906H11.8815ZM33.3503 16.8098L38.9608 14.5659L40.3826 41.1214H34.8465L33.8833 36.3668L39.516 35.5769L39.335 33.3805L33.5144 34.54L33.2598 33.2839L39.2606 31.9986L39.1494 29.9602L32.8993 31.5047L32.3779 28.928L33.3503 16.8098ZM38.4485 16.3397L33.8495 18.0291L33.7237 19.7193L38.529 18.2691L38.4485 16.3397ZM38.6824 19.1518L33.5995 20.7255L33.4745 22.4141L38.7821 20.8834L38.6824 19.1518ZM38.7836 21.7316L33.3495 23.421L33.2245 25.1105L38.8665 23.5621L38.7836 21.7316ZM38.9493 24.428L33.1003 26.1174L32.9753 27.8076L39.0168 26.2907L38.9493 24.428ZM32.8495 28.8145L32.726 30.5024L39.1494 28.9035L39.0168 27.1251L32.8495 28.8145Z" fill="#6265F0"/>
</svg>