<svg xmlns="http://www.w3.org/2000/svg" width="64" height="64" viewBox="0 0 64 64" fill="none">
  <path d="M40.1054 43.9153H35.1725C35.1725 45.7684 35.1725 51.7114 35.1725 52.6605L34.1264 51.6144L33.0803 52.6605L32.0341 51.6144L30.988 52.6605L29.9419 51.6144L28.8958 52.6605C28.8958 51.7114 28.8958 45.7684 28.8958 43.9153H23.9629C22.8744 43.9153 21.992 44.7977 21.992 45.8862V62.0289C21.992 63.1174 22.8744 63.9998 23.9629 63.9998H40.1056C41.1941 63.9998 42.0765 63.1174 42.0765 62.0289V45.8863C42.0764 44.7978 41.1939 43.9153 40.1054 43.9153Z" fill="#6265F0"/>
  <path d="M9.57311 11.2235C12.6724 11.2235 15.1849 8.71103 15.1849 5.61175C15.1849 2.51247 12.6724 0 9.57311 0C6.47383 0 3.96136 2.51247 3.96136 5.61175C3.96136 8.71103 6.47383 11.2235 9.57311 11.2235Z" fill="#6265F0"/>
  <path d="M19.2952 30.8953L12.0641 25.4417L10.7378 18.5882L13.1797 23.5032L14.7443 24.6832V16.9278C14.7443 14.9794 13.1646 13.3999 11.2162 13.3999H4.75622C2.80785 13.3999 1.2381 14.9794 1.2381 16.9278V60.9593C1.24335 62.6405 2.60772 63.9999 4.28785 63.9999C4.29085 63.9999 4.29422 63.9999 4.29735 63.9999C5.98172 63.9948 7.3431 62.6252 7.33797 60.9407C7.25972 35.156 7.27172 36.8719 7.25035 36.6417H8.64272L8.6446 60.95C8.6446 62.6345 10.0102 63.9999 11.6946 63.9999C13.3791 63.9998 14.7443 62.6342 14.7442 60.9497V37.0245C14.5938 36.9139 15.7756 37.8042 5.84672 30.3158C5.07685 29.7352 4.70172 28.8085 4.76547 27.9133L5.42072 19.6169L6.94447 27.4917C7.0716 28.149 7.43785 28.736 7.97235 29.1392L16.034 35.2192C17.2282 36.1198 18.926 35.8815 19.8262 34.6878C20.7271 33.4937 20.4892 31.7957 19.2952 30.8953Z" fill="#6265F0"/>
  <path d="M59.2437 13.3999H52.7837C50.8354 13.3999 49.256 14.9794 49.256 16.9278V19.9435L50.3372 20.3309L53.5969 17.7473L50.0615 22.5898L41.707 19.5959C40.2989 19.0918 38.749 19.8235 38.2445 21.2315C37.74 22.6395 38.4722 24.1895 39.8801 24.694L50.1409 28.371C51.2736 28.7768 52.5347 28.3865 53.2414 27.4185L57.9709 20.9403L55.034 28.7272C54.341 30.5648 52.3036 31.5024 50.4616 30.8434L49.3922 30.4602L49.2559 30.4113L49.2556 60.9494C49.2555 62.6338 50.6207 63.9995 52.3052 63.9996H52.3054C53.9897 63.9996 55.3551 62.6343 55.3554 60.9499L55.3571 36.6415H56.7495C56.7411 36.7327 56.6619 60.9405 56.6619 60.9405C56.6567 62.625 58.0181 63.9947 59.7025 63.9998C59.7057 63.9998 59.7087 63.9998 59.712 63.9998C61.392 63.9998 62.7566 62.6403 62.7616 60.9592V16.9278C62.762 14.9794 61.1921 13.3999 59.2437 13.3999Z" fill="#6265F0"/>
  <path d="M41.4917 11.2392C41.23 10.5625 40.4691 10.226 39.7924 10.4877L35.153 12.2821C34.4761 12.5439 34.1396 13.3047 34.4015 13.9816L36.5744 19.5991C37.7605 17.6289 40.2076 16.7011 42.4556 17.5066L44.1509 18.1141L41.4917 11.2392Z" fill="#6265F0"/>
  <path d="M54.4268 0C51.8136 0 49.6177 1.78612 48.9931 4.20412H44.6955C43.9178 4.20412 43.2877 4.83437 43.2877 5.61188C43.2877 6.3895 43.918 7.01963 44.6955 7.01963H48.9931C49.6177 9.43762 51.8137 11.2238 54.4268 11.2238C57.5262 11.2238 60.0388 8.71113 60.0388 5.61175C60.0388 2.51263 57.5262 0 54.4268 0Z" fill="#6265F0"/>
</svg>