<svg width="64" height="64" viewBox="0 0 64 64" fill="none" xmlns="http://www.w3.org/2000/svg">
<g id="fi_4460756" clip-path="url(#clip0_766_138)">
<g id="Group">
<path id="path2" fill-rule="evenodd" clip-rule="evenodd" d="M33.1574 8.62838C27.9585 8.45525 22.7059 9.87366 18.171 12.9007C13.0778 16.3041 9.51832 21.3299 7.87882 26.9482C7.42607 26.893 6.8839 26.9173 6.24013 27.0994C3.83655 27.7814 2.02879 29.7509 1.21595 31.4855C0.161689 33.746 -0.282936 36.7357 0.186074 39.822C0.651833 42.8986 1.95157 45.4347 3.57725 47.0092C5.20782 48.5845 7.04891 49.0966 8.8778 48.7121C11.6008 48.1309 12.951 47.696 12.5697 45.1592L10.7238 32.8617C11.0961 26.2061 14.5417 19.9407 20.3047 16.0878C28.0186 10.9352 38.132 11.2652 45.4899 16.9137C50.6083 20.8381 53.5801 26.7182 53.9231 32.8909L52.6323 41.4932C49.7532 49.3721 42.6157 54.8296 34.3564 55.6042H28.8567C27.4374 55.6042 26.2946 56.7471 26.2946 58.1646V59.5156C26.2946 60.934 27.4374 62.0769 28.8567 62.0769H35.791C37.2094 62.0769 38.3474 60.934 38.3474 59.5156V58.8092C44.5754 57.2892 50.0117 53.4615 53.5516 48.1236L55.7731 48.7129C57.5809 49.1819 59.4439 48.5845 61.0737 47.01C62.6994 45.4347 63.9983 42.8995 64.4649 39.8229C64.9355 36.7365 64.4779 33.7517 63.4358 31.4863C62.3897 29.2209 60.8315 27.7822 59.0326 27.2661C58.2791 27.049 57.4614 26.9694 56.7599 26.9482C55.2773 21.868 52.2251 17.2478 47.826 13.8745C43.5008 10.5556 38.3564 8.79908 33.1574 8.62838Z" fill="#6265F0"/>
<path id="path4" fill-rule="evenodd" clip-rule="evenodd" d="M41.2737 30.7524C43.1066 30.7524 44.5925 32.2383 44.5966 34.0762C44.5925 35.9091 43.1066 37.3991 41.2737 37.3991C39.4358 37.3991 37.9459 35.9091 37.9459 34.0762C37.9459 32.2391 39.4367 30.7524 41.2737 30.7524ZM32.3243 30.7524C34.1613 30.7524 35.6472 32.2383 35.6472 34.0762C35.6472 35.9091 34.1613 37.3991 32.3243 37.3991C30.4856 37.3991 28.9998 35.9091 28.9998 34.0762C28.9998 32.2391 30.4856 30.7524 32.3243 30.7524ZM23.3781 30.7524C25.2111 30.7524 26.701 32.2383 26.701 34.0762C26.701 35.9091 25.2111 37.3991 23.3781 37.3991C21.5411 37.3991 20.0544 35.9091 20.0544 34.0762C20.0544 32.2391 21.5411 30.7524 23.3781 30.7524ZM32.3243 16.4773C22.5783 16.4773 14.7246 24.0725 14.7246 34.0762C14.7246 38.8809 16.5413 43.1272 19.5009 46.2428L18.4507 50.9508C18.1044 52.5 19.179 53.5421 20.5714 52.7667L25.1688 50.2021C27.3537 51.1507 29.7703 51.675 32.3243 51.675C42.0735 51.675 49.9223 44.0847 49.9223 34.0762C49.9223 24.0725 42.0735 16.4773 32.3243 16.4773Z" fill="#6265F0"/>
</g>
</g>
<defs>
<clipPath id="clip0_766_138">
<rect width="64" height="64" fill="white"/>
</clipPath>
</defs>
</svg>
