<svg width="188" height="57" viewBox="0 0 188 57" fill="none" xmlns="http://www.w3.org/2000/svg">
<g id="Group 7071">
<path id="Vector" d="M12.072 56.997C11.5862 56.997 11.1122 56.9912 10.6302 56.9811C9.63183 56.9689 8.63577 56.8877 7.6502 56.738C6.73122 56.5901 5.84097 56.3149 5.00882 55.9216C4.1843 55.5315 3.43227 55.02 2.78154 54.4067C2.1214 53.8007 1.57179 53.0977 1.15452 52.3258C0.73264 51.5488 0.440677 50.716 0.288796 49.8564C0.124779 48.9327 0.0360388 47.9987 0.023341 47.0624C0.013233 46.7481 0 45.7018 0 45.7018V11.2792C0 11.2792 0.0140939 10.2489 0.0234207 9.94624C0.0355788 9.01146 0.123803 8.0789 0.28733 7.15664C0.43949 6.29463 0.73168 5.45942 1.15378 4.67991C1.56953 3.9085 2.11608 3.20504 2.77225 2.5968C3.42768 1.98278 4.18212 1.46867 5.00804 1.0732C5.83828 0.681123 6.72684 0.407894 7.64397 0.262663C8.63277 0.111515 9.63229 0.0297965 10.6341 0.0181944L12.0727 0H175.919L177.375 0.0189245C178.368 0.0299502 179.358 0.110939 180.338 0.261203C181.265 0.408255 182.162 0.683391 183.002 1.07756C184.657 1.87455 186.003 3.13545 186.852 4.68355C187.268 5.45767 187.555 6.28607 187.706 7.14063C187.871 8.07047 187.964 9.01035 187.983 9.9528C187.987 10.3748 187.987 10.8281 187.987 11.2792C188 11.838 188 12.3699 188 12.9061V44.0923C188 44.6337 188 45.1619 187.987 45.6945C187.987 46.1791 187.987 46.623 187.981 47.0798C187.963 48.0055 187.872 48.9286 187.709 49.8418C187.56 50.7076 187.27 51.5469 186.848 52.3303C186.428 53.0938 185.881 53.7907 185.229 54.3951C184.577 55.0117 183.824 55.5262 182.997 55.9188C182.16 56.3151 181.264 56.5913 180.338 56.738C179.353 56.8885 178.357 56.9697 177.358 56.9811C176.891 56.9912 176.402 56.997 175.927 56.997L174.199 57L12.072 56.997Z" fill="white"/>
<g id="&#60;Group&#62;">
<g id="&#60;Group&#62;_2">
<g id="&#60;Group&#62;_3">
<path id="&#60;Path&#62;" d="M37.5419 29.2225C37.5576 27.9857 37.8804 26.7731 38.4802 25.6973C39.08 24.6216 39.9374 23.7178 40.9726 23.07C40.315 22.114 39.4474 21.3273 38.4388 20.7723C37.4302 20.2172 36.3083 19.9093 35.1623 19.8728C32.7176 19.6116 30.3477 21.3617 29.1019 21.3617C27.8321 21.3617 25.9141 19.8987 23.8487 19.942C22.5127 19.9859 21.2107 20.3813 20.0696 21.0897C18.9284 21.7981 17.987 22.7953 17.337 23.9841C14.5215 28.9458 16.6216 36.2378 19.3186 40.2484C20.668 42.2123 22.2451 44.4061 24.3086 44.3283C26.3279 44.243 27.082 43.0176 29.5195 43.0176C31.9343 43.0176 32.6419 44.3283 34.7473 44.2788C36.914 44.243 38.2792 42.3062 39.5813 40.3237C40.5508 38.9243 41.2968 37.3777 41.7918 35.7412C40.5329 35.1993 39.4587 34.2921 38.7029 33.1329C37.9472 31.9737 37.5434 30.6137 37.5419 29.2225Z" fill="black"/>
<path id="&#60;Path&#62;_2" d="M33.5651 17.2334C34.7466 15.7898 35.3286 13.9344 35.1877 12.061C33.3827 12.254 31.7154 13.132 30.5181 14.5202C29.9326 15.1984 29.4842 15.9874 29.1986 16.842C28.9129 17.6967 28.7955 18.6003 28.8531 19.5011C29.7559 19.5106 30.649 19.3114 31.4652 18.9186C32.2814 18.5258 32.9994 17.9496 33.5651 17.2334Z" fill="black"/>
</g>
</g>
<g id="Group">
<path id="Vector_2" d="M63.4644 39.3556H56.5735L54.9187 44.3292H52L58.5269 25.9282H61.5594L68.0863 44.3292H65.1178L63.4644 39.3556ZM57.2872 37.0605H62.7494L60.0567 28.9888H59.9814L57.2872 37.0605Z" fill="black"/>
<path id="Vector_3" d="M82.1823 37.622C82.1823 41.791 79.9901 44.4695 76.6818 44.4695C75.8438 44.5141 75.0103 44.3176 74.2769 43.9025C73.5435 43.4874 72.9397 42.8705 72.5348 42.1223H72.4722V48.7673H69.7667V30.9134H72.3855V33.1447H72.4353C72.8588 32.4002 73.4728 31.7864 74.2118 31.3688C74.9508 30.9512 75.7872 30.7452 76.6321 30.773C79.9772 30.773 82.1823 33.4645 82.1823 37.622ZM79.4015 37.622C79.4015 34.9058 78.0225 33.1201 75.9184 33.1201C73.8512 33.1201 72.4608 34.9434 72.4608 37.622C72.4608 40.3251 73.8512 42.1354 75.9184 42.1354C78.0225 42.1354 79.4015 40.3627 79.4015 37.622Z" fill="black"/>
<path id="Vector_4" d="M96.6895 37.622C96.6895 41.791 94.4973 44.4695 91.189 44.4695C90.351 44.5141 89.5175 44.3176 88.7841 43.9025C88.0507 43.4874 87.4469 42.8704 87.042 42.1223H86.9794V48.7672H84.2739V30.9133H86.8927V33.1447H86.9424C87.366 32.4002 87.9799 31.7864 88.7189 31.3688C89.458 30.9512 90.2944 30.7452 91.1392 30.773C94.4845 30.773 96.6895 33.4645 96.6895 37.622ZM93.9087 37.622C93.9087 34.9058 92.5297 33.1201 90.4256 33.1201C88.3584 33.1201 86.968 34.9434 86.968 37.622C86.968 40.3251 88.3584 42.1354 90.4256 42.1354C92.5297 42.1354 93.9087 40.3627 93.9087 37.622H93.9087Z" fill="black"/>
<path id="Vector_5" d="M106.277 39.2019C106.478 41.0267 108.219 42.2248 110.599 42.2248C112.879 42.2248 114.52 41.0266 114.52 39.3813C114.52 37.953 113.531 37.0978 111.188 36.5117L108.845 35.9372C105.525 35.1211 103.984 33.5409 103.984 30.9767C103.984 27.8018 106.702 25.6211 110.562 25.6211C114.382 25.6211 117.001 27.8018 117.089 30.9767H114.358C114.194 29.1404 112.703 28.0319 110.524 28.0319C108.344 28.0319 106.853 29.1534 106.853 30.7857C106.853 32.0866 107.805 32.8521 110.136 33.4381L112.127 33.9359C115.836 34.8287 117.378 36.3453 117.378 39.0368C117.378 42.4794 114.683 44.6355 110.399 44.6355C106.389 44.6355 103.683 42.53 103.508 39.2018L106.277 39.2019Z" fill="black"/>
<path id="Vector_6" d="M123.216 27.7388V30.9136H125.723V33.0944H123.216V40.4903C123.216 41.6393 123.718 42.1747 124.82 42.1747C125.118 42.1694 125.415 42.1482 125.71 42.111V44.2787C125.215 44.3729 124.711 44.4156 124.207 44.406C121.539 44.406 120.498 43.3859 120.498 40.784V33.0944H118.582V30.9136H120.498V27.7388H123.216Z" fill="black"/>
<path id="Vector_7" d="M127.174 37.6216C127.174 33.4005 129.617 30.748 133.426 30.748C137.247 30.748 139.678 33.4005 139.678 37.6216C139.678 41.8543 137.26 44.4952 133.426 44.4952C129.593 44.4952 127.174 41.8543 127.174 37.6216ZM136.921 37.6216C136.921 34.726 135.618 33.017 133.426 33.017C131.233 33.017 129.931 34.7391 129.931 37.6216C129.931 40.5288 131.233 42.2247 133.426 42.2247C135.618 42.2247 136.921 40.5288 136.921 37.6216H136.921Z" fill="black"/>
<path id="Vector_8" d="M141.908 30.9132H144.489V33.1967H144.551C144.726 32.4835 145.136 31.8533 145.714 31.4118C146.291 30.9704 147 30.7448 147.722 30.7728C148.033 30.7717 148.344 30.8062 148.648 30.8756V33.4514C148.255 33.3289 147.844 33.2727 147.433 33.285C147.04 33.2687 146.648 33.3393 146.284 33.4917C145.921 33.6442 145.594 33.8749 145.326 34.1682C145.058 34.4614 144.856 34.8102 144.733 35.1905C144.61 35.5708 144.569 35.9737 144.614 36.3715V44.329H141.908L141.908 30.9132Z" fill="black"/>
<path id="Vector_9" d="M161.122 40.3884C160.758 42.8238 158.428 44.4952 155.447 44.4952C151.613 44.4952 149.233 41.8803 149.233 37.6853C149.233 33.4772 151.626 30.748 155.333 30.748C158.98 30.748 161.273 33.2978 161.273 37.3655V38.309H151.964V38.4754C151.921 38.9691 151.982 39.4665 152.142 39.9345C152.303 40.4025 152.559 40.8304 152.894 41.1899C153.23 41.5493 153.636 41.8319 154.087 42.0191C154.538 42.2062 155.023 42.2936 155.51 42.2754C156.149 42.3364 156.791 42.1856 157.339 41.8457C157.887 41.5057 158.313 40.9946 158.553 40.3884L161.122 40.3884ZM151.977 36.3844H158.566C158.591 35.9404 158.524 35.4962 158.372 35.0795C158.22 34.6628 157.984 34.2826 157.681 33.9629C157.377 33.6432 157.012 33.3908 156.608 33.2216C156.204 33.0523 155.77 32.9699 155.333 32.9794C154.893 32.9767 154.456 33.0629 154.048 33.2329C153.641 33.403 153.27 33.6535 152.958 33.97C152.646 34.2866 152.399 34.6629 152.23 35.0773C152.062 35.4917 151.976 35.9359 151.977 36.3844V36.3844Z" fill="black"/>
</g>
<g id="Group_2">
<path id="Vector_10" d="M56.9483 12.0779C57.5155 12.0365 58.0847 12.1237 58.6147 12.3333C59.1448 12.5428 59.6226 12.8695 60.0136 13.2898C60.4046 13.7101 60.6991 14.2135 60.8758 14.7636C61.0526 15.3138 61.1072 15.897 61.0356 16.4712C61.0356 19.2959 59.5358 20.9195 56.9483 20.9195H53.8107V12.0779H56.9483ZM55.1598 19.6691H56.7976C57.2029 19.6938 57.6085 19.6262 57.9849 19.4712C58.3613 19.3161 58.699 19.0776 58.9734 18.773C59.2478 18.4684 59.452 18.1054 59.5712 17.7103C59.6904 17.3152 59.7215 16.8981 59.6623 16.4892C59.7172 16.082 59.6829 15.6674 59.5619 15.2752C59.4409 14.883 59.2362 14.523 58.9624 14.2208C58.6886 13.9186 58.3525 13.6818 57.9783 13.5273C57.604 13.3729 57.2008 13.3046 56.7976 13.3274H55.1598V19.6691Z" fill="black"/>
<path id="Vector_11" d="M62.5595 17.5792C62.5183 17.1407 62.5676 16.6983 62.7042 16.2803C62.8408 15.8624 63.0618 15.4781 63.3528 15.1521C63.6439 14.8261 63.9987 14.5657 64.3945 14.3875C64.7902 14.2093 65.2182 14.1172 65.651 14.1172C66.0838 14.1172 66.5117 14.2093 66.9075 14.3875C67.3033 14.5657 67.6581 14.8261 67.9491 15.1521C68.2402 15.4781 68.4611 15.8624 68.5978 16.2803C68.7344 16.6983 68.7836 17.1407 68.7424 17.5792C68.7844 18.0182 68.7357 18.4612 68.5995 18.8798C68.4632 19.2985 68.2424 19.6835 67.9513 20.0101C67.6601 20.3367 67.3051 20.5977 66.9089 20.7763C66.5128 20.9549 66.0843 21.0472 65.651 21.0472C65.2177 21.0472 64.7892 20.9549 64.3931 20.7763C63.9969 20.5977 63.6418 20.3367 63.3507 20.0101C63.0595 19.6835 62.8387 19.2985 62.7025 18.8798C62.5662 18.4612 62.5176 18.0182 62.5595 17.5792ZM67.4117 17.5792C67.4117 16.1329 66.7734 15.2871 65.6531 15.2871C64.5286 15.2871 63.896 16.1329 63.896 17.5792C63.896 19.0372 64.5286 19.8765 65.6531 19.8765C66.7734 19.8764 67.4117 19.0314 67.4117 17.5792H67.4117Z" fill="black"/>
<path id="Vector_12" d="M76.9613 20.9185H75.6192L74.2643 16.0043H74.162L72.8128 20.9185H71.4835L69.6766 14.2461H70.9888L72.1631 19.3376H72.2598L73.6075 14.2461H74.8487L76.1964 19.3376H76.2988L77.4674 14.2461H78.7611L76.9613 20.9185Z" fill="black"/>
<path id="Vector_13" d="M80.2807 14.2477H81.526V15.3076H81.6227C81.7867 14.9269 82.0633 14.6078 82.414 14.3947C82.7646 14.1816 83.1719 14.0852 83.5789 14.1189C83.8979 14.0945 84.2182 14.1434 84.516 14.2621C84.8139 14.3808 85.0817 14.5662 85.2996 14.8045C85.5175 15.0428 85.6799 15.328 85.7749 15.6389C85.8698 15.9499 85.8948 16.2785 85.8479 16.6006V20.92H84.5542V16.9313C84.5542 15.859 84.0964 15.3257 83.1396 15.3257C82.9231 15.3155 82.7069 15.353 82.5059 15.4357C82.3049 15.5184 82.1239 15.6444 81.9752 15.805C81.8266 15.9656 81.7138 16.1571 81.6446 16.3662C81.5754 16.5753 81.5514 16.7972 81.5744 17.0166V20.9201H80.2806L80.2807 14.2477Z" fill="black"/>
<path id="Vector_14" d="M87.9097 11.6421H89.2035V20.9192H87.9097V11.6421Z" fill="black"/>
<path id="Vector_15" d="M91.0018 17.5794C90.9606 17.1408 91.0099 16.6984 91.1465 16.2804C91.2832 15.8624 91.5042 15.4781 91.7953 15.1521C92.0864 14.8262 92.4412 14.5657 92.837 14.3875C93.2328 14.2093 93.6608 14.1172 94.0936 14.1172C94.5264 14.1172 94.9544 14.2093 95.3502 14.3875C95.7459 14.5657 96.1008 14.8262 96.3919 15.1521C96.683 15.4781 96.9039 15.8624 97.0406 16.2804C97.1772 16.6984 97.2265 17.1408 97.1854 17.5794C97.2273 18.0183 97.1786 18.4613 97.0423 18.88C96.906 19.2986 96.6851 19.6836 96.394 20.0102C96.1028 20.3368 95.7477 20.5978 95.3515 20.7764C94.9554 20.955 94.5269 21.0473 94.0936 21.0473C93.6603 21.0473 93.2318 20.955 92.8356 20.7764C92.4394 20.5978 92.0843 20.3368 91.7932 20.0102C91.502 19.6836 91.2812 19.2986 91.1449 18.88C91.0086 18.4613 90.9598 18.0183 91.0018 17.5794ZM95.8539 17.5794C95.8539 16.133 95.2156 15.2872 94.0953 15.2872C92.9708 15.2872 92.3382 16.133 92.3382 17.5794C92.3382 19.0373 92.9708 19.8766 94.0953 19.8766C95.2156 19.8766 95.854 19.0315 95.854 17.5794H95.8539Z" fill="black"/>
<path id="Vector_16" d="M98.5474 19.0314C98.5474 17.8303 99.426 17.1379 100.986 17.0395L102.761 16.9353V16.3594C102.761 15.6547 102.303 15.2567 101.419 15.2567C100.697 15.2567 100.197 15.5266 100.053 15.9984H98.8004C98.9326 14.8523 99.9918 14.1172 101.479 14.1172C103.122 14.1172 104.049 14.95 104.049 16.3594V20.9184H102.804V19.9807H102.702C102.494 20.3171 102.202 20.5913 101.856 20.7753C101.51 20.9594 101.122 21.0467 100.732 21.0283C100.457 21.0575 100.179 21.0276 99.916 20.9406C99.6528 20.8536 99.4105 20.7115 99.2046 20.5233C98.9988 20.3352 98.8339 20.1052 98.7207 19.8483C98.6075 19.5913 98.5484 19.313 98.5474 19.0314ZM102.761 18.4613V17.9034L101.16 18.0076C100.258 18.0691 99.8482 18.3817 99.8482 18.9699C99.8482 19.5704 100.36 19.9199 101.064 19.9199C101.27 19.9412 101.478 19.92 101.676 19.8576C101.874 19.7952 102.058 19.6929 102.216 19.5569C102.375 19.4208 102.505 19.2536 102.598 19.0654C102.692 18.8772 102.747 18.6717 102.761 18.4613Z" fill="black"/>
<path id="Vector_17" d="M105.75 17.5802C105.75 15.4718 106.814 14.1361 108.471 14.1361C108.88 14.1169 109.287 14.2168 109.643 14.4241C109.999 14.6314 110.29 14.9375 110.481 15.3068H110.578V11.6421H111.871V20.9192H110.632V19.865H110.529C110.323 20.2318 110.022 20.5341 109.66 20.7393C109.297 20.9445 108.886 21.0448 108.471 21.0292C106.803 21.0293 105.75 19.6936 105.75 17.5802ZM107.086 17.5802C107.086 18.9954 107.741 19.847 108.838 19.847C109.928 19.847 110.602 18.9831 110.602 17.5859C110.602 16.1953 109.921 15.3191 108.838 15.3191C107.749 15.3191 107.086 16.1765 107.086 17.5802H107.086Z" fill="black"/>
<path id="Vector_18" d="M117.224 17.5792C117.183 17.1407 117.232 16.6983 117.369 16.2803C117.505 15.8624 117.726 15.4781 118.017 15.1521C118.308 14.8261 118.663 14.5657 119.059 14.3875C119.455 14.2093 119.883 14.1172 120.315 14.1172C120.748 14.1172 121.176 14.2093 121.572 14.3875C121.968 14.5657 122.322 14.8261 122.613 15.1521C122.905 15.4781 123.125 15.8624 123.262 16.2803C123.399 16.6983 123.448 17.1407 123.407 17.5792C123.449 18.0182 123.4 18.4612 123.264 18.8798C123.128 19.2985 122.907 19.6835 122.616 20.0101C122.324 20.3367 121.969 20.5977 121.573 20.7763C121.177 20.9549 120.749 21.0472 120.315 21.0472C119.882 21.0472 119.454 20.9549 119.057 20.7763C118.661 20.5977 118.306 20.3367 118.015 20.0101C117.724 19.6835 117.503 19.2985 117.367 18.8798C117.231 18.4612 117.182 18.0182 117.224 17.5792ZM122.076 17.5792C122.076 16.1329 121.438 15.2871 120.317 15.2871C119.193 15.2871 118.56 16.1329 118.56 17.5792C118.56 19.0372 119.193 19.8765 120.317 19.8765C121.438 19.8764 122.076 19.0314 122.076 17.5792Z" fill="black"/>
<path id="Vector_19" d="M125.143 14.2477H126.388V15.3076H126.485C126.649 14.9269 126.926 14.6078 127.276 14.3947C127.627 14.1816 128.034 14.0852 128.441 14.1189C128.76 14.0945 129.08 14.1434 129.378 14.2621C129.676 14.3808 129.944 14.5662 130.162 14.8045C130.38 15.0428 130.542 15.328 130.637 15.6389C130.732 15.9499 130.757 16.2785 130.71 16.6006V20.92H129.416V16.9313C129.416 15.859 128.959 15.3257 128.002 15.3257C127.785 15.3155 127.569 15.353 127.368 15.4357C127.167 15.5184 126.986 15.6444 126.837 15.805C126.689 15.9656 126.576 16.1571 126.507 16.3662C126.438 16.5753 126.414 16.7972 126.437 17.0166V20.9201H125.143V14.2477Z" fill="black"/>
<path id="Vector_20" d="M138.021 12.5859V14.2776H139.441V15.3867H138.021V18.8177C138.021 19.5167 138.304 19.8227 138.948 19.8227C139.113 19.8222 139.277 19.812 139.441 19.7923V20.8892C139.209 20.9315 138.973 20.954 138.737 20.9565C137.299 20.9565 136.726 20.4413 136.726 19.1549V15.3867H135.685V14.2775H136.726V12.5859H138.021Z" fill="black"/>
<path id="Vector_21" d="M141.208 11.6421H142.49V15.3191H142.593C142.765 14.9348 143.049 14.6139 143.407 14.4C143.764 14.1861 144.178 14.0897 144.592 14.1238C144.909 14.1062 145.226 14.1602 145.521 14.2817C145.815 14.4033 146.08 14.5895 146.295 14.8271C146.511 15.0647 146.672 15.3478 146.768 15.6562C146.864 15.9646 146.892 16.2908 146.849 16.6113V20.9193H145.554V16.9362C145.554 15.8704 145.067 15.3307 144.152 15.3307C143.93 15.3121 143.706 15.3432 143.497 15.4218C143.288 15.5004 143.098 15.6247 142.941 15.7858C142.784 15.9469 142.663 16.1411 142.587 16.3546C142.511 16.5682 142.482 16.7961 142.502 17.0223V20.9192H141.208L141.208 11.6421Z" fill="black"/>
<path id="Vector_22" d="M154.392 19.1169C154.217 19.7267 153.836 20.2542 153.317 20.6071C152.797 20.96 152.173 21.1158 151.552 21.0473C151.12 21.0589 150.691 20.9747 150.294 20.8005C149.897 20.6264 149.543 20.3665 149.255 20.0388C148.966 19.7111 148.752 19.3235 148.626 18.903C148.499 18.4824 148.465 18.0389 148.524 17.6033C148.466 17.1663 148.502 16.7219 148.627 16.3001C148.753 15.8782 148.967 15.4889 149.253 15.1583C149.54 14.8278 149.893 14.5638 150.289 14.3841C150.684 14.2045 151.113 14.1135 151.546 14.1173C153.37 14.1173 154.471 15.3857 154.471 17.481V17.9405H149.842V18.0143C149.821 18.2591 149.852 18.5056 149.93 18.7379C150.009 18.9701 150.135 19.1831 150.299 19.3631C150.463 19.543 150.663 19.6861 150.885 19.783C151.107 19.8799 151.346 19.9285 151.587 19.9258C151.897 19.9636 152.21 19.9069 152.488 19.7628C152.766 19.6188 152.995 19.3939 153.147 19.1169L154.392 19.1169ZM149.842 16.9666H153.153C153.169 16.7426 153.139 16.5177 153.065 16.3062C152.991 16.0947 152.874 15.9014 152.722 15.7386C152.57 15.5758 152.386 15.4472 152.182 15.361C151.979 15.2748 151.76 15.2329 151.539 15.2381C151.315 15.2352 151.093 15.278 150.886 15.3638C150.679 15.4497 150.49 15.5769 150.332 15.738C150.174 15.8991 150.049 16.0908 149.965 16.3018C149.881 16.5128 149.839 16.7388 149.842 16.9666H149.842Z" fill="black"/>
</g>
</g>
</g>
</svg>
