<svg width="32" height="32" viewBox="0 0 32 32" fill="none" xmlns="http://www.w3.org/2000/svg">
<g id="fi_542689">
<g id="Group">
<g id="Group_2">
<path id="Vector" d="M20.7348 17.3281L18.0547 20.0173C16.9679 21.1079 15.0557 21.1314 13.9453 20.0173L11.2652 17.3281L1.63916 26.9854C1.99747 27.1511 2.39254 27.2499 2.81254 27.2499H29.1875C29.6075 27.2499 30.0025 27.1512 30.3607 26.9854L20.7348 17.3281Z" fill="#6265F0"/>
</g>
</g>
<g id="Group_3">
<g id="Group_4">
<path id="Vector_2" d="M29.1875 4.75H2.81253C2.39253 4.75 1.99747 4.84888 1.63928 5.01456L11.9253 15.3348C11.926 15.3354 11.9268 15.3356 11.9275 15.3363C11.9282 15.3369 11.9283 15.3379 11.9283 15.3379L15.2729 18.6935C15.6282 19.0488 16.372 19.0488 16.7273 18.6935L20.0712 15.3384C20.0712 15.3384 20.072 15.3369 20.0727 15.3363C20.0727 15.3363 20.0742 15.3354 20.0748 15.3348L30.3607 5.0145C30.0025 4.84875 29.6075 4.75 29.1875 4.75Z" fill="#6265F0"/>
</g>
</g>
<g id="Group_5">
<g id="Group_6">
<path id="Vector_3" d="M0.299125 6.32568C0.11375 6.70056 0 7.11668 0 7.56243V24.4374C0 24.8832 0.113625 25.2993 0.299062 25.6742L9.94175 16.0002L0.299125 6.32568Z" fill="#6265F0"/>
</g>
</g>
<g id="Group_7">
<g id="Group_8">
<path id="Vector_4" d="M31.7009 6.32568L22.0583 16.0004L31.7009 25.6744C31.8863 25.2996 32 24.8834 32 24.4376V7.56256C32 7.11668 31.8863 6.70056 31.7009 6.32568Z" fill="#6265F0"/>
</g>
</g>
</g>
</svg>
