<svg width="54" height="62" viewBox="0 0 54 62" fill="none" xmlns="http://www.w3.org/2000/svg">
<path d="M27.3734 0.5L53.7871 15.75V46.25L27.3734 61.5L0.959595 46.25V15.75L27.3734 0.5Z" fill="#6265F0"/>
<path fill-rule="evenodd" clip-rule="evenodd" d="M22.3152 18.8838L18.1511 43.98H27.0827V14.5L22.3152 18.8838ZM26.2064 39.267L19.4807 41.787L19.8644 39.1569L26.2069 36.5819V39.267H26.2064ZM26.2064 35.3225L19.9599 37.8969L20.343 35.2669L26.2064 32.6368V35.3225ZM26.2064 31.378L20.5351 33.8429L20.9187 31.2123L26.2064 28.6929V31.378ZM26.2064 27.4868L21.2204 30.0624L21.6035 27.4318L26.2058 24.8011L26.2064 27.4868ZM26.2064 23.4861L21.7951 26.1173L22.1787 23.4872L26.2064 20.8016V23.4861ZM26.2064 19.5961L22.3703 22.1705L22.918 19.5961L26.2064 16.911V19.5961ZM14.097 43.98L15.7951 21.0751L13.5493 24.6366L11.9596 43.98H14.097ZM41.3301 43.98L40.0695 24.8023L41.4121 27.3233L42.7541 43.98H41.3301ZM27.5753 14.5L31.4115 17.7873L36.2329 43.98H27.5753V14.5ZM30.9727 18.9383L28.1242 16.911V19.3214L31.494 21.2948L30.9727 18.9383ZM31.494 22.4317L28.1242 20.8016V23.2126L31.9041 24.6916L31.494 22.4317ZM31.9041 26.1179L28.1242 24.6916V27.1032L32.4231 28.5828L31.9041 26.1179ZM32.4231 30.0624L28.1242 28.5816V31.2673L32.9736 32.9514L32.4231 30.0624ZM33.1102 34.2541L28.1242 32.4722L28.1247 35.0888L33.6489 36.9465L33.1102 34.2541ZM28.1247 36.363V39.0345L34.269 40.8753L33.6489 38.3632L28.1247 36.363ZM16.2333 21.2948L14.4801 43.98H17.7674L18.2213 41.1848L15.1879 40.3899L15.2974 39.1019L18.4055 40.0529L18.5499 39.1625L15.3553 38.2351L15.4648 36.947L18.733 38.0441L18.8785 37.1414L15.4997 36.1516L15.6092 34.8636L19.0594 36.0342L19.2082 35.1208L15.6856 34.035L15.7951 32.7464L19.3874 34.0243L19.5386 33.0986L15.7957 31.9128L15.9058 30.6247L19.6301 31.9813V32.5318L20.3435 28.1446V23.0485L16.2333 21.2948ZM19.7116 31.0207L16.0417 29.7051L16.1513 28.4165L19.7116 29.8697V31.0207ZM19.7947 28.9114L16.2254 27.6306L16.3355 26.3426L19.7947 27.7609V28.9114ZM19.8773 26.8015L16.4254 25.569L16.5349 24.281L19.8778 25.6511L19.8773 26.8015ZM19.9599 24.6916L16.5074 23.4597L16.617 22.1711L19.9604 23.5412V24.6916H19.9599ZM35.6857 26.1707L39.7954 24.527L40.8368 43.9789H36.7817L36.0761 40.4961L40.2021 39.9175L40.0695 38.3087L35.8059 39.158L35.6194 38.2379L40.015 37.2964L39.9336 35.8033L35.3554 36.9347L34.9734 35.0473L35.6857 26.1707ZM39.4201 25.8263L36.0514 27.0638L35.9593 28.3019L39.4791 27.2397L39.4201 25.8263ZM39.5915 27.8862L35.8683 29.0389L35.7767 30.2758L39.6645 29.1546L39.5915 27.8862ZM39.6656 29.7759L35.6851 31.0134L35.5936 32.2509L39.7263 31.1168L39.6656 29.7759ZM39.7869 31.751L35.5026 32.9885L35.411 34.2265L39.8364 33.1154L39.7869 31.751ZM35.3189 34.9641L35.2284 36.2005L39.9336 35.0293L39.8364 33.7266L35.3189 34.9641Z" fill="white"/>
</svg>
