<svg width="253" height="48" viewBox="0 0 253 48" fill="none" xmlns="http://www.w3.org/2000/svg">
<g id="Group 2">
<g id="Town Property Management">
<path id="Vector" d="M250.9 35.8087V40.5887C250.9 40.9126 250.973 41.1477 251.119 41.294C251.276 41.4298 251.537 41.4977 251.903 41.4977H253V42.9866H251.589C250.785 42.9866 250.168 42.7985 249.74 42.4224C249.312 42.0462 249.098 41.435 249.098 40.5887V35.8087H248.079V34.3512H249.098V32.2041H250.9V34.3512H253V35.8087H250.9Z" fill="white"/>
<path id="Vector_2" d="M242.995 34.2104C243.674 34.2104 244.28 34.3515 244.813 34.6336C245.356 34.9157 245.779 35.3336 246.082 35.8874C246.385 36.4411 246.537 37.1098 246.537 37.8934V42.9869H244.766V38.1598C244.766 37.3867 244.572 36.7964 244.186 36.3889C243.799 35.971 243.272 35.762 242.603 35.762C241.934 35.762 241.401 35.971 241.004 36.3889C240.618 36.7964 240.424 37.3867 240.424 38.1598V42.9869H238.638V34.3515H240.424V35.3388C240.717 34.9836 241.088 34.7067 241.537 34.5082C241.997 34.3097 242.483 34.2104 242.995 34.2104Z" fill="white"/>
<path id="Vector_3" d="M236.879 38.4576C236.879 38.7815 236.859 39.074 236.817 39.3353H230.219C230.271 40.0248 230.527 40.5786 230.987 40.9965C231.446 41.4144 232.011 41.6234 232.679 41.6234C233.641 41.6234 234.32 41.2211 234.717 40.4166H236.644C236.383 41.2107 235.908 41.8637 235.218 42.3757C234.539 42.8772 233.693 43.1279 232.679 43.1279C231.854 43.1279 231.112 42.9451 230.454 42.5794C229.806 42.2033 229.294 41.6809 228.918 41.0122C228.552 40.333 228.37 39.5494 228.37 38.6613C228.37 37.7733 228.547 36.9949 228.902 36.3262C229.268 35.6471 229.775 35.1247 230.423 34.759C231.081 34.3933 231.833 34.2104 232.679 34.2104C233.494 34.2104 234.22 34.3881 234.858 34.7433C235.495 35.0985 235.991 35.6 236.347 36.2478C236.702 36.8852 236.879 37.6218 236.879 38.4576ZM235.015 37.8934C235.004 37.2352 234.769 36.7075 234.309 36.3105C233.85 35.9135 233.28 35.715 232.601 35.715C231.985 35.715 231.457 35.9135 231.018 36.3105C230.579 36.6971 230.318 37.2247 230.234 37.8934H235.015Z" fill="white"/>
<path id="Vector_4" d="M223.134 34.2104C223.813 34.2104 224.419 34.3515 224.952 34.6336C225.495 34.9157 225.918 35.3336 226.221 35.8874C226.535 36.4411 226.692 37.1098 226.692 37.8934V42.9869H224.921V38.1598C224.921 37.3867 224.727 36.7964 224.341 36.3889C223.954 35.971 223.427 35.762 222.758 35.762C222.089 35.762 221.556 35.971 221.159 36.3889C220.773 36.7964 220.58 37.3867 220.58 38.1598V42.9869H218.809V38.1598C218.809 37.3867 218.615 36.7964 218.229 36.3889C217.842 35.971 217.314 35.762 216.646 35.762C215.977 35.762 215.444 35.971 215.047 36.3889C214.661 36.7964 214.467 37.3867 214.467 38.1598V42.9869H212.681V34.3515H214.467V35.3388C214.76 34.9836 215.131 34.7067 215.58 34.5082C216.029 34.3097 216.51 34.2104 217.022 34.2104C217.712 34.2104 218.328 34.3567 218.871 34.6493C219.415 34.9418 219.832 35.365 220.125 35.9187C220.386 35.3963 220.794 34.9836 221.347 34.6806C221.901 34.3672 222.497 34.2104 223.134 34.2104Z" fill="white"/>
<path id="Vector_5" d="M210.923 38.4576C210.923 38.7815 210.902 39.074 210.86 39.3353H204.262C204.314 40.0248 204.57 40.5786 205.03 40.9965C205.49 41.4144 206.054 41.6234 206.723 41.6234C207.684 41.6234 208.363 41.2211 208.76 40.4166H210.688C210.426 41.2107 209.951 41.8637 209.261 42.3757C208.582 42.8772 207.736 43.1279 206.723 43.1279C205.897 43.1279 205.155 42.9451 204.497 42.5794C203.849 42.2033 203.337 41.6809 202.961 41.0122C202.596 40.333 202.413 39.5494 202.413 38.6613C202.413 37.7733 202.59 36.9949 202.946 36.3262C203.311 35.6471 203.818 35.1247 204.466 34.759C205.124 34.3933 205.876 34.2104 206.723 34.2104C207.537 34.2104 208.264 34.3881 208.901 34.7433C209.538 35.0985 210.035 35.6 210.39 36.2478C210.745 36.8852 210.923 37.6218 210.923 38.4576ZM209.058 37.8934C209.047 37.2352 208.812 36.7075 208.352 36.3105C207.893 35.9135 207.323 35.715 206.644 35.715C206.028 35.715 205.5 35.9135 205.061 36.3105C204.622 36.6971 204.361 37.2247 204.278 37.8934H209.058Z" fill="white"/>
<path id="Vector_6" d="M195.866 34.2104C196.534 34.2104 197.125 34.3463 197.637 34.6179C198.159 34.8791 198.567 35.2082 198.859 35.6053V34.3515H200.661V43.1279C200.661 43.922 200.494 44.6272 200.16 45.2437C199.826 45.8706 199.34 46.3616 198.702 46.7168C198.076 47.0721 197.323 47.2497 196.446 47.2497C195.275 47.2497 194.304 46.9728 193.531 46.4191C192.757 45.8758 192.319 45.134 192.214 44.1936H193.985C194.121 44.6429 194.408 45.0034 194.847 45.275C195.296 45.5571 195.829 45.6982 196.446 45.6982C197.167 45.6982 197.746 45.4787 198.185 45.0399C198.635 44.6011 198.859 43.9638 198.859 43.1279V41.6861C198.556 42.0936 198.143 42.4383 197.621 42.7204C197.109 42.9921 196.524 43.1279 195.866 43.1279C195.114 43.1279 194.424 42.9399 193.797 42.5637C193.181 42.1771 192.69 41.6443 192.324 40.9652C191.969 40.2756 191.791 39.4972 191.791 38.63C191.791 37.7628 191.969 36.9949 192.324 36.3262C192.69 35.6575 193.181 35.1403 193.797 34.7746C194.424 34.3985 195.114 34.2104 195.866 34.2104ZM198.859 38.6613C198.859 38.0658 198.734 37.5486 198.483 37.1098C198.243 36.671 197.924 36.3366 197.527 36.1068C197.13 35.8769 196.702 35.762 196.242 35.762C195.782 35.762 195.354 35.8769 194.957 36.1068C194.56 36.3262 194.236 36.6553 193.985 37.0941C193.745 37.5225 193.625 38.0345 193.625 38.63C193.625 39.2255 193.745 39.748 193.985 40.1972C194.236 40.6465 194.56 40.9913 194.957 41.2316C195.364 41.4614 195.793 41.5764 196.242 41.5764C196.702 41.5764 197.13 41.4614 197.527 41.2316C197.924 41.0017 198.243 40.6674 198.483 40.2286C198.734 39.7793 198.859 39.2569 198.859 38.6613Z" fill="white"/>
<path id="Vector_7" d="M181.169 38.63C181.169 37.7628 181.347 36.9949 181.702 36.3262C182.068 35.6575 182.559 35.1403 183.175 34.7746C183.802 34.3985 184.492 34.2104 185.244 34.2104C185.923 34.2104 186.514 34.3463 187.015 34.6179C187.527 34.8791 187.935 35.2082 188.238 35.6053V34.3515H190.04V42.9869H188.238V41.7017C187.935 42.1092 187.522 42.4488 186.999 42.7204C186.477 42.9921 185.882 43.1279 185.213 43.1279C184.471 43.1279 183.792 42.9399 183.175 42.5637C182.559 42.1771 182.068 41.6443 181.702 40.9652C181.347 40.2756 181.169 39.4972 181.169 38.63ZM188.238 38.6613C188.238 38.0658 188.112 37.5486 187.861 37.1098C187.621 36.671 187.302 36.3366 186.905 36.1068C186.508 35.8769 186.08 35.762 185.62 35.762C185.161 35.762 184.732 35.8769 184.335 36.1068C183.938 36.3262 183.614 36.6553 183.364 37.0941C183.123 37.5225 183.003 38.0345 183.003 38.63C183.003 39.2255 183.123 39.748 183.364 40.1972C183.614 40.6465 183.938 40.9913 184.335 41.2316C184.743 41.4614 185.171 41.5764 185.62 41.5764C186.08 41.5764 186.508 41.4614 186.905 41.2316C187.302 41.0017 187.621 40.6674 187.861 40.2286C188.112 39.7793 188.238 39.2569 188.238 38.6613Z" fill="white"/>
<path id="Vector_8" d="M175.944 34.2104C176.623 34.2104 177.229 34.3515 177.762 34.6336C178.305 34.9157 178.728 35.3336 179.031 35.8874C179.334 36.4411 179.486 37.1098 179.486 37.8934V42.9869H177.715V38.1598C177.715 37.3867 177.522 36.7964 177.135 36.3889C176.749 35.971 176.221 35.762 175.552 35.762C174.884 35.762 174.351 35.971 173.954 36.3889C173.567 36.7964 173.374 37.3867 173.374 38.1598V42.9869H171.587V34.3515H173.374V35.3388C173.666 34.9836 174.037 34.7067 174.487 34.5082C174.946 34.3097 175.432 34.2104 175.944 34.2104Z" fill="white"/>
<path id="Vector_9" d="M160.37 38.63C160.37 37.7628 160.548 36.9949 160.903 36.3262C161.269 35.6575 161.76 35.1403 162.376 34.7746C163.003 34.3985 163.693 34.2104 164.445 34.2104C165.124 34.2104 165.714 34.3463 166.216 34.6179C166.728 34.8791 167.135 35.2082 167.438 35.6053V34.3515H169.241V42.9869H167.438V41.7017C167.135 42.1092 166.723 42.4488 166.2 42.7204C165.678 42.9921 165.082 43.1279 164.414 43.1279C163.672 43.1279 162.993 42.9399 162.376 42.5637C161.76 42.1771 161.269 41.6443 160.903 40.9652C160.548 40.2756 160.37 39.4972 160.37 38.63ZM167.438 38.6613C167.438 38.0658 167.313 37.5486 167.062 37.1098C166.822 36.671 166.503 36.3366 166.106 36.1068C165.709 35.8769 165.281 35.762 164.821 35.762C164.361 35.762 163.933 35.8769 163.536 36.1068C163.139 36.3262 162.815 36.6553 162.564 37.0941C162.324 37.5225 162.204 38.0345 162.204 38.63C162.204 39.2255 162.324 39.748 162.564 40.1972C162.815 40.6465 163.139 40.9913 163.536 41.2316C163.943 41.4614 164.372 41.5764 164.821 41.5764C165.281 41.5764 165.709 41.4614 166.106 41.2316C166.503 41.0017 166.822 40.6674 167.062 40.2286C167.313 39.7793 167.438 39.2569 167.438 38.6613Z" fill="white"/>
<path id="Vector_10" d="M158.918 32.0664V43.454H157.144V35.6547L153.846 43.454H152.617L149.304 35.6547V43.454H147.53V32.0664H149.444L153.239 40.9962L157.02 32.0664H158.918Z" fill="white"/>
<path id="Vector_11" d="M212.388 18.6802L207.091 31.3746H205.242L206.997 27.1745L203.596 18.6802H205.587L208.016 25.2625L210.539 18.6802H212.388Z" fill="white"/>
<path id="Vector_12" d="M200.868 20.1368V24.9168C200.868 25.2407 200.941 25.4758 201.088 25.6221C201.244 25.7579 201.506 25.8258 201.871 25.8258H202.968V27.3147H201.558C200.753 27.3147 200.137 27.1266 199.708 26.7505C199.28 26.3744 199.066 25.7631 199.066 24.9168V20.1368H198.047V18.6793H199.066V16.5322H200.868V18.6793H202.968V20.1368H200.868Z" fill="white"/>
<path id="Vector_13" d="M194.556 19.9329C194.817 19.4941 195.162 19.1545 195.59 18.9142C196.029 18.6635 196.546 18.5381 197.142 18.5381V20.3874H196.687C195.987 20.3874 195.454 20.565 195.089 20.9203C194.733 21.2755 194.556 21.8919 194.556 22.7696V27.3145H192.769V18.6791H194.556V19.9329Z" fill="white"/>
<path id="Vector_14" d="M191.011 22.7852C191.011 23.1091 190.99 23.4017 190.948 23.6629H184.35C184.402 24.3525 184.658 24.9062 185.118 25.3241C185.578 25.7421 186.142 25.951 186.811 25.951C187.772 25.951 188.451 25.5488 188.848 24.7443H190.776C190.515 25.5383 190.039 26.1913 189.35 26.7033C188.671 27.2048 187.824 27.4556 186.811 27.4556C185.985 27.4556 185.244 27.2727 184.585 26.907C183.938 26.5309 183.426 26.0085 183.049 25.3398C182.684 24.6607 182.501 23.8771 182.501 22.989C182.501 22.1009 182.679 21.3225 183.034 20.6538C183.399 19.9747 183.906 19.4523 184.554 19.0866C185.212 18.7209 185.964 18.5381 186.811 18.5381C187.626 18.5381 188.352 18.7157 188.989 19.0709C189.627 19.4262 190.123 19.9277 190.478 20.5755C190.833 21.2128 191.011 21.9494 191.011 22.7852ZM189.146 22.221C189.135 21.5628 188.9 21.0352 188.441 20.6382C187.981 20.2411 187.412 20.0426 186.732 20.0426C186.116 20.0426 185.588 20.2411 185.15 20.6382C184.711 21.0247 184.449 21.5524 184.366 22.221H189.146Z" fill="white"/>
<path id="Vector_15" d="M174.262 19.9486C174.565 19.5516 174.977 19.2172 175.5 18.9456C176.022 18.6739 176.612 18.5381 177.271 18.5381C178.023 18.5381 178.707 18.7262 179.324 19.1023C179.951 19.468 180.442 19.9852 180.797 20.6538C181.152 21.3225 181.33 22.0904 181.33 22.9576C181.33 23.8248 181.152 24.6032 180.797 25.2928C180.442 25.9719 179.951 26.5048 179.324 26.8914C178.707 27.2675 178.023 27.4556 177.271 27.4556C176.612 27.4556 176.027 27.325 175.515 27.0637C175.003 26.7921 174.585 26.4578 174.262 26.0607V31.4206H172.475V18.6791H174.262V19.9486ZM179.512 22.9576C179.512 22.3621 179.386 21.8501 179.136 21.4218C178.895 20.9829 178.571 20.6538 178.164 20.4344C177.767 20.2046 177.339 20.0896 176.879 20.0896C176.43 20.0896 176.001 20.2046 175.594 20.4344C175.197 20.6643 174.873 20.9986 174.622 21.4374C174.382 21.8763 174.262 22.3934 174.262 22.989C174.262 23.5845 174.382 24.1069 174.622 24.5562C174.873 24.995 175.197 25.3294 175.594 25.5592C176.001 25.7891 176.43 25.904 176.879 25.904C177.339 25.904 177.767 25.7891 178.164 25.5592C178.571 25.3189 178.895 24.9741 179.136 24.5249C179.386 24.0756 179.512 23.5532 179.512 22.9576Z" fill="white"/>
<path id="Vector_16" d="M166.227 27.4556C165.412 27.4556 164.675 27.2727 164.017 26.907C163.359 26.5309 162.841 26.0085 162.465 25.3398C162.089 24.6607 161.901 23.8771 161.901 22.989C161.901 22.1113 162.094 21.333 162.481 20.6538C162.867 19.9747 163.395 19.4523 164.064 19.0866C164.732 18.7209 165.479 18.5381 166.305 18.5381C167.13 18.5381 167.877 18.7209 168.546 19.0866C169.215 19.4523 169.742 19.9747 170.129 20.6538C170.515 21.333 170.709 22.1113 170.709 22.989C170.709 23.8666 170.51 24.645 170.113 25.3241C169.716 26.0033 169.173 26.5309 168.483 26.907C167.804 27.2727 167.052 27.4556 166.227 27.4556ZM166.227 25.904C166.686 25.904 167.115 25.7943 167.512 25.5749C167.919 25.3555 168.248 25.0264 168.499 24.5875C168.75 24.1487 168.875 23.6159 168.875 22.989C168.875 22.3621 168.755 21.8345 168.515 21.4061C168.274 20.9673 167.956 20.6382 167.559 20.4187C167.162 20.1993 166.733 20.0896 166.274 20.0896C165.814 20.0896 165.385 20.1993 164.988 20.4187C164.602 20.6382 164.294 20.9673 164.064 21.4061C163.834 21.8345 163.719 22.3621 163.719 22.989C163.719 23.9189 163.954 24.6398 164.424 25.1517C164.905 25.6533 165.506 25.904 166.227 25.904Z" fill="white"/>
<path id="Vector_17" d="M158.253 19.9329C158.514 19.4941 158.859 19.1545 159.287 18.9142C159.726 18.6635 160.243 18.5381 160.838 18.5381V20.3874H160.384C159.684 20.3874 159.151 20.565 158.785 20.9203C158.43 21.2755 158.253 21.8919 158.253 22.7696V27.3145H156.466V18.6791H158.253V19.9329Z" fill="white"/>
<path id="Vector_18" d="M154.762 19.667C154.762 20.2207 154.631 20.7431 154.37 21.2342C154.109 21.7253 153.691 22.1275 153.116 22.441C152.542 22.744 151.805 22.8955 150.907 22.8955H148.932V27.315H147.145V16.4229H150.907C151.743 16.4229 152.448 16.5691 153.022 16.8617C153.608 17.1438 154.041 17.5304 154.323 18.0214C154.616 18.5125 154.762 19.061 154.762 19.667ZM150.907 21.4379C151.586 21.4379 152.093 21.2865 152.427 20.9835C152.761 20.67 152.928 20.2312 152.928 19.667C152.928 18.4759 152.255 17.8804 150.907 17.8804H148.932V21.4379H150.907Z" fill="white"/>
<path id="Vector_19" d="M183.275 2.86621C183.954 2.86621 184.56 3.00726 185.093 3.28936C185.636 3.57146 186.06 3.98938 186.362 4.54313C186.665 5.09688 186.817 5.76556 186.817 6.54917V11.6426H185.046V6.8156C185.046 6.04244 184.853 5.45212 184.466 5.04464C184.08 4.62672 183.552 4.41776 182.883 4.41776C182.215 4.41776 181.682 4.62672 181.285 5.04464C180.898 5.45212 180.705 6.04244 180.705 6.8156V11.6426H178.918V3.00726H180.705V3.99461C180.997 3.63937 181.368 3.3625 181.818 3.16398C182.277 2.96547 182.763 2.86621 183.275 2.86621Z" fill="white"/>
<path id="Vector_20" d="M177.583 3.00732L174.903 11.6427H173.023L171.283 5.26412L169.543 11.6427H167.663L164.967 3.00732H166.785L168.587 9.9501L170.421 3.00732H172.286L174.041 9.91875L175.828 3.00732H177.583Z" fill="white"/>
<path id="Vector_21" d="M159.737 11.7837C158.922 11.7837 158.186 11.6008 157.527 11.2352C156.869 10.859 156.352 10.3366 155.976 9.66794C155.6 8.98881 155.412 8.2052 155.412 7.31711C155.412 6.43947 155.605 5.66108 155.991 4.98196C156.378 4.30283 156.906 3.78042 157.574 3.41474C158.243 3.04905 158.99 2.86621 159.816 2.86621C160.641 2.86621 161.388 3.04905 162.057 3.41474C162.725 3.78042 163.253 4.30283 163.64 4.98196C164.026 5.66108 164.219 6.43947 164.219 7.31711C164.219 8.19475 164.021 8.97314 163.624 9.65227C163.227 10.3314 162.684 10.859 161.994 11.2352C161.315 11.6008 160.563 11.7837 159.737 11.7837ZM159.737 10.2321C160.197 10.2321 160.625 10.1224 161.022 9.90302C161.43 9.68361 161.759 9.35449 162.01 8.91567C162.26 8.47685 162.386 7.944 162.386 7.31711C162.386 6.69022 162.266 6.16259 162.025 5.73422C161.785 5.2954 161.466 4.96628 161.069 4.74687C160.672 4.52746 160.244 4.41776 159.784 4.41776C159.324 4.41776 158.896 4.52746 158.499 4.74687C158.112 4.96628 157.804 5.2954 157.574 5.73422C157.345 6.16259 157.23 6.69022 157.23 7.31711C157.23 8.24699 157.465 8.96791 157.935 9.47987C158.415 9.98138 159.016 10.2321 159.737 10.2321Z" fill="white"/>
<path id="Vector_22" d="M154.182 0.750488V2.208H151.283V11.6427H149.496V2.208H146.581V0.750488H154.182Z" fill="white"/>
</g>
<g id="tpm">
<path id="Vector_23" d="M124.373 0.750488V43.3857H113.988V17.8167L104.453 43.3857H96.0714L86.4755 17.756V43.3857H76.09V0.750488H88.3582L100.323 30.2671L112.166 0.750488H124.373Z" fill="white"/>
<path id="Vector_24" d="M70.6833 14.4763C70.6833 16.9462 70.1165 19.2136 68.9828 21.2785C67.8491 23.303 66.1081 24.9428 63.7597 26.198C61.4113 27.4531 58.4961 28.0807 55.014 28.0807H48.5762V43.3857H38.1907V0.750488H55.014C58.4151 0.750488 61.2898 1.33758 63.6382 2.51177C65.9866 3.68596 67.7479 5.30553 68.9221 7.37048C70.0963 9.43543 70.6833 11.804 70.6833 14.4763ZM54.2245 19.8209C56.2084 19.8209 57.6863 19.3553 58.658 18.424C59.6298 17.4928 60.1157 16.1769 60.1157 14.4763C60.1157 12.7758 59.6298 11.4599 58.658 10.5286C57.6863 9.59739 56.2084 9.13176 54.2245 9.13176H48.5762V19.8209H54.2245Z" fill="white"/>
<path id="Vector_25" d="M32.9785 0.750488V9.07103H21.682V43.3857H11.2965V9.07103H0V0.750488H32.9785Z" fill="white"/>
</g>
<rect id="Rectangle 125" x="135.194" y="0.750488" width="0.948967" height="42.7035" fill="white"/>
</g>
</svg>
