<svg width="76" height="23" viewBox="0 0 76 23" fill="none" xmlns="http://www.w3.org/2000/svg">
<path d="M73.0496 0H2.8096C1.2579 0 0 1.28717 0 2.87498V20.1249C0 21.7127 1.2579 22.9999 2.8096 22.9999H73.0496C74.6013 22.9999 75.8592 21.7127 75.8592 20.1249V2.87498C75.8592 1.28717 74.6013 0 73.0496 0Z" fill="#474C54"/>
<path d="M24.6761 5.93336C24.6866 6.14589 24.6537 6.35835 24.5795 6.55778C24.5053 6.75722 24.3913 6.93947 24.2444 7.09344C24.0798 7.26416 23.881 7.39821 23.661 7.48681C23.441 7.57541 23.2048 7.61657 22.9678 7.60759C22.7293 7.60972 22.4928 7.56416 22.2722 7.47358C22.0515 7.383 21.8512 7.24922 21.683 7.08012C21.5148 6.91102 21.3821 6.71 21.2927 6.48887C21.2033 6.26775 21.159 6.03099 21.1624 5.7925C21.159 5.554 21.2033 5.31724 21.2928 5.09611C21.3822 4.87498 21.5149 4.67396 21.6831 4.50483C21.8512 4.33571 22.0515 4.20191 22.2722 4.11129C22.4928 4.02066 22.7293 3.97505 22.9678 3.97712C23.2131 3.97638 23.4558 4.02596 23.6811 4.12279C23.8904 4.20761 24.0766 4.34065 24.2247 4.51108L23.9192 4.81678C23.8028 4.67977 23.6565 4.57134 23.4915 4.49985C23.3266 4.42836 23.1474 4.39572 22.9678 4.40445C22.7871 4.40352 22.608 4.43907 22.4413 4.50899C22.2746 4.5789 22.1237 4.68174 21.9977 4.81134C21.8717 4.94094 21.7732 5.09464 21.708 5.26323C21.6428 5.43182 21.6123 5.61184 21.6183 5.7925C21.614 6.0631 21.6901 6.32888 21.8371 6.55615C21.984 6.78342 22.1951 6.96193 22.4437 7.06905C22.6922 7.17618 22.9669 7.20708 23.2331 7.15786C23.4992 7.10863 23.7447 6.98148 23.9385 6.79254C24.1168 6.60039 24.2201 6.35056 24.2297 6.08858H22.9678V5.67116H24.6517C24.6677 5.75766 24.6758 5.84541 24.6761 5.93336Z" fill="black"/>
<path d="M27.3455 4.48124H25.7629V5.58305H27.19V6.00054H25.7629V7.10234H27.3455V7.52939H25.3167V4.0542H27.3455V4.48124Z" fill="black"/>
<path d="M29.2287 7.52939H28.7819V4.48124H27.8113V4.0542H30.1994V4.48124H29.2287V7.52939Z" fill="black"/>
<path d="M31.9271 7.52939V4.0542H32.3734V7.52939H31.9271Z" fill="black"/>
<path d="M34.3543 7.52939H33.9075V4.48124H32.9369V4.0542H35.3249V4.48124H34.3543V7.52939Z" fill="black"/>
<path d="M39.8456 7.08091C39.5074 7.41815 39.0492 7.60752 38.5716 7.60752C38.0939 7.60752 37.6358 7.41815 37.2975 7.08091C37.1302 6.91143 36.9986 6.71002 36.9107 6.48867C36.8227 6.26732 36.7802 6.03055 36.7856 5.79243C36.7802 5.55431 36.8227 5.31754 36.9107 5.09619C36.9986 4.87484 37.1302 4.67344 37.2975 4.50395C37.4647 4.33671 37.6632 4.20409 37.8817 4.11368C38.1002 4.02327 38.3344 3.97684 38.5709 3.97705C38.8074 3.97726 39.0415 4.02411 39.2598 4.11491C39.4782 4.20571 39.6765 4.33868 39.8434 4.50621C40.0108 4.67525 40.1426 4.87621 40.231 5.09715C40.3193 5.3181 40.3623 5.55453 40.3575 5.79243C40.3628 6.03053 40.3202 6.26726 40.2322 6.48859C40.1443 6.70992 40.0128 6.91134 39.8456 7.08091ZM37.6272 6.78993C37.8778 7.04002 38.2173 7.18048 38.5713 7.18048C38.9253 7.18048 39.2648 7.04002 39.5153 6.78993C39.6438 6.6584 39.7442 6.5022 39.8106 6.33075C39.877 6.1593 39.908 5.97618 39.9016 5.79243C39.908 5.60869 39.877 5.42556 39.8106 5.25411C39.7442 5.08267 39.6438 4.92646 39.5153 4.79494C39.2648 4.54484 38.9253 4.40438 38.5713 4.40438C38.2173 4.40438 37.8778 4.54484 37.6272 4.79494C37.499 4.92657 37.3986 5.0828 37.3324 5.25423C37.2661 5.42566 37.2352 5.60874 37.2415 5.79243C37.2352 5.97612 37.2661 6.1592 37.3324 6.33063C37.3986 6.50206 37.499 6.6583 37.6272 6.78993Z" fill="black"/>
<path d="M40.9843 7.52939V4.0542H41.5278L43.2168 6.75761H43.236L43.2168 6.08788V4.0542H43.6636V7.52939H43.1975L41.4305 4.69502H41.4113L41.4305 5.36475V7.52939H40.9843Z" fill="black"/>
<path d="M36.6753 12.5982C36.1885 12.6001 35.7131 12.7461 35.3092 13.0179C34.9054 13.2897 34.5911 13.6751 34.406 14.1254C34.221 14.5757 34.1736 15.0707 34.2697 15.548C34.3658 16.0252 34.6012 16.4633 34.946 16.8068C35.2909 17.1504 35.7299 17.3841 36.2075 17.4784C36.6851 17.5727 37.1799 17.5234 37.6295 17.3366C38.0791 17.1499 38.4633 16.8342 38.7336 16.4293C39.0038 16.0243 39.1481 15.5484 39.1481 15.0616C39.1529 14.736 39.0921 14.4127 38.9694 14.1111C38.8467 13.8094 38.6646 13.5356 38.4339 13.3057C38.2032 13.0759 37.9286 12.8948 37.6265 12.7733C37.3244 12.6517 37.0009 12.5922 36.6753 12.5982ZM36.6753 16.5546C36.3755 16.576 36.0762 16.5066 35.8164 16.3555C35.5565 16.2044 35.3482 15.9786 35.2186 15.7074C35.0889 15.4362 35.0438 15.1323 35.0893 14.8352C35.1348 14.5381 35.2686 14.2616 35.4735 14.0416C35.6783 13.8216 35.9446 13.6684 36.2378 13.602C36.5309 13.5355 36.8372 13.5588 37.1169 13.6688C37.3966 13.7789 37.6367 13.9706 37.8059 14.219C37.9751 14.4674 38.0656 14.761 38.0656 15.0616C38.0747 15.2515 38.0457 15.4413 37.9804 15.6198C37.915 15.7983 37.8146 15.9619 37.685 16.1011C37.5555 16.2402 37.3994 16.352 37.226 16.4299C37.0526 16.5078 36.8654 16.5502 36.6753 16.5546ZM31.281 12.5982C30.7942 12.6 30.3188 12.7461 29.9149 13.0179C29.511 13.2897 29.1967 13.6751 29.0117 14.1254C28.8267 14.5757 28.7792 15.0707 28.8753 15.5479C28.9714 16.0252 29.2068 16.4632 29.5517 16.8068C29.8965 17.1504 30.3355 17.3841 30.8131 17.4784C31.2907 17.5727 31.7856 17.5234 32.2352 17.3367C32.6847 17.1499 33.0689 16.8342 33.3392 16.4293C33.6095 16.0243 33.7537 15.5484 33.7537 15.0616C33.7585 14.736 33.6977 14.4128 33.575 14.1111C33.4524 13.8095 33.2702 13.5356 33.0395 13.3057C32.8088 13.0759 32.5343 12.8948 32.2322 12.7733C31.9301 12.6517 31.6066 12.5922 31.281 12.5982ZM31.281 16.5546C30.9812 16.576 30.6819 16.5066 30.4221 16.3555C30.1622 16.2044 29.9539 15.9786 29.8243 15.7074C29.6946 15.4362 29.6495 15.1323 29.695 14.8352C29.7405 14.5381 29.8743 14.2616 30.0792 14.0416C30.284 13.8216 30.5503 13.6684 30.8434 13.602C31.1366 13.5355 31.4429 13.5588 31.7226 13.6688C32.0023 13.7789 32.2424 13.9706 32.4116 14.219C32.5808 14.4674 32.6713 14.761 32.6713 15.0616C32.6804 15.2515 32.6514 15.4413 32.5861 15.6198C32.5207 15.7983 32.4203 15.9619 32.2908 16.1011C32.1612 16.2402 32.0051 16.352 31.8317 16.4299C31.6583 16.5078 31.471 16.5502 31.281 16.5546ZM24.8642 13.3541V14.3991H27.365C27.3289 14.8893 27.1283 15.3529 26.7957 15.7148C26.5451 15.9703 26.2438 16.1703 25.9111 16.3021C25.5784 16.4339 25.2217 16.4945 24.8642 16.4799C24.1332 16.47 23.4356 16.1727 22.9222 15.6523C22.4087 15.1319 22.1209 14.4303 22.1209 13.6993C22.1209 12.9682 22.4087 12.2666 22.9222 11.7462C23.4356 11.2258 24.1332 10.9285 24.8642 10.9186C25.5663 10.9094 26.2437 11.1777 26.7491 11.6651L27.4863 10.9279C27.1414 10.5865 26.7318 10.3174 26.2816 10.1363C25.8313 9.95523 25.3494 9.86588 24.8642 9.8735C24.3571 9.86611 23.8536 9.95961 23.3829 10.1486C22.9123 10.3375 22.4839 10.6181 22.1227 10.9741C21.7615 11.3301 21.4747 11.7544 21.2789 12.2222C21.0831 12.69 20.9823 13.1921 20.9823 13.6993C20.9823 14.2064 21.0831 14.7085 21.2789 15.1763C21.4747 15.6442 21.7615 16.0684 22.1227 16.4244C22.4839 16.7804 22.9123 17.061 23.3829 17.25C23.8536 17.4389 24.3571 17.5324 24.8642 17.525C25.3597 17.5456 25.8538 17.4605 26.314 17.2755C26.7741 17.0905 27.1896 16.8098 27.5329 16.452C28.1424 15.7866 28.4673 14.9091 28.4381 14.0072C28.4405 13.7882 28.4217 13.5695 28.382 13.3541H24.8642ZM51.1067 14.1658C50.9586 13.7196 50.6768 13.3298 50.2995 13.0494C49.9222 12.7689 49.4677 12.6114 48.9978 12.5982C48.6813 12.6002 48.3685 12.6663 48.0782 12.7926C47.788 12.9189 47.5264 13.1027 47.3092 13.333C47.092 13.5632 46.9238 13.8351 46.8147 14.1322C46.7056 14.4294 46.6579 14.7455 46.6744 15.0616C46.6673 15.3855 46.7255 15.7075 46.8456 16.0083C46.9657 16.3092 47.1452 16.5828 47.3734 16.8127C47.6016 17.0427 47.8738 17.2243 48.1737 17.3467C48.4737 17.469 48.7952 17.5297 49.1191 17.525C49.5249 17.5273 49.925 17.4287 50.2833 17.2382C50.6416 17.0476 50.9469 16.771 51.1719 16.4333L50.3321 15.8735C50.2063 16.0824 50.0284 16.255 49.8157 16.3745C49.6031 16.4939 49.363 16.5559 49.1191 16.5546C48.8682 16.5642 48.6201 16.4982 48.4071 16.3651C48.1941 16.232 48.0261 16.0379 47.9247 15.8081L51.2187 14.4458L51.1067 14.1658ZM47.7475 14.987C47.7359 14.8077 47.7602 14.6279 47.8189 14.4581C47.8776 14.2883 47.9696 14.1319 48.0895 13.9981C48.2094 13.8643 48.3548 13.7557 48.5172 13.6788C48.6795 13.6019 48.8556 13.5581 49.0351 13.55C49.222 13.5377 49.4084 13.5807 49.571 13.6736C49.7336 13.7666 49.8653 13.9053 49.9496 14.0726L47.7475 14.987ZM45.0694 17.3757H46.1518V10.1348H45.0694V17.3757ZM43.2965 13.1487H43.2592C43.0946 12.97 42.8938 12.8284 42.6701 12.7334C42.4464 12.6385 42.205 12.5924 41.9621 12.5982C41.3269 12.6252 40.7267 12.8966 40.2868 13.3556C39.8469 13.8146 39.6013 14.4259 39.6013 15.0616C39.6013 15.6974 39.8469 16.3086 40.2868 16.7676C40.7267 17.2267 41.3269 17.498 41.9621 17.525C42.206 17.5315 42.4484 17.4848 42.6724 17.3881C42.8964 17.2914 43.0966 17.1471 43.2592 16.9652H43.2965V17.3198C43.2965 18.2623 42.7926 18.7661 41.9808 18.7661C41.7102 18.7596 41.4477 18.6727 41.2267 18.5165C41.0057 18.3603 40.8362 18.1418 40.7398 17.889L39.7973 18.2809C39.9749 18.7134 40.2776 19.083 40.6666 19.3423C41.0556 19.6016 41.5132 19.7389 41.9808 19.7365C43.2498 19.7365 44.3229 18.9901 44.3229 17.1705V12.7475H43.2965V13.1487ZM42.0555 16.5546C41.6813 16.5229 41.3328 16.3518 41.0787 16.0754C40.8247 15.7989 40.6837 15.4371 40.6837 15.0616C40.6837 14.6862 40.8247 14.3244 41.0787 14.0479C41.3328 13.7714 41.6813 13.6004 42.0555 13.5687C42.2416 13.5778 42.424 13.6242 42.5918 13.7053C42.7596 13.7864 42.9093 13.9004 43.0321 14.0406C43.1549 14.1808 43.2481 14.3443 43.3064 14.5213C43.3646 14.6983 43.3867 14.8852 43.3711 15.0709C43.3857 15.2555 43.3629 15.4411 43.304 15.6166C43.2452 15.7921 43.1516 15.954 43.0287 16.0925C42.9059 16.231 42.7564 16.3433 42.5892 16.4227C42.422 16.5021 42.2404 16.547 42.0555 16.5546ZM56.1769 10.1349H53.5872V17.3757H54.6678V14.6324H56.1769C56.4826 14.6492 56.7884 14.6034 57.0758 14.498C57.3633 14.3926 57.6261 14.2296 57.8485 14.0192C58.0708 13.8087 58.2478 13.5551 58.3689 13.2739C58.4899 12.9927 58.5523 12.6898 58.5523 12.3837C58.5523 12.0775 58.4899 11.7746 58.3689 11.4934C58.2478 11.2122 58.0708 10.9587 57.8485 10.7482C57.6261 10.5377 57.3633 10.3748 57.0758 10.2694C56.7884 10.1639 56.4826 10.1182 56.1769 10.1349ZM56.2048 13.6247H54.6678V11.1427H56.2048C56.3699 11.1393 56.5341 11.1688 56.6877 11.2297C56.8412 11.2905 56.9811 11.3814 57.0991 11.4969C57.2171 11.6125 57.3108 11.7505 57.3748 11.9028C57.4388 12.055 57.4718 12.2185 57.4718 12.3837C57.4718 12.5489 57.4388 12.7124 57.3748 12.8647C57.3108 13.0169 57.2171 13.1549 57.0991 13.2705C56.9811 13.3861 56.8412 13.4769 56.6877 13.5378C56.5341 13.5986 56.3699 13.6282 56.2048 13.6247ZM62.8839 12.5849C62.4895 12.5619 62.0969 12.6545 61.7544 12.8514C61.4118 13.0483 61.1342 13.341 60.9556 13.6934L61.9151 14.094C62.0103 13.9191 62.1543 13.7757 62.3297 13.6813C62.5051 13.587 62.7041 13.5459 62.9025 13.563C63.1767 13.5362 63.4503 13.6192 63.6633 13.7939C63.8764 13.9685 64.0115 14.2204 64.039 14.4945V14.5691C63.692 14.3847 63.3048 14.2887 62.9119 14.2896C61.8779 14.2896 60.8252 14.8578 60.8252 15.9198C60.8353 16.1436 60.8902 16.3631 60.9867 16.5653C61.0832 16.7675 61.2193 16.9482 61.387 17.0968C61.5547 17.2454 61.7505 17.3587 61.9628 17.4302C62.1752 17.5016 62.3997 17.5297 62.6231 17.5127C62.8952 17.5287 63.1666 17.4715 63.4091 17.347C63.6516 17.2225 63.8563 17.0352 64.0018 16.8048H64.039V17.3637H65.0823V14.5877C65.0823 13.3022 64.1228 12.5849 62.8839 12.5849ZM62.7535 16.5532C62.3995 16.5532 61.9058 16.3763 61.9058 15.9384C61.9058 15.3795 62.5206 15.1652 63.0516 15.1652C63.3965 15.156 63.7375 15.2397 64.039 15.4074C63.9993 15.7215 63.8473 16.0106 63.611 16.2212C63.3746 16.4318 63.0701 16.5498 62.7535 16.5532ZM68.883 12.7432L67.6441 15.8825H67.6068L66.3213 12.7432H65.1569L67.0852 17.1308L65.986 19.5714H67.1131L70.0847 12.7432H68.883ZM59.1485 17.3757H60.229V10.1349H59.1485V17.3757Z" fill="black"/>
<g clip-path="url(#clip0_297_943)">
<path d="M12.345 11.5453L14.065 9.84664L7.5995 6.15392C7.49062 6.09118 7.36757 6.05648 7.24163 6.05302C7.11569 6.04956 6.99089 6.07744 6.87866 6.1341L12.345 11.5453Z" fill="black"/>
<path d="M6.69234 17.1408L12.1987 11.69L6.70436 6.25098C6.6256 6.32121 6.56276 6.40715 6.51997 6.50315C6.47717 6.59915 6.4554 6.70303 6.45607 6.80796V16.5958C6.45554 16.6978 6.47625 16.7989 6.5169 16.8926C6.55755 16.9864 6.61727 17.0709 6.69234 17.1408Z" fill="black"/>
<path d="M12.3449 11.8369L6.85657 17.264C6.97004 17.324 7.09717 17.3543 7.22582 17.3519C7.35446 17.3494 7.48034 17.3144 7.59142 17.2501L14.0649 13.5495L12.3449 11.8369Z" fill="black"/>
<path d="M16.1632 11.0478L14.249 9.95361L12.495 11.69L14.265 13.4422L16.1652 12.356C16.2812 12.2895 16.3774 12.194 16.4442 12.0791C16.511 11.9642 16.546 11.8339 16.5458 11.7013C16.5456 11.5687 16.5102 11.4385 16.443 11.3238C16.3758 11.209 16.2794 11.1138 16.1632 11.0478Z" fill="black"/>
</g>
<defs>
<clipPath id="clip0_297_943">
<rect width="10.0877" height="11.2982" fill="white" transform="translate(6.45618 6.05273)"/>
</clipPath>
</defs>
</svg>
