<svg width="77" height="23" viewBox="0 0 77 23" fill="none" xmlns="http://www.w3.org/2000/svg">
<g id="Group 7071">
<path id="Vector" d="M5.73025 22.9987C5.53424 22.9987 5.34297 22.9963 5.1485 22.9922C4.74564 22.9873 4.34372 22.9546 3.94604 22.8942C3.57522 22.8345 3.216 22.7234 2.88022 22.5647C2.54752 22.4073 2.24407 22.2009 1.9815 21.9535C1.71513 21.7089 1.49336 21.4253 1.32499 21.1138C1.15476 20.8003 1.03695 20.4642 0.975662 20.1174C0.90948 19.7447 0.873673 19.3678 0.868549 18.99C0.86447 18.8632 0.859131 18.441 0.859131 18.441V4.55124C0.859131 4.55124 0.864818 4.13551 0.868581 4.01337C0.873487 3.63618 0.909086 3.25989 0.97507 2.88775C1.03647 2.53993 1.15437 2.20291 1.32469 1.88837C1.49245 1.5771 1.71298 1.29325 1.97775 1.04783C2.24222 0.800066 2.54664 0.592617 2.87991 0.433042C3.21491 0.274838 3.57346 0.164588 3.94352 0.105986C4.34251 0.0449969 4.74582 0.0120231 5.15008 0.00734154L5.73056 0H71.8438L72.4312 0.00763617C72.8318 0.0120851 73.2314 0.0447647 73.6268 0.105397C74.0006 0.164734 74.3629 0.275753 74.7017 0.434804C75.3693 0.756392 75.9126 1.26518 76.2553 1.88984C76.4229 2.20221 76.539 2.53647 76.5996 2.88129C76.6664 3.25649 76.7038 3.63574 76.7114 4.01602C76.7133 4.1863 76.7133 4.36921 76.7133 4.55124C76.7184 4.77671 76.7184 4.99132 76.7184 5.2077V17.7915C76.7184 18.01 76.7184 18.2231 76.7133 18.438C76.7133 18.6336 76.7133 18.8127 76.7108 18.997C76.7033 19.3705 76.6665 19.743 76.6008 20.1115C76.5408 20.4609 76.4236 20.7995 76.2534 21.1156C76.0839 21.4237 75.8634 21.7049 75.6001 21.9488C75.3373 22.1976 75.0333 22.4052 74.6998 22.5636C74.3619 22.7235 74.0002 22.835 73.6268 22.8942C73.2291 22.9549 72.8272 22.9877 72.4243 22.9922C72.2358 22.9963 72.0385 22.9987 71.8469 22.9987L71.1496 22.9999L5.73025 22.9987Z" fill="#474C54"/>
<g id="&#60;Group&#62;">
<g id="&#60;Group&#62;_2">
<g id="&#60;Group&#62;_3">
<path id="&#60;Path&#62;" d="M16.0075 11.7907C16.0138 11.2917 16.1441 10.8024 16.3861 10.3683C16.6281 9.93424 16.9741 9.56955 17.3918 9.30816C17.1264 8.92241 16.7764 8.60495 16.3694 8.381C15.9624 8.15705 15.5097 8.03277 15.0473 8.01805C14.0609 7.91266 13.1046 8.61885 12.6019 8.61885C12.0895 8.61885 11.3156 8.02851 10.4822 8.04596C9.94311 8.06369 9.41775 8.22325 8.95728 8.50908C8.49681 8.79492 8.11694 9.1973 7.85467 9.677C6.71859 11.6791 7.56601 14.6214 8.65428 16.2398C9.19876 17.0322 9.83511 17.9174 10.6678 17.886C11.4825 17.8516 11.7869 17.3572 12.7704 17.3572C13.7448 17.3572 14.0303 17.886 14.8798 17.866C15.7541 17.8516 16.305 17.0701 16.8304 16.2701C17.2216 15.7055 17.5226 15.0814 17.7223 14.4211C17.2144 14.2024 16.7809 13.8364 16.476 13.3686C16.171 12.9009 16.0081 12.3521 16.0075 11.7907Z" fill="black"/>
<path id="&#60;Path&#62;_2" d="M14.4027 6.95282C14.8794 6.37032 15.1143 5.62163 15.0574 4.86572C14.3291 4.94358 13.6563 5.29788 13.1732 5.85803C12.937 6.13167 12.756 6.45003 12.6408 6.79488C12.5255 7.13974 12.4781 7.50435 12.5014 7.86785C12.8656 7.87167 13.226 7.7913 13.5554 7.63281C13.8847 7.47431 14.1744 7.24181 14.4027 6.95282Z" fill="black"/>
</g>
</g>
<g id="Group">
<path id="Vector_2" d="M26.4675 15.8795H23.687L23.0193 17.8863H21.8416L24.4752 10.4614H25.6988L28.3325 17.8863H27.1347L26.4675 15.8795ZM23.975 14.9534H26.179L25.0925 11.6964H25.0621L23.975 14.9534Z" fill="black"/>
<path id="Vector_3" d="M34.0203 15.1801C34.0203 16.8624 33.1357 17.9432 31.8008 17.9432C31.4626 17.9612 31.1263 17.8819 30.8304 17.7144C30.5344 17.5469 30.2908 17.2979 30.1274 16.9961H30.1022V19.6773H29.0105V12.4732H30.0672V13.3735H30.0873C30.2582 13.0731 30.5059 12.8255 30.8041 12.6569C31.1023 12.4884 31.4398 12.4053 31.7807 12.4165C33.1305 12.4165 34.0203 13.5026 34.0203 15.1801ZM32.8982 15.1801C32.8982 14.0842 32.3417 13.3636 31.4927 13.3636C30.6586 13.3636 30.0976 14.0993 30.0976 15.1801C30.0976 16.2709 30.6586 17.0013 31.4927 17.0013C32.3417 17.0013 32.8982 16.286 32.8982 15.1801Z" fill="black"/>
<path id="Vector_4" d="M39.874 15.1801C39.874 16.8624 38.9894 17.9431 37.6545 17.9431C37.3164 17.9612 36.9801 17.8819 36.6842 17.7144C36.3882 17.5469 36.1446 17.2979 35.9812 16.9961H35.9559V19.6773H34.8643V12.4732H35.9209V13.3735H35.941C36.1119 13.0731 36.3597 12.8255 36.6579 12.6569C36.956 12.4884 37.2936 12.4053 37.6344 12.4165C38.9843 12.4165 39.874 13.5026 39.874 15.1801ZM38.752 15.1801C38.752 14.0842 38.1955 13.3636 37.3465 13.3636C36.5124 13.3636 35.9514 14.0993 35.9514 15.1801C35.9514 16.2709 36.5124 17.0013 37.3465 17.0013C38.1955 17.0013 38.752 16.286 38.752 15.1801H38.752Z" fill="black"/>
<path id="Vector_5" d="M43.7425 15.8173C43.8234 16.5536 44.5261 17.0371 45.4864 17.0371C46.4066 17.0371 47.0686 16.5536 47.0686 15.8897C47.0686 15.3134 46.6693 14.9683 45.7239 14.7318L44.7785 14.5C43.439 14.1707 42.8172 13.5331 42.8172 12.4984C42.8172 11.2173 43.914 10.3374 45.4715 10.3374C47.0129 10.3374 48.0696 11.2173 48.1052 12.4984H47.0032C46.9372 11.7574 46.3354 11.3102 45.456 11.3102C44.5766 11.3102 43.9748 11.7627 43.9748 12.4214C43.9748 12.9463 44.3592 13.2552 45.2994 13.4916L46.1031 13.6925C47.5998 14.0527 48.2216 14.6647 48.2216 15.7507C48.2216 17.1398 47.1345 18.0098 45.4055 18.0098C43.7878 18.0098 42.6956 17.1603 42.625 15.8173L43.7425 15.8173Z" fill="black"/>
<path id="Vector_6" d="M50.5779 11.1919V12.473H51.5892V13.3529H50.5779V16.3372C50.5779 16.8008 50.7804 17.0169 51.225 17.0169C51.345 17.0148 51.4649 17.0062 51.5841 16.9912V17.8659C51.3842 17.9039 51.181 17.9211 50.9777 17.9173C49.901 17.9173 49.481 17.5056 49.481 16.4557V13.3529H48.7078V12.473H49.481V11.1919H50.5779Z" fill="black"/>
<path id="Vector_7" d="M52.1748 15.1803C52.1748 13.477 53.1603 12.4067 54.6972 12.4067C56.2392 12.4067 57.2201 13.477 57.2201 15.1803C57.2201 16.8882 56.2443 17.9538 54.6972 17.9538C53.1506 17.9538 52.1748 16.8882 52.1748 15.1803ZM56.1078 15.1803C56.1078 14.0119 55.5818 13.3223 54.6972 13.3223C53.8126 13.3223 53.2871 14.0171 53.2871 15.1803C53.2871 16.3533 53.8126 17.0377 54.6972 17.0377C55.5818 17.0377 56.1078 16.3533 56.1078 15.1803H56.1078Z" fill="black"/>
<path id="Vector_8" d="M58.1201 12.4731H59.1613V13.3945H59.1866C59.257 13.1067 59.4226 12.8524 59.6556 12.6743C59.8886 12.4962 60.1747 12.4052 60.4658 12.4165C60.5916 12.416 60.7171 12.4299 60.8398 12.4579V13.4973C60.681 13.4479 60.5153 13.4252 60.3493 13.4301C60.1908 13.4236 60.0327 13.452 59.8859 13.5136C59.7391 13.5751 59.6072 13.6682 59.4991 13.7865C59.391 13.9048 59.3094 14.0456 59.2598 14.199C59.2102 14.3525 59.1938 14.5151 59.2118 14.6756V17.8865H58.1201L58.1201 12.4731Z" fill="black"/>
<path id="Vector_9" d="M65.8732 16.2967C65.7263 17.2794 64.7861 17.9538 63.5831 17.9538C62.036 17.9538 61.0757 16.8987 61.0757 15.206C61.0757 13.508 62.0411 12.4067 63.5372 12.4067C65.0087 12.4067 65.934 13.4356 65.934 15.0769V15.4576H62.1777V15.5248C62.1603 15.724 62.1848 15.9247 62.2496 16.1135C62.3143 16.3024 62.4177 16.4751 62.5531 16.6201C62.6884 16.7651 62.8525 16.8792 63.0344 16.9547C63.2164 17.0302 63.412 17.0655 63.6084 17.0581C63.8664 17.0827 64.1252 17.0219 64.3465 16.8847C64.5678 16.7475 64.7397 16.5413 64.8366 16.2967L65.8732 16.2967ZM62.1828 14.681H64.8417C64.8515 14.5019 64.8249 14.3226 64.7634 14.1545C64.7019 13.9864 64.6069 13.833 64.4844 13.704C64.3619 13.575 64.2146 13.4731 64.0516 13.4048C63.8886 13.3365 63.7135 13.3033 63.5372 13.3071C63.3595 13.306 63.1832 13.3408 63.0187 13.4094C62.8542 13.478 62.7047 13.5791 62.5788 13.7068C62.4529 13.8346 62.3531 13.9864 62.2851 14.1536C62.2171 14.3208 62.1824 14.5001 62.1828 14.681V14.681Z" fill="black"/>
</g>
<g id="Group_2">
<path id="Vector_10" d="M23.8381 4.87319C24.067 4.85647 24.2966 4.89167 24.5105 4.97623C24.7244 5.06079 24.9172 5.19262 25.0749 5.36221C25.2327 5.53179 25.3515 5.7349 25.4229 5.95689C25.4942 6.17888 25.5162 6.41421 25.4873 6.64591C25.4873 7.78569 24.8821 8.44085 23.8381 8.44085H22.572V4.87319H23.8381ZM23.1164 7.93631H23.7773C23.9408 7.94626 24.1045 7.91896 24.2563 7.85641C24.4082 7.79386 24.5445 7.69763 24.6552 7.57472C24.7659 7.45181 24.8483 7.30531 24.8964 7.1459C24.9445 6.98648 24.9571 6.81816 24.9332 6.65318C24.9553 6.48885 24.9415 6.32157 24.8927 6.16333C24.8439 6.00508 24.7612 5.85979 24.6508 5.73785C24.5403 5.61592 24.4047 5.52037 24.2537 5.45804C24.1027 5.39572 23.94 5.36817 23.7773 5.37736H23.1164V7.93631Z" fill="black"/>
<path id="Vector_11" d="M26.1023 7.09227C26.0857 6.91533 26.1056 6.73682 26.1607 6.56816C26.2158 6.39951 26.305 6.24444 26.4224 6.11291C26.5399 5.98138 26.6831 5.87629 26.8427 5.80438C27.0024 5.73246 27.1751 5.69531 27.3498 5.69531C27.5244 5.69531 27.6971 5.73246 27.8568 5.80438C28.0165 5.87629 28.1596 5.98138 28.2771 6.11291C28.3945 6.24444 28.4837 6.39951 28.5388 6.56816C28.5939 6.73682 28.6138 6.91533 28.5972 7.09227C28.6141 7.26938 28.5945 7.44815 28.5395 7.61707C28.4845 7.786 28.3954 7.94135 28.2779 8.07314C28.1605 8.20493 28.0172 8.31024 27.8573 8.38231C27.6975 8.45438 27.5246 8.49161 27.3498 8.49161C27.1749 8.49161 27.002 8.45438 26.8422 8.38231C26.6823 8.31024 26.5391 8.20493 26.4216 8.07314C26.3041 7.94135 26.215 7.786 26.16 7.61707C26.105 7.44815 26.0854 7.26938 26.1023 7.09227ZM28.0602 7.09227C28.0602 6.50866 27.8027 6.16737 27.3506 6.16737C26.8969 6.16737 26.6416 6.50866 26.6416 7.09227C26.6416 7.68056 26.8969 8.01922 27.3506 8.01922C27.8027 8.01921 28.0602 7.67821 28.0602 7.09227H28.0602Z" fill="black"/>
<path id="Vector_12" d="M31.9135 8.43993H31.372L30.8253 6.457H30.784L30.2396 8.43993H29.7032L28.9741 5.74756H29.5036L29.9775 7.802H30.0165L30.5603 5.74756H31.0611L31.6049 7.802H31.6462L32.1178 5.74756H32.6398L31.9135 8.43993Z" fill="black"/>
<path id="Vector_13" d="M33.2529 5.74847H33.7555V6.17618H33.7945C33.8606 6.02256 33.9723 5.89378 34.1137 5.8078C34.2552 5.72182 34.4196 5.68291 34.5838 5.6965C34.7125 5.68665 34.8418 5.7064 34.9619 5.75429C35.0821 5.80218 35.1902 5.87698 35.2781 5.97315C35.366 6.06933 35.4316 6.1844 35.4699 6.30986C35.5082 6.43531 35.5183 6.56793 35.4994 6.69789V8.44081H34.9773V6.83132C34.9773 6.39865 34.7926 6.18348 34.4066 6.18348C34.3192 6.17933 34.2319 6.19447 34.1508 6.22785C34.0697 6.26124 33.9967 6.31207 33.9367 6.37688C33.8767 6.44168 33.8312 6.51892 33.8033 6.60331C33.7754 6.68769 33.7657 6.77722 33.775 6.86576V8.44084H33.2529L33.2529 5.74847Z" fill="black"/>
<path id="Vector_14" d="M36.3313 4.69727H36.8533V8.44066H36.3313V4.69727Z" fill="black"/>
<path id="Vector_15" d="M37.5789 7.09232C37.5623 6.91537 37.5822 6.73684 37.6373 6.56818C37.6924 6.39952 37.7816 6.24445 37.8991 6.11292C38.0165 5.98139 38.1597 5.87629 38.3194 5.80438C38.4791 5.73246 38.6518 5.69531 38.8264 5.69531C39.0011 5.69531 39.1738 5.73246 39.3335 5.80438C39.4932 5.87629 39.6364 5.98139 39.7538 6.11292C39.8713 6.24445 39.9604 6.39952 40.0156 6.56818C40.0707 6.73684 40.0906 6.91537 40.074 7.09232C40.0909 7.26944 40.0713 7.44821 40.0163 7.61713C39.9613 7.78606 39.8722 7.9414 39.7547 8.07319C39.6372 8.20497 39.4939 8.31028 39.334 8.38235C39.1742 8.45442 39.0013 8.49165 38.8264 8.49165C38.6516 8.49165 38.4787 8.45442 38.3188 8.38235C38.159 8.31028 38.0157 8.20497 37.8982 8.07319C37.7807 7.9414 37.6916 7.78606 37.6366 7.61713C37.5816 7.44821 37.562 7.26944 37.5789 7.09232ZM39.5368 7.09232C39.5368 6.50871 39.2792 6.16742 38.8272 6.16742C38.3734 6.16742 38.1181 6.50871 38.1181 7.09232C38.1181 7.68061 38.3734 8.01927 38.8272 8.01927C39.2792 8.01926 39.5368 7.67826 39.5368 7.09232H39.5368Z" fill="black"/>
<path id="Vector_16" d="M40.6235 7.67824C40.6235 7.1936 40.9781 6.9142 41.6074 6.8745L42.3239 6.83246V6.60007C42.3239 6.3157 42.1391 6.15513 41.7823 6.15513C41.4909 6.15513 41.289 6.26403 41.231 6.45438H40.7256C40.779 5.99193 41.2064 5.69531 41.8064 5.69531C42.4696 5.69531 42.8436 6.03134 42.8436 6.60007V8.43965H42.3411V8.06128H42.2998C42.2159 8.197 42.0982 8.30764 41.9586 8.38191C41.819 8.45618 41.6626 8.49141 41.5052 8.484C41.3942 8.49576 41.282 8.4837 41.1758 8.44861C41.0696 8.41351 40.9718 8.35615 40.8888 8.28024C40.8057 8.20432 40.7392 8.11153 40.6935 8.00784C40.6478 7.90415 40.624 7.79187 40.6235 7.67824ZM42.3239 7.44818V7.22309L41.6779 7.26513C41.3136 7.28994 41.1484 7.41606 41.1484 7.65342C41.1484 7.89573 41.3549 8.03675 41.6389 8.03675C41.7221 8.04532 41.8062 8.03677 41.8861 8.0116C41.966 7.98644 42.0401 7.94517 42.104 7.89025C42.1679 7.83534 42.2203 7.76791 42.2581 7.69196C42.2958 7.61601 42.3182 7.53311 42.3239 7.44818Z" fill="black"/>
<path id="Vector_17" d="M43.5298 7.09331C43.5298 6.24257 43.9595 5.70363 44.6278 5.70363C44.7931 5.69588 44.9571 5.73618 45.1008 5.81982C45.2444 5.90347 45.3617 6.027 45.4389 6.17598H45.4779V4.69727H46V8.44066H45.4997V8.01528H45.4584C45.3752 8.16326 45.2539 8.28525 45.1075 8.36806C44.961 8.45086 44.7952 8.49131 44.6278 8.48503C43.9549 8.48506 43.5298 7.9461 43.5298 7.09331ZM44.069 7.09331C44.069 7.66437 44.3335 8.008 44.7758 8.008C45.2158 8.008 45.4877 7.65941 45.4877 7.09565C45.4877 6.53452 45.2129 6.18097 44.7758 6.18097C44.3364 6.18097 44.069 6.52693 44.069 7.09331H44.069Z" fill="black"/>
<path id="Vector_18" d="M48.1597 7.09227C48.1431 6.91533 48.163 6.73682 48.2181 6.56816C48.2732 6.39951 48.3624 6.24444 48.4798 6.11291C48.5973 5.98138 48.7404 5.87629 48.9001 5.80438C49.0598 5.73246 49.2325 5.69531 49.4071 5.69531C49.5818 5.69531 49.7544 5.73246 49.9141 5.80438C50.0738 5.87629 50.217 5.98138 50.3344 6.11291C50.4519 6.24444 50.541 6.39951 50.5962 6.56816C50.6513 6.73682 50.6712 6.91533 50.6545 7.09227C50.6715 7.26938 50.6518 7.44815 50.5969 7.61707C50.5419 7.786 50.4528 7.94135 50.3353 8.07314C50.2178 8.20493 50.0746 8.31024 49.9147 8.38231C49.7549 8.45438 49.582 8.49161 49.4071 8.49161C49.2323 8.49161 49.0594 8.45438 48.8995 8.38231C48.7397 8.31024 48.5964 8.20493 48.4789 8.07314C48.3615 7.94135 48.2724 7.786 48.2174 7.61707C48.1624 7.44815 48.1428 7.26938 48.1597 7.09227ZM50.1176 7.09227C50.1176 6.50866 49.86 6.16737 49.408 6.16737C48.9542 6.16737 48.699 6.50866 48.699 7.09227C48.699 7.68056 48.9542 8.01922 49.408 8.01922C49.86 8.01921 50.1176 7.67821 50.1176 7.09227Z" fill="black"/>
<path id="Vector_19" d="M51.355 5.74847H51.8575V6.17618H51.8965C51.9627 6.02256 52.0743 5.89378 52.2158 5.8078C52.3573 5.72182 52.5216 5.68291 52.6859 5.6965C52.8146 5.68665 52.9438 5.7064 53.064 5.75429C53.1842 5.80218 53.2922 5.87698 53.3802 5.97315C53.4681 6.06933 53.5336 6.1844 53.5719 6.30986C53.6102 6.43531 53.6203 6.56793 53.6014 6.69789V8.44081H53.0794V6.83132C53.0794 6.39865 52.8947 6.18348 52.5086 6.18348C52.4212 6.17933 52.334 6.19447 52.2529 6.22785C52.1718 6.26124 52.0987 6.31207 52.0388 6.37688C51.9788 6.44168 51.9333 6.51892 51.9053 6.60331C51.8774 6.68769 51.8678 6.77722 51.877 6.86576V8.44084H51.355V5.74847Z" fill="black"/>
<path id="Vector_20" d="M56.5514 5.07812V5.7607H57.1245V6.20827H56.5514V7.5927C56.5514 7.87472 56.6656 7.99822 56.9254 7.99822C56.992 7.998 57.0584 7.99391 57.1245 7.98595V8.42855C57.0307 8.44562 56.9358 8.4547 56.8405 8.4557C56.26 8.4557 56.0288 8.24783 56.0288 7.72874V6.20824H55.6089V5.76068H56.0288V5.07812H56.5514Z" fill="black"/>
<path id="Vector_21" d="M57.8376 4.69727H58.3551V6.18096H58.3964C58.4658 6.02591 58.5805 5.89641 58.7248 5.8101C58.8691 5.72379 59.0361 5.68488 59.2029 5.69866C59.331 5.69157 59.459 5.71333 59.5778 5.76238C59.6966 5.81143 59.8033 5.88658 59.8903 5.98244C59.9773 6.07831 60.0425 6.19255 60.0811 6.31699C60.1198 6.44144 60.131 6.57303 60.1139 6.70239V8.44066H59.5913V6.83347C59.5913 6.40342 59.3946 6.18563 59.0257 6.18563C58.936 6.17814 58.8457 6.19069 58.7613 6.22241C58.6768 6.25413 58.6002 6.30426 58.5368 6.36927C58.4733 6.43429 58.4246 6.51263 58.394 6.59881C58.3634 6.68499 58.3517 6.77693 58.3597 6.86821V8.44065H57.8377L57.8376 4.69727Z" fill="black"/>
<path id="Vector_22" d="M63.1574 7.71273C63.0865 7.9588 62.9328 8.17165 62.7233 8.31404C62.5138 8.45644 62.2617 8.51931 62.0112 8.49166C61.837 8.49634 61.6638 8.46237 61.5037 8.39209C61.3436 8.32182 61.2005 8.21693 61.0843 8.08471C60.968 7.95249 60.8814 7.7961 60.8305 7.6264C60.7796 7.4567 60.7655 7.27775 60.7894 7.10198C60.7662 6.92566 60.7804 6.74633 60.8312 6.57612C60.882 6.40591 60.9682 6.24879 61.0838 6.11541C61.1995 5.98204 61.3419 5.8755 61.5015 5.80303C61.6611 5.73056 61.8342 5.69384 62.0089 5.69536C62.745 5.69536 63.189 6.20717 63.189 7.05262V7.23803H61.3211V7.26781C61.313 7.36661 61.3252 7.46606 61.357 7.55979C61.3887 7.65351 61.4394 7.73943 61.5058 7.81206C61.5721 7.88468 61.6526 7.94239 61.7421 7.98149C61.8316 8.02059 61.9282 8.04022 62.0256 8.03912C62.1505 8.05438 62.277 8.03149 62.389 7.97337C62.5011 7.91525 62.5936 7.82452 62.6549 7.71272L63.1574 7.71273ZM61.3211 6.84506H62.6572C62.6637 6.7547 62.6517 6.66393 62.6217 6.5786C62.5918 6.49327 62.5447 6.41525 62.4834 6.34957C62.422 6.28388 62.3479 6.23198 62.2657 6.19719C62.1835 6.16241 62.0951 6.14551 62.0061 6.14759C61.9158 6.14644 61.8262 6.16369 61.7425 6.19834C61.6589 6.23298 61.5829 6.28432 61.5191 6.34932C61.4553 6.41432 61.4049 6.49167 61.3709 6.57681C61.3369 6.66195 61.32 6.75316 61.3211 6.84506H61.3211Z" fill="black"/>
</g>
</g>
</g>
</svg>
