<svg width="824" height="761" viewBox="0 0 824 761" fill="none" xmlns="http://www.w3.org/2000/svg">
<g clip-path="url(#clip0_258_309)">
<path d="M404.715 713.16L256.604 627.663C252.786 625.455 252.786 621.894 256.604 619.686L475.954 493.075C479.772 490.867 485.953 490.867 489.771 493.075L637.881 578.572C641.699 580.78 641.699 584.341 637.881 586.549L418.532 713.16C414.714 715.368 408.533 715.368 404.715 713.16Z" fill="#EBEBEB"/>
<path d="M101.543 615.801L49.6156 585.796C46.0546 583.742 46.0546 580.421 49.6156 578.367L423.103 362.836C426.664 360.782 432.416 360.782 435.977 362.836L487.904 392.841C491.465 394.895 491.465 398.216 487.904 400.27L114.417 615.801C110.856 617.855 105.104 617.855 101.543 615.801Z" fill="#EBEBEB"/>
<path d="M535.637 442.616L573.645 464.559C577.463 466.767 583.643 466.767 587.461 464.559L709.668 394.022C713.486 391.814 713.486 388.254 709.668 386.046L671.643 364.102C667.825 361.894 661.645 361.894 657.827 364.102L535.62 434.639C531.802 436.847 531.802 440.408 535.62 442.616H535.637Z" fill="#EBEBEB"/>
<path d="M104.453 547.078C104.453 547.078 105.241 530.406 99.8819 512.057C94.5403 493.726 82.6072 474.572 67.1472 469.626C51.6702 464.679 43.8974 474.624 46.1744 485.407C48.1262 494.701 59.1176 503.345 67.2499 512.109C75.3651 520.855 90.106 541.532 92.8624 560.326L101.68 562.209L104.436 547.078H104.453Z" fill="#8796F7"/>
<g opacity="0.15">
<path d="M104.453 547.078C104.453 547.078 105.241 530.406 99.8819 512.057C94.5403 493.726 82.6072 474.572 67.1472 469.626C51.6702 464.679 43.8974 474.624 46.1744 485.407C48.1262 494.701 59.1176 503.345 67.2499 512.109C75.3651 520.855 90.106 541.532 92.8624 560.326L101.68 562.209L104.436 547.078H104.453Z" fill="black"/>
</g>
<path d="M97.5364 554.712C97.0056 554.66 96.6118 554.198 96.6461 553.65C99.6593 507.402 57.2001 477.071 56.7721 476.763C56.3269 476.455 56.2071 475.822 56.5324 475.377C56.8406 474.915 57.474 474.812 57.9192 475.137C58.3643 475.445 101.731 506.443 98.6321 553.787C98.5978 554.335 98.1185 554.746 97.5706 554.712C97.5706 554.712 97.5535 554.712 97.5364 554.712Z" fill="white"/>
<path d="M94.0609 606.763C89.9177 608.338 85.1753 608.218 80.9636 606.763C77.6422 605.599 74.6289 603.648 72.078 601.235C69.4756 598.77 67.8149 595.689 66.1713 592.522C65.0756 590.417 64.0826 588.226 62.5589 586.412C59.4258 582.663 53.7075 582.167 49.3075 580.729C43.5549 578.863 38.59 574.105 37.4771 568.165C36.3643 562.226 37.7682 555.277 43.5036 552.11C42.0883 550.98 40.6673 549.856 39.2405 548.738C37.3059 547.198 35.3542 545.64 33.8475 543.672C32.358 541.703 31.3308 539.256 31.5705 536.791C31.9129 533.162 34.9604 530.201 38.4188 529.054C41.8771 527.907 45.6608 528.267 49.2219 529.054C52.8172 529.842 56.3098 531.057 59.6312 532.649C60.5558 533.094 61.5145 533.59 62.5589 533.624C63.9114 533.676 65.1783 532.957 66.3768 532.323C74.7145 527.959 87.4009 529.636 90.6025 539.786C91.0819 541.275 91.2873 542.85 91.8009 544.322C93.7013 549.799 100.704 548.927 104.847 551.819C107.552 553.702 108.956 557.057 109.178 560.343C109.555 566.129 107.432 572.068 105.686 577.494C105.035 579.531 103.82 581.311 103.186 583.314C102.296 586.121 102.57 589.493 102.193 592.42C101.525 597.435 100.447 603.682 95.5675 606.113C95.071 606.352 94.5745 606.575 94.0609 606.78V606.763Z" fill="#8796F7"/>
<path d="M99.7107 595.518C96.8858 583.724 90.9449 573.763 83.9083 565.53C83.8398 565.341 83.7029 565.187 83.5145 565.085C81.2889 562.517 78.9604 560.121 76.5978 557.913C75.8959 546.941 81.2033 537.921 81.2546 537.818C81.4772 537.441 81.3573 536.945 80.9807 536.722C80.604 536.5 80.1075 536.62 79.885 536.996C79.6624 537.356 74.783 545.674 74.9542 556.372C59.0662 542.114 41.8771 535.302 41.5861 535.199C41.1752 535.045 40.7129 535.25 40.5417 535.661C40.3876 536.072 40.5931 536.534 41.004 536.705C41.3292 536.825 63.3635 545.555 80.3815 563.955C69.1161 560.788 54.8374 564.931 54.1869 565.136C53.7588 565.256 53.5192 565.718 53.639 566.129C53.7417 566.454 54.0157 566.676 54.3238 566.693C54.4265 566.693 54.5293 566.693 54.632 566.659C54.8032 566.608 71.5643 561.73 82.5729 566.42C89.5239 574.499 95.3792 584.306 98.1698 595.894C98.2554 596.237 98.5465 596.476 98.8718 596.51C98.9574 596.51 99.043 596.51 99.1457 596.493C99.5737 596.391 99.8476 595.963 99.7449 595.518H99.7107Z" fill="white"/>
<path d="M100.841 610.615C99.0601 609.588 97.6048 606.952 97.6048 604.761V276.346C97.6048 274.138 99.1457 271.468 101.063 270.373L476.262 53.7803C478.163 52.6848 481.159 52.6164 482.956 53.6605C484.737 54.6875 486.192 57.3063 486.192 59.5143V387.929C486.192 390.137 484.651 392.807 482.734 393.902L107.518 610.461C105.617 611.556 102.621 611.624 100.823 610.597L100.841 610.615Z" fill="#455A64"/>
<path d="M107.535 610.478C105.395 611.71 102.45 611.539 100.841 610.615C99.0429 609.571 97.6048 606.952 97.6048 604.761V317.221L104.094 320.969V608.509C104.094 610.409 105.378 611.745 107.535 610.495V610.478Z" fill="#F0F0F0"/>
<path d="M105.087 276.671C104.47 277.733 104.076 278.965 104.076 280.06V320.952L97.5877 317.203V276.329C97.5877 276.192 97.5877 276.055 97.5877 275.918C97.6219 275.627 97.6733 275.336 97.7247 275.062C97.8959 274.344 98.2041 273.59 98.5807 272.923L105.052 276.671H105.087Z" fill="#263238"/>
<path d="M486.192 59.5144V77.966L211.149 236.704C209.249 237.8 207.708 236.91 207.708 234.719V227.735C207.708 225.527 206.167 224.637 204.249 225.75L120.495 274.104C118.578 275.2 117.037 277.887 117.037 280.078V287.061C117.037 289.269 115.496 291.939 113.596 293.035L104.094 298.512V280.061C104.094 277.853 105.634 275.2 107.535 274.104L482.751 57.5118C484.651 56.4163 486.192 57.3064 486.192 59.4973V59.5144Z" fill="#37474F"/>
<path d="M105.96 610.101C105.035 610.101 104.932 608.971 104.932 608.475V298.991L114.006 293.754C115.136 293.103 116.044 290.228 117.841 283.809C118.783 280.454 120.204 275.405 120.94 274.806L203.154 227.342C203.787 227.684 205.328 230.406 206.27 232.049C208.29 235.609 209.505 237.612 210.892 237.612C211.132 237.612 211.372 237.543 211.577 237.423L485.319 79.4209V387.912C485.319 389.812 483.949 392.208 482.306 393.149L107.09 609.707C106.662 609.947 106.268 610.084 105.943 610.084L105.96 610.101Z" fill="#FAFAFA"/>
<path d="M484.48 80.927V387.946C484.48 389.538 483.282 391.643 481.895 392.447L106.679 609.006C106.268 609.245 106.028 609.262 105.96 609.279C105.925 609.245 105.806 609.006 105.806 608.492V299.505L114.452 294.507C115.873 293.685 116.694 291.135 118.68 284.049C119.536 281.002 120.803 276.449 121.505 275.49L203.017 228.437C203.719 229.276 204.831 231.244 205.533 232.494C207.776 236.43 209.026 238.502 210.909 238.502C211.303 238.502 211.68 238.399 212.022 238.211L484.497 80.9441M486.209 77.9829L211.166 236.721C211.166 236.721 210.995 236.79 210.909 236.79C208.975 236.79 205.054 226.486 203.119 226.486C203.034 226.486 202.948 226.503 202.863 226.554L120.512 274.087C118.595 275.182 115.513 291.922 113.613 293.018L104.111 298.495V608.475C104.111 610.033 104.847 610.957 105.994 610.957C106.456 610.957 106.987 610.803 107.569 610.478L482.785 393.919C484.703 392.824 486.244 390.137 486.244 387.946V100.406V77.9658L486.209 77.9829Z" fill="#E0E0E0"/>
<path d="M486.192 77.9487V100.388L104.076 320.952V298.512L111.181 294.404C113.082 293.309 113.715 291.631 114.623 288.43L117.037 280.078C117.79 277.185 118.578 275.199 120.495 274.104L202.845 226.571C204.763 225.476 206.252 225.356 207.708 227.752L210.652 233.11C211.731 234.976 212.279 236.088 214.179 234.976L486.192 77.983V77.9487Z" fill="#E6E6E6"/>
<path d="M469.996 71.0853C472.393 69.6988 474.345 70.8285 474.345 73.5843C474.345 76.3401 472.393 79.7291 469.996 81.0984C467.599 82.4849 465.648 81.3552 465.648 78.5994C465.648 75.8437 467.599 72.4546 469.996 71.0853Z" fill="white"/>
<path d="M454.365 80.0888C456.762 78.7023 458.714 79.832 458.714 82.6049C458.714 85.3778 456.762 88.7497 454.365 90.119C451.968 91.5055 450.016 90.3758 450.016 87.6029C450.016 84.83 451.968 81.4581 454.365 80.0888Z" fill="white"/>
<path d="M438.717 89.1092C441.114 87.7228 443.065 88.8525 443.065 91.6082C443.065 94.364 441.114 97.753 438.717 99.1224C436.32 100.492 434.368 99.3791 434.368 96.6234C434.368 93.8676 436.32 90.4785 438.717 89.1092Z" fill="white"/>
<path opacity="0.5" d="M119.913 300.121L114.486 303.253L116.557 299.282C116.746 298.94 116.763 298.495 116.592 298.307C116.438 298.118 116.164 298.255 115.975 298.598L113.031 304.246C113.031 304.246 113.031 304.246 113.031 304.263C112.996 304.332 112.979 304.4 112.945 304.469C112.945 304.486 112.928 304.52 112.928 304.537C112.911 304.64 112.894 304.725 112.894 304.828C112.894 304.931 112.894 304.999 112.928 305.068C112.928 305.068 112.928 305.102 112.945 305.102C112.962 305.153 112.996 305.187 113.031 305.222L115.975 307.481C115.975 307.481 116.164 307.532 116.266 307.481C116.386 307.413 116.506 307.259 116.592 307.07C116.746 306.694 116.729 306.283 116.557 306.146L114.486 304.554L119.913 301.422C120.153 301.285 120.341 300.874 120.341 300.498C120.341 300.121 120.153 299.933 119.913 300.07V300.121Z" fill="#455A64"/>
<path opacity="0.5" d="M124.45 297.502L129.877 294.37L127.806 292.778C127.617 292.641 127.6 292.23 127.771 291.854C127.925 291.477 128.199 291.289 128.388 291.443L131.332 293.702C131.367 293.737 131.384 293.771 131.418 293.822C131.418 293.822 131.435 293.839 131.435 293.856C131.452 293.925 131.469 294.011 131.469 294.096C131.469 294.182 131.469 294.284 131.435 294.387C131.435 294.404 131.435 294.438 131.418 294.456C131.401 294.524 131.367 294.592 131.332 294.661C131.332 294.661 131.332 294.661 131.332 294.678L128.388 300.327C128.302 300.481 128.199 300.6 128.097 300.652C127.977 300.72 127.857 300.72 127.771 300.618C127.617 300.429 127.634 300.001 127.806 299.642L129.877 295.671L124.45 298.803C124.21 298.94 124.022 298.752 124.022 298.392C124.022 298.033 124.21 297.605 124.45 297.468V297.502Z" fill="#455A64"/>
<path opacity="0.5" d="M142.221 281.909C142.187 281.584 141.896 281.618 141.759 281.977L141.023 283.792C139.756 283.655 138.215 284.887 137.188 287.078C135.852 289.92 135.852 293.274 137.188 294.575C137.855 295.226 138.746 295.226 139.619 294.712C140.492 294.199 141.382 293.172 142.05 291.751C142.221 291.392 142.221 290.964 142.05 290.81C141.879 290.638 141.605 290.81 141.434 291.169C140.424 293.291 138.797 294.233 137.804 293.274C136.794 292.316 136.794 289.8 137.804 287.677C138.523 286.171 139.55 285.281 140.441 285.213L139.876 286.582C139.739 286.941 139.876 287.266 140.098 287.112L142.307 285.675C142.461 285.572 142.581 285.298 142.547 285.076L142.221 281.909Z" fill="#455A64"/>
<path opacity="0.5" d="M200.466 236.79L202.435 232.614C202.674 232.117 202.674 231.535 202.435 231.313C202.195 231.09 201.818 231.313 201.596 231.809L199.627 235.986L197.658 234.086C197.418 233.863 197.042 234.086 196.819 234.582C196.579 235.079 196.579 235.66 196.819 235.883L198.788 237.783L196.819 241.959C196.579 242.456 196.579 243.038 196.819 243.26C196.939 243.38 197.093 243.38 197.247 243.277C197.401 243.192 197.555 243.003 197.675 242.764L199.644 238.587L201.613 240.487C201.733 240.607 201.887 240.607 202.041 240.504C202.195 240.419 202.349 240.231 202.469 239.991C202.709 239.495 202.709 238.913 202.469 238.69L200.5 236.79H200.466Z" fill="#455A64"/>
<path d="M149.412 287.044V280.06C149.412 277.852 150.953 275.182 152.87 274.087L463.319 94.9795C465.22 93.8841 466.778 94.7741 466.778 96.9651V103.949C466.778 106.157 465.237 108.827 463.319 109.922L152.87 289.029C150.97 290.125 149.412 289.235 149.412 287.044Z" fill="#FAFAFA"/>
<path d="M461.299 98.6769L462.206 100.594C462.258 100.714 462.378 100.765 462.497 100.714L464.518 99.9435C464.843 99.8237 464.963 100.269 464.74 100.714L463.268 103.469C463.182 103.641 463.131 103.846 463.148 104L463.49 106.499C463.542 106.893 463.216 107.423 462.925 107.372L461.111 107.15C460.991 107.15 460.854 107.218 460.751 107.355L458.936 109.666C458.645 110.042 458.32 109.905 458.371 109.443L458.714 106.55C458.731 106.362 458.697 106.225 458.594 106.157L457.121 105.096C456.882 104.924 457.019 104.325 457.344 104.086L459.364 102.528C459.484 102.425 459.604 102.254 459.655 102.066L460.563 99.0877C460.7 98.6084 461.128 98.3688 461.265 98.6769H461.299Z" stroke="#E0E0E0" stroke-width="0.75" stroke-miterlimit="10"/>
<g opacity="0.5">
<path d="M470.835 94.1409C470.424 94.1409 470.013 93.9184 469.791 93.5419C469.465 92.977 469.654 92.241 470.236 91.9158L479.943 86.3016C480.525 85.9764 481.244 86.1646 481.57 86.7466C481.895 87.3115 481.707 88.0475 481.125 88.3727L471.417 93.9869C471.229 94.0896 471.023 94.1409 470.818 94.1409H470.835Z" fill="#455A64"/>
<path d="M470.835 99.7381C470.424 99.7381 470.013 99.5327 469.791 99.139C469.465 98.5742 469.654 97.8382 470.236 97.513L479.943 91.8987C480.525 91.5735 481.244 91.7618 481.57 92.3438C481.895 92.9086 481.707 93.6446 481.125 93.9698L471.417 99.5841C471.229 99.6868 471.023 99.7381 470.818 99.7381H470.835Z" fill="#455A64"/>
<path d="M470.835 105.352C470.424 105.352 470.013 105.13 469.791 104.753C469.465 104.188 469.654 103.452 470.236 103.127L479.943 97.513C480.525 97.1878 481.244 97.3761 481.57 97.958C481.895 98.5229 481.707 99.2589 481.125 99.5841L471.417 105.198C471.229 105.301 471.023 105.352 470.818 105.352H470.835Z" fill="#455A64"/>
</g>
<path d="M104.076 298.512V320.952L97.5877 317.203V294.781L104.076 298.512Z" fill="#E0E0E0"/>
<path d="M486.192 100.406L104.076 320.952V350.889L486.158 130.308L486.192 100.406Z" fill="#8796F7"/>
<path opacity="0.15" d="M486.192 100.406L104.076 320.952V350.889L486.158 130.308L486.192 100.406Z" fill="black"/>
<path d="M104.076 320.952L97.5877 317.204V347.14L104.076 350.889V320.952Z" fill="#8796F7"/>
<path opacity="0.5" d="M104.076 320.952L97.5877 317.204V347.14L104.076 350.889V320.952Z" fill="black"/>
<path d="M282.611 225.322L327.09 199.647C330.908 197.439 333.99 199.014 333.99 203.139C333.99 207.264 330.891 212.399 327.09 214.607L282.611 240.282C278.793 242.49 275.711 240.915 275.711 236.79C275.711 232.665 278.81 227.53 282.611 225.322Z" fill="#FAFAFA"/>
<path d="M262.751 236.79C259.172 238.861 256.279 243.876 256.279 248.002C256.279 252.127 259.172 253.804 262.751 251.733C266.329 249.662 269.222 244.647 269.222 240.522C269.222 236.397 266.329 234.719 262.751 236.79Z" fill="#FAFAFA"/>
<path d="M395.727 166.869C395.384 166.869 395.042 166.784 394.751 166.612C394.066 166.219 393.689 165.431 393.689 164.422C393.689 162.556 394.956 160.348 396.583 159.424C397.456 158.91 398.329 158.842 399.014 159.235C399.699 159.629 400.075 160.416 400.075 161.426C400.075 163.292 398.808 165.5 397.182 166.424C396.686 166.715 396.189 166.852 395.727 166.852V166.869ZM397.182 160.451C395.932 161.169 394.888 162.984 394.888 164.422C394.888 164.986 395.059 165.414 395.35 165.586C395.641 165.757 396.086 165.688 396.583 165.397C397.815 164.678 398.877 162.864 398.877 161.426C398.877 160.861 398.706 160.433 398.415 160.262C398.124 160.091 397.679 160.16 397.182 160.451Z" fill="white"/>
<path d="M391.412 177.721V175.958C391.412 173.014 393.415 169.539 395.966 168.067L397.439 167.212C398.74 166.458 400.007 166.356 401 166.938C402.01 167.52 402.592 168.735 402.592 170.292V171.268L391.412 177.721ZM399.579 167.776C399.117 167.776 398.586 167.93 398.038 168.256L396.566 169.111C394.477 170.327 392.748 173.202 392.611 175.65L401.394 170.583V170.292C401.394 169.18 401.034 168.341 400.401 167.982C400.161 167.845 399.887 167.776 399.579 167.776Z" fill="white"/>
<path d="M413.464 161.751C413.275 161.751 413.104 161.7 412.933 161.614C412.556 161.392 412.334 160.947 412.334 160.382C412.334 159.954 412.454 159.475 412.693 159.064L412.796 158.927C413.395 157.883 413.806 156.548 413.806 155.384V154.032C413.806 151.207 415.484 148.041 417.624 146.791C418.668 146.192 419.696 146.124 420.517 146.603C421.476 147.151 422.024 148.383 422.024 149.958V151.55C422.024 152.457 422.332 153.124 422.88 153.364L423.068 153.501C423.325 153.689 423.496 154.1 423.496 154.614C423.496 155.487 422.983 156.428 422.315 156.822L414.097 161.563C413.875 161.683 413.652 161.751 413.447 161.751H413.464ZM419.319 147.493C418.925 147.493 418.531 147.664 418.223 147.835C416.477 148.845 415.005 151.687 415.005 154.032V155.384C415.005 156.753 414.542 158.311 413.738 159.646C413.601 159.885 413.532 160.159 413.532 160.382C413.532 160.519 413.566 160.587 413.566 160.604L421.733 155.795C422.007 155.641 422.315 155.093 422.315 154.631C422.315 154.494 422.281 154.425 422.281 154.408C421.408 154.032 420.843 152.97 420.843 151.567V149.975C420.843 148.828 420.517 147.99 419.935 147.647C419.747 147.527 419.542 147.493 419.336 147.493H419.319Z" fill="white"/>
<path d="M419.61 159.081C419.61 160.331 418.857 161.768 417.915 162.299C416.991 162.83 416.22 162.265 416.22 161.015L419.593 159.064L419.61 159.081Z" fill="white"/>
<path d="M436.594 147.151C436.063 147.151 435.549 147.031 435.104 146.757C434.043 146.141 433.461 144.909 433.461 143.283C433.461 140.133 435.601 136.436 438.323 134.861C439.744 134.04 441.097 133.937 442.158 134.536C443.219 135.152 443.802 136.385 443.802 138.011C443.802 141.16 441.662 144.857 438.939 146.432C438.118 146.894 437.33 147.134 436.594 147.134V147.151ZM438.939 135.905C436.594 137.258 434.676 140.578 434.676 143.3C434.676 144.481 435.053 145.354 435.721 145.73C436.388 146.124 437.33 146.004 438.357 145.405C440.703 144.053 442.62 140.732 442.62 138.011C442.62 136.83 442.244 135.957 441.576 135.563C440.908 135.169 439.967 135.289 438.939 135.888V135.905Z" fill="white"/>
<path d="M447.209 146.056C447.106 146.056 447.003 146.021 446.918 145.97L441.644 142.923C441.353 142.752 441.268 142.393 441.422 142.102C441.593 141.811 441.953 141.725 442.244 141.879L447.517 144.926C447.808 145.097 447.893 145.457 447.739 145.747C447.619 145.936 447.431 146.038 447.226 146.038L447.209 146.056Z" fill="white"/>
<path d="M460.939 138.25L458.953 137.651C455.752 136.693 453.988 134.314 453.988 130.942C453.988 128.032 455.495 124.882 457.43 123.77C458.405 123.205 459.176 123.325 459.655 123.513C459.981 123.65 460.272 123.855 460.528 124.146C461.162 122.435 462.189 121.031 463.336 120.364C464.209 119.867 465.082 119.816 465.819 120.244C466.812 120.809 467.377 122.161 467.377 123.907C467.377 127.929 464.86 132.482 462.754 135.58L460.939 138.25ZM458.816 124.557C458.577 124.557 458.303 124.643 458.012 124.814C456.471 125.704 455.17 128.511 455.17 130.959C455.17 133.834 456.556 135.7 459.279 136.522L460.426 136.864L461.744 134.913C463.764 131.951 466.161 127.638 466.161 123.907C466.161 122.623 465.784 121.613 465.202 121.271C464.843 121.065 464.415 121.1 463.918 121.391C462.754 122.075 461.675 123.872 461.247 125.858L460.751 128.254L460.1 125.892C459.912 125.225 459.587 124.78 459.193 124.608C459.073 124.557 458.953 124.54 458.833 124.54L458.816 124.557Z" fill="white"/>
<path d="M181.804 313.489L214.179 294.798V309.741L181.804 328.449V313.489Z" fill="#E0E0E0"/>
<path d="M220.668 291.049L253.043 272.358V287.318L220.668 306.009V291.049Z" fill="#E0E0E0"/>
<path d="M259.515 268.627L291.907 249.936V264.895L259.532 283.587L259.515 268.627Z" fill="#E0E0E0"/>
<path d="M298.379 246.204L330.771 227.496V242.455L298.379 261.147V246.204Z" fill="#E0E0E0"/>
<path d="M337.243 223.764L369.635 205.073V220.033L337.243 238.724V223.764Z" fill="#E0E0E0"/>
<path d="M376.107 201.342L408.482 182.65V197.593L376.107 216.284V201.342Z" fill="#E0E0E0"/>
<path d="M142.94 358.352L240.083 302.278V317.221L142.94 373.294V358.352Z" fill="#8796F7"/>
<path opacity="0.6" d="M142.94 358.352L240.083 302.278V317.221L142.94 373.294V358.352Z" fill="white"/>
<path d="M246.572 298.529L343.714 242.456V257.415L246.572 313.489V298.529Z" fill="#8796F7"/>
<path opacity="0.5" d="M246.572 298.529L343.714 242.456V257.415L246.572 313.489V298.529Z" fill="white"/>
<path d="M350.203 238.724L447.363 182.633V197.593L350.203 253.667V238.724Z" fill="#8796F7"/>
<path opacity="0.4" d="M350.203 238.724L447.363 182.633V197.593L350.203 253.667V238.724Z" fill="white"/>
<path d="M142.94 545.264L240.083 489.19V519.11L142.94 575.183V545.264Z" fill="#8796F7"/>
<path opacity="0.6" d="M142.94 545.264L240.083 489.19V519.11L142.94 575.183V545.264Z" fill="white"/>
<path d="M246.572 485.458L343.714 429.385V459.287L246.572 515.361V485.458Z" fill="#8796F7"/>
<path opacity="0.5" d="M246.572 485.458L343.714 429.385V459.287L246.572 515.361V485.458Z" fill="white"/>
<path d="M350.203 425.636L447.363 369.562V399.465L350.203 455.556V425.636Z" fill="#8796F7"/>
<path opacity="0.4" d="M350.203 425.636L447.363 369.562V399.465L350.203 455.556V425.636Z" fill="white"/>
<path opacity="0.8" d="M146.399 378.789L443.904 207.024C445.805 205.929 447.363 206.819 447.363 209.01V358.061C447.363 360.269 445.822 362.939 443.904 364.034L146.399 535.798C144.498 536.894 142.94 536.004 142.94 533.813V384.762C142.94 382.554 144.481 379.884 146.382 378.789H146.399Z" fill="#8796F7"/>
<path opacity="0.8" d="M146.399 378.789L443.904 207.024C445.805 205.929 447.363 206.819 447.363 209.01V358.061C447.363 360.269 445.822 362.939 443.904 364.034L146.399 535.798C144.498 536.894 142.94 536.004 142.94 533.813V384.762C142.94 382.554 144.481 379.884 146.382 378.789H146.399Z" fill="white"/>
<path opacity="0.8" d="M363.112 310.459L322.142 371.001L350.973 393.731L249.927 352.771L142.94 496.858V533.813C142.94 535.935 144.481 536.911 146.399 535.798L443.904 364.034C445.805 362.939 447.363 360.097 447.363 358.06V324.546L363.112 310.459Z" fill="#8796F7"/>
<path d="M431.817 285.127C431.475 285.127 431.132 285.059 430.79 284.904C429.591 284.34 429.078 282.919 429.643 281.721L435.549 269.209L430.139 264.005C429.181 263.098 429.163 261.575 430.071 260.616C430.995 259.675 432.502 259.641 433.461 260.548L440.104 266.949C440.84 267.668 441.045 268.764 440.6 269.688L433.957 283.758C433.546 284.614 432.69 285.127 431.8 285.127H431.817Z" fill="white"/>
<path d="M158.434 445.662C157.835 445.662 157.236 445.44 156.774 444.995L150.131 438.593C149.395 437.874 149.189 436.779 149.634 435.855L156.277 421.785C156.842 420.587 158.263 420.09 159.462 420.638C160.66 421.203 161.174 422.624 160.609 423.822L154.702 436.334L160.112 441.537C161.071 442.445 161.088 443.968 160.181 444.926C159.719 445.406 159.085 445.662 158.452 445.662H158.434Z" fill="white"/>
<g opacity="0.15">
<path d="M140.15 631.035C139.037 630.419 134.449 627.714 133.849 627.406C133.199 627.064 132.805 626.276 132.805 625.147V345.703L139.277 349.451V628.895C139.277 629.922 139.619 630.641 140.15 631.052V631.035Z" fill="black"/>
</g>
<g opacity="0.05">
<path d="M521.358 128.871L139.259 349.434L132.788 345.685L514.887 125.122L521.358 128.871Z" fill="black"/>
</g>
<g opacity="0.1">
<path d="M521.392 408.332C521.392 410.54 519.852 413.21 517.934 414.305L142.718 630.864C140.817 631.959 139.276 631.069 139.276 628.878V349.434L521.375 128.888V408.332H521.392Z" fill="black"/>
</g>
<path opacity="0.8" d="M446.404 229.259C445.77 228.848 444.88 228.865 443.87 229.447L224.092 356.349C222.192 357.444 220.634 360.132 220.634 362.322V511.373C220.634 512.451 221.011 513.222 221.627 513.598C222.26 513.975 227.499 516.97 228.116 517.347C228.749 517.723 229.605 517.672 230.564 517.107L450.342 390.205C452.242 389.11 453.8 386.422 453.8 384.232V235.181C453.8 234.086 453.423 233.315 452.79 232.956C452.156 232.596 446.969 229.652 446.387 229.276L446.404 229.259Z" fill="#37474F"/>
<path opacity="0.3" d="M446.404 229.259C446.952 229.618 451.54 232.22 452.619 232.853C452.019 232.596 451.215 232.699 450.359 233.195L230.581 360.097C229.622 360.645 228.766 361.604 228.15 362.682L221.661 358.933C222.277 357.855 223.168 356.914 224.109 356.349L443.887 229.464C444.88 228.882 445.788 228.865 446.404 229.276V229.259Z" fill="white"/>
<path opacity="0.2" d="M227.123 515.122C227.123 516.114 227.448 516.85 227.961 517.261C226.866 516.628 222.226 513.958 221.627 513.615C221.028 513.256 220.634 512.486 220.634 511.407V362.34C220.634 361.244 221.011 360.029 221.644 358.951L228.133 362.699C227.499 363.778 227.105 364.993 227.105 366.088V515.139L227.123 515.122Z" fill="black"/>
<path opacity="0.8" d="M296.735 347.003L384.205 296.509C386.875 294.969 389.033 296.218 389.033 299.299V299.351C389.033 302.432 386.875 306.18 384.205 307.721L296.735 358.214C294.064 359.755 291.907 358.505 291.907 355.424V355.373C291.907 352.292 294.064 348.543 296.735 347.003Z" fill="white"/>
<path opacity="0.8" d="M295.4 370.23L411.512 303.202C413.412 302.106 414.97 302.877 414.97 304.948C414.97 307.019 413.43 309.586 411.512 310.682L295.4 377.71C293.499 378.805 291.941 378.035 291.941 375.964C291.941 373.893 293.482 371.326 295.4 370.23Z" fill="white"/>
<path opacity="0.8" d="M295.4 385.19L411.512 318.162C413.412 317.066 414.97 317.837 414.97 319.908C414.97 321.979 413.43 324.546 411.512 325.642L295.4 392.67C293.499 393.765 291.941 392.995 291.941 390.924C291.941 388.853 293.482 386.285 295.4 385.19Z" fill="white"/>
<path opacity="0.8" d="M295.4 400.132L411.512 333.104C413.412 332.009 414.97 332.779 414.97 334.85C414.97 336.921 413.43 339.489 411.512 340.584L295.4 407.612C293.499 408.708 291.941 407.938 291.941 405.866C291.941 403.795 293.482 401.228 295.4 400.132Z" fill="white"/>
<path opacity="0.8" d="M266.483 393.252C266.534 394.227 266.551 395.1 266.551 395.871C266.551 396.641 266.534 397.497 266.483 398.455C266.363 400.663 265.798 402.7 264.805 404.549C263.795 406.397 262.477 407.801 260.85 408.742C259.224 409.684 257.906 409.804 256.895 409.119C255.885 408.434 255.32 407.065 255.2 404.977C255.149 404.07 255.132 403.248 255.132 402.478C255.132 401.707 255.149 400.817 255.2 399.79C255.303 397.565 255.834 395.528 256.81 393.697C257.786 391.865 259.138 390.462 260.85 389.469C262.562 388.476 263.915 388.339 264.891 389.041C265.867 389.743 266.397 391.164 266.5 393.286L266.483 393.252ZM275.899 382.16C276.053 381.75 276.225 381.407 276.413 381.116C276.584 380.825 276.841 380.603 277.166 380.414L280.779 378.326C281.036 378.189 281.241 378.155 281.395 378.275C281.549 378.378 281.618 378.6 281.618 378.925C281.618 378.994 281.618 379.097 281.583 379.216C281.549 379.336 281.515 379.473 281.481 379.61L264.274 424.37C264.12 424.798 263.949 425.14 263.778 425.414C263.607 425.688 263.35 425.927 263.025 426.116L259.412 428.204C259.155 428.341 258.95 428.375 258.796 428.255C258.642 428.152 258.573 427.93 258.573 427.605C258.573 427.536 258.573 427.451 258.607 427.314C258.625 427.194 258.659 427.074 258.71 426.937L275.916 382.16H275.899ZM259.703 402.649C259.737 403.231 259.823 403.676 259.994 403.984C260.165 404.275 260.439 404.309 260.833 404.087C261.227 403.864 261.501 403.505 261.672 403.008C261.843 402.529 261.929 401.964 261.963 401.348C262.049 399.294 262.049 397.36 261.963 395.563C261.929 394.981 261.843 394.536 261.672 394.228C261.501 393.937 261.227 393.902 260.833 394.125C260.439 394.347 260.165 394.707 259.994 395.203C259.823 395.682 259.737 396.247 259.703 396.863C259.618 398.78 259.618 400.698 259.703 402.649ZM285.333 401.656C285.384 402.632 285.401 403.505 285.401 404.275C285.401 405.045 285.384 405.901 285.333 406.859C285.213 409.068 284.648 411.104 283.638 412.953C282.628 414.802 281.309 416.205 279.683 417.147C278.057 418.088 276.738 418.208 275.728 417.523C274.718 416.838 274.153 415.469 274.033 413.381C273.982 412.474 273.965 411.635 273.965 410.865C273.965 410.094 273.982 409.204 274.033 408.177C274.119 405.935 274.667 403.915 275.625 402.084C276.601 400.253 277.954 398.832 279.666 397.839C281.378 396.846 282.73 396.709 283.706 397.411C284.682 398.113 285.213 399.534 285.316 401.656H285.333ZM278.57 411.053C278.604 411.635 278.69 412.08 278.861 412.371C279.032 412.662 279.306 412.696 279.7 412.474C280.094 412.251 280.368 411.892 280.539 411.395C280.693 410.916 280.796 410.351 280.83 409.735C280.916 407.681 280.916 405.764 280.83 403.95C280.796 403.368 280.71 402.923 280.539 402.615C280.368 402.306 280.094 402.289 279.7 402.512C279.306 402.734 279.032 403.094 278.861 403.59C278.707 404.087 278.604 404.634 278.57 405.268C278.485 407.185 278.485 409.102 278.57 411.053Z" fill="white"/>
<path opacity="0.8" d="M266.449 451.551L369.618 391.985V406.945L266.449 466.511C262.631 468.719 259.549 467.144 259.549 463.019C259.549 458.894 262.648 453.759 266.449 451.551Z" fill="#FAFAFA"/>
<path d="M414.525 366.071C418.343 363.863 421.425 365.438 421.408 369.563C421.408 373.688 418.309 378.823 414.491 381.031L369.618 406.945V391.985L414.525 366.071Z" fill="#8796F7"/>
<path d="M269.411 460.435L267.972 456.121C267.972 456.121 267.972 456.07 267.972 456.053C267.972 455.967 267.99 455.882 268.024 455.813C268.058 455.728 268.109 455.676 268.161 455.642L268.709 455.317C268.709 455.317 268.811 455.283 268.863 455.317C268.914 455.351 268.931 455.385 268.948 455.437L269.924 458.346L270.9 454.307C270.9 454.307 270.951 454.17 270.986 454.084C271.037 453.999 271.088 453.93 271.14 453.896L271.688 453.588C271.688 453.588 271.79 453.554 271.825 453.588C271.859 453.622 271.876 453.691 271.876 453.759C271.876 453.793 271.876 453.81 271.876 453.845L269.822 462.369C269.822 462.369 269.77 462.523 269.736 462.591C269.702 462.677 269.65 462.728 269.582 462.762L269.034 463.088C269.034 463.088 268.931 463.122 268.897 463.088C268.863 463.053 268.846 462.985 268.846 462.899C268.846 462.865 268.846 462.848 268.846 462.814L269.428 460.417L269.411 460.435Z" fill="#455A64"/>
<path d="M274.444 451.876C274.718 451.722 274.958 451.636 275.18 451.654C275.403 451.654 275.591 451.722 275.745 451.859C275.899 451.996 276.036 452.184 276.122 452.424C276.225 452.663 276.276 452.954 276.293 453.297C276.293 453.365 276.293 453.451 276.293 453.553V454.17C276.293 454.272 276.293 454.358 276.293 454.426C276.276 454.786 276.225 455.128 276.122 455.488C276.036 455.847 275.899 456.172 275.745 456.48C275.591 456.788 275.403 457.079 275.18 457.319C274.958 457.576 274.718 457.781 274.444 457.935C274.17 458.089 273.93 458.158 273.725 458.158C273.502 458.158 273.314 458.089 273.16 457.952C273.006 457.815 272.869 457.627 272.783 457.388C272.698 457.148 272.629 456.857 272.612 456.515C272.612 456.446 272.612 456.361 272.612 456.275C272.612 456.172 272.612 456.07 272.612 455.967C272.612 455.864 272.612 455.761 272.612 455.659C272.612 455.556 272.612 455.471 272.612 455.402C272.612 455.043 272.681 454.7 272.783 454.341C272.869 453.981 273.006 453.656 273.16 453.331C273.314 453.023 273.502 452.732 273.725 452.475C273.948 452.218 274.187 452.013 274.444 451.859V451.876ZM275.334 453.896C275.334 453.673 275.283 453.502 275.232 453.382C275.18 453.262 275.112 453.177 275.026 453.143C274.941 453.108 274.855 453.091 274.752 453.108C274.65 453.126 274.564 453.177 274.461 453.228C274.358 453.28 274.256 453.365 274.17 453.451C274.067 453.536 273.982 453.656 273.896 453.793C273.811 453.93 273.742 454.084 273.691 454.272C273.639 454.461 273.605 454.666 273.588 454.906C273.588 454.974 273.588 455.043 273.588 455.128C273.588 455.214 273.588 455.316 273.588 455.419C273.588 455.522 273.588 455.607 273.588 455.71C273.588 455.796 273.588 455.881 273.588 455.916C273.588 456.138 273.639 456.309 273.691 456.429C273.742 456.549 273.811 456.634 273.896 456.669C273.982 456.703 274.067 456.72 274.17 456.703C274.273 456.686 274.358 456.634 274.461 456.583C274.564 456.532 274.667 456.446 274.752 456.361C274.855 456.275 274.941 456.155 275.026 456.018C275.112 455.881 275.18 455.727 275.232 455.539C275.283 455.351 275.317 455.145 275.334 454.906C275.334 454.854 275.334 454.769 275.334 454.683V454.118C275.334 454.033 275.334 453.947 275.334 453.896Z" fill="#455A64"/>
<path d="M277.44 450.558C277.44 450.558 277.457 450.387 277.492 450.319C277.526 450.233 277.577 450.182 277.629 450.147L278.176 449.822C278.176 449.822 278.279 449.788 278.313 449.822C278.348 449.856 278.365 449.925 278.365 450.01V452.869C278.365 453.314 278.433 453.639 278.553 453.845C278.673 454.05 278.878 454.067 279.169 453.896C279.426 453.742 279.632 453.502 279.769 453.143C279.906 452.8 279.974 452.39 279.974 451.945V449.086C279.974 449.086 279.991 448.915 280.025 448.847C280.06 448.761 280.111 448.71 280.162 448.675L280.71 448.35C280.71 448.35 280.813 448.316 280.847 448.35C280.881 448.384 280.899 448.453 280.899 448.521V453.759C280.899 453.759 280.881 453.93 280.847 454.016C280.813 454.101 280.762 454.153 280.71 454.187L280.162 454.512C280.162 454.512 280.06 454.546 280.025 454.512C279.991 454.478 279.974 454.409 279.974 454.341V454.084C279.854 454.324 279.717 454.563 279.563 454.786C279.392 455.026 279.204 455.197 278.964 455.334C278.673 455.505 278.416 455.573 278.228 455.556C278.039 455.522 277.885 455.419 277.765 455.248C277.646 455.077 277.56 454.837 277.509 454.546C277.457 454.255 277.44 453.93 277.44 453.588V450.558Z" fill="#455A64"/>
<path d="M284.083 447.768C283.792 447.939 283.587 448.162 283.45 448.436C283.313 448.71 283.261 449.069 283.261 449.514V452.441C283.261 452.441 283.244 452.612 283.21 452.698C283.176 452.783 283.124 452.835 283.073 452.869L282.525 453.194C282.525 453.194 282.422 453.228 282.388 453.194C282.354 453.16 282.337 453.091 282.337 453.023V447.785C282.337 447.785 282.354 447.614 282.388 447.546C282.422 447.477 282.474 447.409 282.525 447.375L283.073 447.049C283.073 447.049 283.176 447.015 283.21 447.049C283.244 447.084 283.261 447.152 283.261 447.22V447.477C283.381 447.22 283.518 447.015 283.672 446.827C283.809 446.638 283.997 446.484 284.237 446.348L284.562 446.159C284.562 446.159 284.665 446.125 284.699 446.159C284.734 446.193 284.768 446.262 284.768 446.33V447.066C284.768 447.066 284.751 447.238 284.699 447.306C284.665 447.392 284.614 447.443 284.562 447.477L284.083 447.751V447.768Z" fill="#455A64"/>
<path d="M286.685 445.492C286.805 445.201 286.942 444.961 287.113 444.756C287.285 444.551 287.456 444.379 287.627 444.277C287.935 444.106 288.192 444.037 288.38 444.106C288.569 444.174 288.723 444.311 288.843 444.533C288.911 444.345 288.98 444.174 289.082 443.986C289.168 443.815 289.271 443.661 289.373 443.506C289.476 443.37 289.579 443.233 289.699 443.13C289.818 443.027 289.921 442.942 290.024 442.873C290.298 442.719 290.537 442.651 290.726 442.685C290.914 442.719 291.051 442.822 291.171 442.993C291.291 443.164 291.359 443.404 291.411 443.695C291.462 443.986 291.479 444.311 291.479 444.653V447.683C291.479 447.683 291.462 447.854 291.428 447.923C291.394 447.991 291.342 448.06 291.291 448.094L290.743 448.419C290.743 448.419 290.64 448.453 290.606 448.419C290.572 448.385 290.555 448.316 290.555 448.231V445.252C290.555 444.739 290.486 444.431 290.366 444.294C290.246 444.157 290.058 444.174 289.836 444.294C289.647 444.414 289.476 444.602 289.339 444.876C289.202 445.15 289.134 445.543 289.116 446.023V449.052C289.116 449.052 289.099 449.223 289.065 449.292C289.031 449.377 288.979 449.429 288.928 449.463L288.38 449.788C288.38 449.788 288.278 449.822 288.243 449.788C288.209 449.754 288.192 449.686 288.192 449.617V446.639C288.192 446.125 288.123 445.8 288.004 445.68C287.884 445.543 287.695 445.56 287.473 445.68C287.267 445.8 287.096 446.006 286.959 446.279C286.822 446.57 286.754 446.964 286.754 447.46V450.439C286.754 450.439 286.737 450.61 286.702 450.678C286.668 450.747 286.617 450.815 286.565 450.849L286.018 451.175C286.018 451.175 285.915 451.209 285.881 451.175C285.846 451.14 285.829 451.072 285.829 450.986V445.749C285.829 445.749 285.846 445.578 285.881 445.509C285.915 445.424 285.966 445.372 286.018 445.338L286.565 445.013C286.565 445.013 286.668 444.978 286.702 445.013C286.737 445.047 286.754 445.115 286.754 445.184V445.441L286.685 445.492Z" fill="#455A64"/>
<path d="M292.815 442.822C292.832 442.65 292.883 442.462 292.951 442.24C293.02 442.017 293.123 441.795 293.243 441.555C293.379 441.315 293.534 441.093 293.722 440.887C293.91 440.682 294.133 440.511 294.373 440.357C294.612 440.22 294.852 440.134 295.04 440.117C295.246 440.117 295.417 440.151 295.554 440.271C295.691 440.391 295.811 440.562 295.879 440.819C295.948 441.076 295.999 441.384 295.999 441.76V445.064C295.999 445.064 295.982 445.235 295.948 445.303C295.913 445.389 295.862 445.44 295.811 445.475L295.263 445.8C295.263 445.8 295.16 445.834 295.126 445.8C295.092 445.766 295.074 445.697 295.074 445.629V445.252C294.972 445.526 294.818 445.8 294.629 446.057C294.441 446.33 294.184 446.536 293.893 446.707C293.688 446.827 293.499 446.895 293.328 446.895C293.157 446.895 293.02 446.861 292.917 446.775C292.797 446.69 292.712 446.553 292.66 446.365C292.592 446.176 292.575 445.971 292.575 445.714C292.575 445.201 292.695 444.722 292.934 444.294C293.174 443.866 293.499 443.489 293.893 443.147L295.092 442.137C295.092 441.829 295.023 441.658 294.886 441.606C294.749 441.555 294.595 441.589 294.39 441.692C294.27 441.76 294.167 441.846 294.099 441.932C294.03 442.017 293.962 442.137 293.893 442.257C293.842 442.342 293.808 442.411 293.773 442.445C293.739 442.496 293.688 442.531 293.653 442.548L292.969 442.941C292.969 442.941 292.883 442.976 292.849 442.941C292.815 442.907 292.797 442.856 292.815 442.787V442.822ZM294.03 445.286C294.201 445.184 294.338 445.064 294.475 444.927C294.612 444.79 294.715 444.619 294.801 444.448C294.886 444.276 294.955 444.105 295.006 443.934C295.057 443.763 295.074 443.592 295.074 443.438V443.318L294.081 444.157C293.876 444.328 293.739 444.482 293.653 444.636C293.568 444.79 293.516 444.944 293.516 445.115C293.516 445.269 293.568 445.355 293.671 445.372C293.773 445.389 293.893 445.355 294.047 445.269L294.03 445.286Z" fill="#455A64"/>
<path d="M298.139 436.18C298.139 436.18 298.242 436.146 298.276 436.18C298.31 436.214 298.327 436.283 298.327 436.351V437.224C298.327 437.224 298.31 437.396 298.276 437.481C298.242 437.567 298.19 437.618 298.139 437.652L297.506 438.012C297.506 438.012 297.403 438.046 297.369 438.012C297.334 437.977 297.317 437.909 297.317 437.823V436.95C297.317 436.95 297.334 436.779 297.369 436.711C297.403 436.625 297.454 436.574 297.506 436.54L298.139 436.18ZM298.293 443.763C298.293 443.763 298.276 443.934 298.242 444.002C298.208 444.088 298.156 444.139 298.105 444.174L297.557 444.499C297.557 444.499 297.454 444.533 297.42 444.499C297.386 444.465 297.369 444.396 297.369 444.328V439.09C297.369 439.09 297.386 438.919 297.42 438.85C297.454 438.765 297.506 438.714 297.557 438.679L298.105 438.354C298.105 438.354 298.208 438.32 298.242 438.354C298.276 438.388 298.293 438.457 298.293 438.525V443.763Z" fill="#455A64"/>
<path d="M300.622 442.428C300.622 442.428 300.604 442.599 300.57 442.667C300.536 442.753 300.485 442.804 300.433 442.839L299.885 443.164C299.885 443.164 299.783 443.198 299.748 443.164C299.714 443.13 299.697 443.061 299.697 442.993V435.615C299.697 435.615 299.714 435.444 299.748 435.376C299.783 435.29 299.834 435.239 299.885 435.205L300.433 434.879C300.433 434.879 300.536 434.845 300.57 434.879C300.604 434.914 300.622 434.982 300.622 435.051V442.428Z" fill="#455A64"/>
<path d="M307.401 436.197C307.401 436.488 307.35 436.762 307.282 437.019C307.213 437.276 307.127 437.515 307.025 437.721C306.922 437.926 306.802 438.114 306.665 438.251C306.528 438.405 306.408 438.525 306.271 438.594C306.032 438.731 305.843 438.782 305.706 438.748C305.569 438.713 305.467 438.662 305.398 438.577C305.364 438.679 305.313 438.765 305.278 438.868C305.227 438.97 305.176 439.073 305.107 439.159C305.039 439.261 304.953 439.364 304.85 439.449C304.748 439.552 304.628 439.638 304.474 439.723C304.285 439.826 304.131 439.86 303.977 439.843C303.84 439.826 303.703 439.74 303.601 439.586C303.498 439.45 303.412 439.244 303.361 439.004C303.31 438.748 303.275 438.457 303.275 438.114C303.275 437.772 303.31 437.447 303.361 437.122C303.412 436.814 303.481 436.523 303.583 436.266C303.686 436.009 303.806 435.787 303.943 435.581C304.08 435.393 304.251 435.239 304.422 435.136C304.628 435.016 304.765 434.982 304.868 435.016C304.97 435.051 305.039 435.119 305.107 435.222V435.119C305.107 435.119 305.124 434.948 305.159 434.879C305.193 434.794 305.244 434.742 305.296 434.708L305.672 434.486C305.672 434.486 305.775 434.451 305.809 434.486C305.843 434.52 305.86 434.588 305.86 434.657V437.053C305.86 437.241 305.895 437.344 305.98 437.413C306.049 437.464 306.134 437.464 306.237 437.413C306.34 437.361 306.425 437.259 306.494 437.122C306.562 436.985 306.597 436.779 306.614 436.54C306.614 436.334 306.614 436.112 306.614 435.889C306.614 435.667 306.614 435.461 306.597 435.273C306.562 434.879 306.511 434.554 306.408 434.28C306.323 434.024 306.186 433.835 306.032 433.715C305.86 433.613 305.672 433.561 305.415 433.596C305.176 433.63 304.885 433.75 304.542 433.938C304.251 434.092 304.011 434.315 303.789 434.554C303.566 434.811 303.378 435.085 303.207 435.41C303.053 435.718 302.916 436.06 302.813 436.42C302.71 436.779 302.659 437.156 302.625 437.532C302.625 437.635 302.625 437.772 302.608 437.926C302.608 438.08 302.608 438.251 302.608 438.44C302.608 438.628 302.608 438.782 302.608 438.953C302.608 439.124 302.608 439.244 302.625 439.347C302.659 439.689 302.71 439.98 302.813 440.22C302.916 440.459 303.036 440.648 303.207 440.785C303.361 440.904 303.566 440.973 303.789 440.973C304.011 440.973 304.268 440.887 304.542 440.716C304.748 440.596 304.919 440.494 305.056 440.374C305.21 440.254 305.33 440.151 305.432 440.031C305.535 439.912 305.638 439.809 305.706 439.689C305.792 439.586 305.86 439.467 305.912 439.364C305.963 439.278 306.015 439.21 306.032 439.159C306.066 439.107 306.1 439.073 306.169 439.039L306.717 438.731C306.717 438.731 306.819 438.696 306.853 438.731C306.888 438.765 306.905 438.833 306.905 438.936C306.905 438.987 306.905 439.056 306.853 439.141C306.751 439.364 306.631 439.586 306.511 439.826C306.374 440.066 306.22 440.305 306.049 440.528C305.86 440.767 305.655 440.99 305.398 441.212C305.141 441.435 304.85 441.658 304.508 441.846C304.08 442.085 303.703 442.205 303.395 442.205C303.07 442.205 302.796 442.103 302.573 441.897C302.351 441.692 302.18 441.418 302.06 441.058C301.94 440.699 301.854 440.288 301.82 439.843C301.82 439.74 301.82 439.604 301.82 439.432C301.82 439.261 301.82 439.073 301.82 438.885C301.82 438.696 301.82 438.508 301.82 438.337C301.82 438.166 301.82 438.029 301.82 437.926C301.837 437.447 301.923 436.951 302.043 436.454C302.162 435.958 302.334 435.461 302.556 435.016C302.779 434.554 303.053 434.126 303.378 433.75C303.703 433.356 304.08 433.048 304.508 432.808C305.004 432.517 305.432 432.363 305.775 432.363C306.117 432.363 306.408 432.449 306.631 432.637C306.854 432.825 307.025 433.116 307.127 433.493C307.23 433.87 307.299 434.297 307.333 434.777C307.333 434.965 307.333 435.187 307.333 435.444C307.333 435.701 307.333 435.941 307.333 436.146L307.401 436.197ZM304.046 437.704C304.046 438.063 304.097 438.32 304.183 438.474C304.268 438.628 304.405 438.645 304.576 438.542C304.765 438.44 304.885 438.268 304.987 438.012C305.073 437.755 305.124 437.447 305.124 437.07C305.124 436.694 305.073 436.437 304.987 436.283C304.902 436.129 304.765 436.095 304.576 436.214C304.405 436.317 304.268 436.488 304.183 436.745C304.097 437.002 304.046 437.327 304.046 437.687V437.704Z" fill="#455A64"/>
<path d="M309.627 432.243C309.747 431.952 309.884 431.713 310.055 431.507C310.226 431.302 310.397 431.131 310.569 431.028C310.877 430.857 311.134 430.789 311.322 430.857C311.51 430.925 311.664 431.062 311.784 431.285C311.853 431.097 311.921 430.925 312.024 430.754C312.11 430.583 312.212 430.429 312.315 430.275C312.418 430.138 312.52 430.001 312.64 429.899C312.76 429.796 312.863 429.71 312.966 429.642C313.239 429.488 313.479 429.419 313.668 429.453C313.856 429.488 314.01 429.59 314.113 429.762C314.232 429.933 314.301 430.172 314.352 430.463C314.404 430.754 314.421 431.08 314.421 431.422V434.452C314.421 434.452 314.404 434.623 314.369 434.691C314.335 434.777 314.284 434.828 314.232 434.862L313.685 435.188C313.685 435.188 313.582 435.222 313.548 435.188C313.513 435.153 313.496 435.085 313.496 435.016V432.038C313.496 431.525 313.428 431.216 313.308 431.08C313.188 430.96 313 430.96 312.777 431.08C312.589 431.199 312.418 431.388 312.281 431.662C312.144 431.935 312.075 432.329 312.058 432.808V435.838C312.058 435.838 312.041 436.009 312.007 436.078C311.973 436.163 311.921 436.214 311.87 436.249L311.322 436.574C311.322 436.574 311.219 436.608 311.185 436.574C311.151 436.54 311.134 436.471 311.134 436.386V433.407C311.134 432.894 311.065 432.569 310.945 432.449C310.825 432.312 310.637 432.329 310.415 432.449C310.209 432.569 310.038 432.774 309.901 433.048C309.764 433.339 309.695 433.733 309.695 434.229V437.207C309.695 437.207 309.678 437.378 309.644 437.464C309.61 437.55 309.559 437.601 309.507 437.635L308.959 437.96C308.959 437.96 308.857 437.995 308.822 437.96C308.788 437.926 308.771 437.858 308.771 437.789V432.552C308.771 432.552 308.788 432.38 308.822 432.312C308.857 432.226 308.908 432.175 308.959 432.141L309.507 431.816C309.507 431.816 309.61 431.781 309.644 431.816C309.678 431.85 309.695 431.918 309.695 431.987V432.243H309.627Z" fill="#455A64"/>
<path d="M315.756 429.591C315.773 429.419 315.825 429.231 315.893 429.009C315.962 428.786 316.064 428.564 316.201 428.324C316.338 428.084 316.492 427.862 316.681 427.656C316.869 427.451 317.092 427.263 317.331 427.126C317.588 426.989 317.811 426.903 317.999 426.886C318.204 426.886 318.376 426.92 318.513 427.04C318.65 427.16 318.769 427.331 318.838 427.588C318.924 427.845 318.958 428.153 318.958 428.547V431.85C318.958 431.85 318.941 432.021 318.906 432.09C318.872 432.175 318.821 432.227 318.769 432.261L318.222 432.586C318.222 432.586 318.119 432.62 318.085 432.586C318.05 432.552 318.033 432.483 318.033 432.398V432.021C317.931 432.295 317.776 432.569 317.588 432.826C317.4 433.1 317.143 433.305 316.852 433.476C316.646 433.596 316.458 433.664 316.287 433.664C316.116 433.664 315.979 433.63 315.876 433.545C315.773 433.459 315.671 433.322 315.619 433.134C315.551 432.945 315.534 432.74 315.534 432.483C315.534 431.97 315.653 431.491 315.893 431.063C316.133 430.635 316.458 430.258 316.852 429.916L318.033 428.906C318.033 428.598 317.965 428.427 317.845 428.375C317.708 428.324 317.554 428.358 317.348 428.461C317.229 428.529 317.126 428.615 317.057 428.701C316.989 428.786 316.92 428.906 316.852 429.026C316.818 429.111 316.766 429.18 316.732 429.214C316.698 429.265 316.664 429.3 316.612 429.317L315.927 429.71C315.927 429.71 315.842 429.745 315.808 429.71C315.773 429.676 315.756 429.625 315.773 429.556L315.756 429.591ZM316.972 432.055C317.143 431.953 317.28 431.833 317.417 431.696C317.554 431.542 317.657 431.388 317.742 431.217C317.828 431.046 317.896 430.874 317.948 430.703C317.982 430.532 318.016 430.361 318.016 430.207V430.087L317.023 430.926C316.818 431.097 316.681 431.251 316.595 431.405C316.509 431.559 316.458 431.713 316.458 431.884C316.458 432.038 316.509 432.124 316.612 432.141C316.715 432.141 316.835 432.124 316.989 432.038L316.972 432.055Z" fill="#455A64"/>
<path d="M321.081 422.932C321.081 422.932 321.183 422.898 321.218 422.932C321.252 422.966 321.269 423.035 321.269 423.103V423.976C321.269 423.976 321.252 424.147 321.218 424.216C321.183 424.301 321.132 424.353 321.081 424.387L320.447 424.746C320.447 424.746 320.345 424.781 320.31 424.746C320.276 424.712 320.259 424.644 320.259 424.558V423.685C320.259 423.685 320.276 423.514 320.31 423.446C320.345 423.36 320.396 423.309 320.447 423.274L321.081 422.915V422.932ZM321.235 430.515C321.235 430.515 321.218 430.686 321.183 430.754C321.149 430.84 321.098 430.891 321.046 430.926L320.499 431.251C320.499 431.251 320.396 431.285 320.362 431.251C320.327 431.217 320.31 431.148 320.31 431.062V425.825C320.31 425.825 320.327 425.654 320.362 425.585C320.396 425.5 320.447 425.448 320.499 425.414L321.046 425.089C321.046 425.089 321.149 425.055 321.183 425.089C321.218 425.123 321.235 425.192 321.235 425.277V430.515Z" fill="#455A64"/>
<path d="M323.58 429.18C323.58 429.18 323.563 429.351 323.529 429.419C323.495 429.505 323.443 429.556 323.392 429.591L322.844 429.916C322.844 429.916 322.741 429.95 322.707 429.916C322.673 429.882 322.656 429.813 322.656 429.728V422.35C322.656 422.35 322.673 422.179 322.707 422.111C322.741 422.042 322.793 421.974 322.844 421.94L323.392 421.614C323.392 421.614 323.495 421.58 323.529 421.614C323.563 421.649 323.58 421.717 323.58 421.785V429.163V429.18Z" fill="#455A64"/>
<path d="M325.738 426.527C325.738 426.527 325.84 426.493 325.874 426.527C325.909 426.561 325.926 426.63 325.926 426.715V427.811C325.926 427.811 325.909 427.982 325.874 428.05C325.84 428.136 325.789 428.187 325.738 428.221L325.053 428.615C325.053 428.615 324.95 428.649 324.916 428.615C324.881 428.581 324.864 428.512 324.864 428.427V427.331C324.864 427.331 324.881 427.16 324.916 427.092C324.95 427.006 325.001 426.955 325.053 426.921L325.738 426.527Z" fill="#455A64"/>
<path d="M327.98 423.617C327.98 423.737 327.98 423.874 327.98 424.011C327.98 424.148 327.98 424.285 327.98 424.404C327.98 424.627 328.032 424.798 328.083 424.935C328.134 425.072 328.203 425.158 328.289 425.226C328.374 425.277 328.46 425.312 328.562 425.295C328.665 425.295 328.768 425.26 328.854 425.192C328.973 425.123 329.076 425.055 329.162 424.969C329.247 424.901 329.316 424.815 329.367 424.713C329.419 424.627 329.47 424.524 329.521 424.439C329.555 424.336 329.607 424.233 329.641 424.131C329.675 424.045 329.71 423.959 329.744 423.874C329.778 423.788 329.829 423.72 329.881 423.686L330.429 423.36C330.429 423.36 330.531 423.326 330.566 423.36C330.6 423.395 330.617 423.463 330.617 423.549C330.617 423.703 330.583 423.925 330.514 424.182C330.446 424.439 330.343 424.73 330.206 425.004C330.069 425.295 329.881 425.568 329.658 425.842C329.436 426.116 329.162 426.339 328.854 426.527C328.58 426.681 328.34 426.749 328.134 426.732C327.912 426.732 327.741 426.63 327.569 426.493C327.415 426.339 327.278 426.15 327.193 425.894C327.107 425.637 327.056 425.346 327.022 425.004C327.022 424.867 327.022 424.73 327.022 424.559C327.022 424.387 327.022 424.233 327.022 424.096C327.022 423.737 327.09 423.378 327.176 423.018C327.261 422.659 327.398 422.299 327.552 421.974C327.706 421.649 327.895 421.358 328.117 421.084C328.34 420.827 328.58 420.605 328.836 420.451C329.145 420.279 329.418 420.194 329.641 420.194C329.864 420.194 330.052 420.279 330.189 420.399C330.326 420.519 330.446 420.673 330.497 420.861C330.566 421.05 330.6 421.221 330.6 421.375C330.6 421.46 330.6 421.529 330.548 421.615C330.514 421.7 330.463 421.751 330.412 421.786L329.864 422.111C329.864 422.111 329.761 422.128 329.727 422.094C329.692 422.042 329.658 422.008 329.624 421.957C329.59 421.888 329.538 421.837 329.504 421.786C329.47 421.734 329.418 421.7 329.35 421.683C329.299 421.666 329.213 421.666 329.145 421.683C329.059 421.7 328.956 421.751 328.836 421.82C328.734 421.871 328.631 421.957 328.545 422.06C328.443 422.162 328.357 422.282 328.271 422.436C328.186 422.59 328.117 422.761 328.066 422.95C328.015 423.138 327.98 423.36 327.963 423.6L327.98 423.617Z" fill="#455A64"/>
<path d="M333.476 417.797C333.75 417.643 333.99 417.575 334.195 417.575C334.418 417.575 334.606 417.643 334.76 417.78C334.914 417.917 335.051 418.105 335.137 418.345C335.222 418.585 335.291 418.876 335.308 419.218C335.308 419.286 335.308 419.372 335.308 419.475V420.091C335.308 420.194 335.308 420.279 335.308 420.348C335.291 420.707 335.239 421.049 335.137 421.409C335.051 421.768 334.914 422.093 334.76 422.402C334.606 422.71 334.418 423.001 334.195 423.257C333.973 423.514 333.733 423.72 333.476 423.874C333.202 424.028 332.962 424.096 332.757 424.096C332.534 424.096 332.346 424.028 332.192 423.891C332.038 423.754 331.901 423.565 331.815 423.326C331.73 423.069 331.661 422.795 331.644 422.453C331.644 422.384 331.644 422.299 331.644 422.213C331.644 422.111 331.644 422.008 331.644 421.905C331.644 421.802 331.644 421.7 331.644 421.58C331.644 421.477 331.644 421.392 331.644 421.323C331.644 420.964 331.713 420.621 331.815 420.262C331.918 419.903 332.038 419.577 332.192 419.252C332.346 418.944 332.534 418.653 332.757 418.396C332.98 418.14 333.219 417.934 333.476 417.78V417.797ZM334.366 419.817C334.366 419.594 334.315 419.423 334.264 419.303C334.212 419.184 334.144 419.098 334.058 419.064C333.973 419.03 333.887 419.012 333.784 419.03C333.682 419.047 333.579 419.098 333.493 419.149C333.39 419.201 333.288 419.286 333.185 419.372C333.082 419.458 332.997 419.577 332.911 419.714C332.825 419.851 332.757 420.022 332.706 420.194C332.654 420.382 332.62 420.587 332.603 420.827C332.603 420.895 332.603 420.964 332.603 421.049C332.603 421.135 332.603 421.238 332.603 421.34C332.603 421.443 332.603 421.529 332.603 421.631C332.603 421.717 332.603 421.802 332.603 421.837C332.603 422.059 332.654 422.23 332.706 422.35C332.757 422.47 332.825 422.556 332.911 422.59C332.997 422.624 333.082 422.641 333.185 422.624C333.288 422.607 333.39 422.556 333.493 422.504C333.596 422.453 333.699 422.367 333.784 422.282C333.887 422.196 333.973 422.076 334.058 421.939C334.144 421.802 334.212 421.648 334.264 421.46C334.315 421.272 334.349 421.066 334.366 420.827C334.366 420.775 334.366 420.707 334.366 420.604V420.039C334.366 419.954 334.366 419.868 334.366 419.817Z" fill="#455A64"/>
<path d="M337.465 416.171C337.585 415.88 337.722 415.641 337.893 415.435C338.064 415.23 338.236 415.059 338.407 414.956C338.715 414.785 338.972 414.716 339.16 414.785C339.349 414.853 339.503 414.99 339.622 415.213C339.691 415.024 339.759 414.853 339.862 414.665C339.948 414.494 340.05 414.34 340.153 414.186C340.256 414.032 340.359 413.912 340.478 413.809C340.598 413.706 340.701 413.621 340.804 413.552C341.078 413.398 341.317 413.33 341.506 413.364C341.694 413.398 341.848 413.501 341.951 413.672C342.071 413.843 342.139 414.083 342.191 414.374C342.242 414.665 342.259 414.99 342.259 415.35V418.379C342.259 418.379 342.242 418.55 342.208 418.619C342.173 418.704 342.122 418.756 342.071 418.79L341.523 419.115C341.523 419.115 341.42 419.149 341.386 419.115C341.352 419.081 341.334 419.013 341.334 418.927V415.949C341.334 415.435 341.266 415.11 341.146 414.99C341.026 414.853 340.838 414.87 340.615 414.99C340.427 415.11 340.256 415.298 340.119 415.572C339.982 415.846 339.913 416.24 339.896 416.719V419.749C339.896 419.749 339.879 419.92 339.845 419.988C339.811 420.057 339.759 420.125 339.708 420.159L339.16 420.485C339.16 420.485 339.057 420.519 339.023 420.485C338.989 420.45 338.972 420.382 338.972 420.313V417.335C338.972 416.822 338.903 416.514 338.784 416.377C338.664 416.257 338.475 416.257 338.253 416.377C338.047 416.496 337.876 416.702 337.739 416.976C337.602 417.267 337.534 417.66 337.534 418.157V421.135C337.534 421.135 337.517 421.306 337.482 421.375C337.448 421.46 337.397 421.512 337.345 421.546L336.798 421.871C336.798 421.871 336.695 421.905 336.661 421.871C336.626 421.837 336.609 421.768 336.609 421.683V416.445C336.609 416.445 336.626 416.274 336.661 416.205C336.695 416.12 336.746 416.069 336.798 416.034L337.345 415.709C337.345 415.709 337.448 415.675 337.482 415.709C337.517 415.743 337.534 415.812 337.534 415.897V416.154L337.465 416.171Z" fill="#455A64"/>
<path d="M375.165 392.807C375.456 392.636 375.713 392.55 375.952 392.55C376.192 392.55 376.398 392.585 376.569 392.687C376.74 392.79 376.877 392.927 376.98 393.115C377.082 393.303 377.134 393.509 377.134 393.714C377.134 393.783 377.134 393.834 377.1 393.903C377.065 393.971 377.031 394.005 376.997 394.022L376.124 394.536C376.124 394.536 376.004 394.587 375.97 394.587C375.935 394.587 375.884 394.57 375.85 394.536C375.85 394.536 375.816 394.502 375.781 394.467C375.747 394.433 375.713 394.416 375.661 394.382C375.61 394.365 375.542 394.348 375.456 394.365C375.37 394.365 375.268 394.416 375.165 394.484C375.079 394.536 374.994 394.587 374.925 394.656C374.84 394.724 374.771 394.793 374.72 394.861C374.651 394.929 374.617 395.015 374.566 395.101C374.531 395.186 374.514 395.289 374.514 395.392C374.514 395.494 374.531 395.563 374.583 395.614C374.617 395.666 374.703 395.683 374.805 395.683C374.908 395.683 375.045 395.666 375.199 395.614C375.37 395.58 375.576 395.511 375.815 395.46C376.055 395.392 376.278 395.375 376.466 395.375C376.654 395.375 376.809 395.443 376.928 395.546C377.048 395.648 377.151 395.802 377.202 396.008C377.271 396.213 377.288 396.47 377.288 396.795C377.288 397.155 377.237 397.497 377.134 397.822C377.031 398.165 376.894 398.473 376.706 398.781C376.517 399.089 376.295 399.363 376.038 399.619C375.781 399.876 375.507 400.082 375.199 400.253C374.891 400.424 374.617 400.527 374.36 400.544C374.103 400.561 373.898 400.527 373.71 400.424C373.521 400.321 373.384 400.184 373.282 399.979C373.179 399.791 373.128 399.551 373.128 399.294C373.128 399.226 373.128 399.174 373.162 399.106C373.196 399.037 373.23 399.003 373.265 398.986L374.138 398.473C374.138 398.473 374.258 398.421 374.292 398.421C374.326 398.421 374.36 398.438 374.394 398.473C374.412 398.473 374.446 398.524 374.48 398.558C374.514 398.592 374.566 398.644 374.617 398.661C374.686 398.695 374.754 398.712 374.84 398.695C374.925 398.695 375.045 398.644 375.182 398.575C375.422 398.438 375.61 398.284 375.781 398.113C375.935 397.942 376.021 397.754 376.021 397.548C376.021 397.446 375.987 397.377 375.935 397.343C375.884 397.309 375.798 397.292 375.679 397.309C375.559 397.309 375.422 397.343 375.233 397.394C375.045 397.446 374.84 397.497 374.583 397.565C374.121 397.685 373.778 397.617 373.573 397.394C373.367 397.155 373.247 396.744 373.247 396.162C373.247 395.871 373.299 395.563 373.384 395.238C373.47 394.912 373.607 394.604 373.761 394.296C373.932 393.988 374.121 393.714 374.36 393.457C374.6 393.201 374.857 392.995 375.148 392.824L375.165 392.807Z" fill="white"/>
<path d="M382.15 388.87C382.15 388.87 382.236 388.853 382.27 388.87C382.304 388.905 382.321 388.956 382.321 389.042V393.167C382.321 393.646 382.27 394.091 382.167 394.519C382.065 394.947 381.928 395.323 381.739 395.683C381.551 396.042 381.345 396.35 381.089 396.624C380.832 396.898 380.558 397.121 380.267 397.292C379.959 397.463 379.685 397.566 379.428 397.583C379.171 397.583 378.966 397.531 378.777 397.394C378.606 397.257 378.452 397.018 378.366 396.71C378.264 396.402 378.212 396.008 378.212 395.529V391.404C378.212 391.404 378.23 391.25 378.264 391.181C378.298 391.113 378.349 391.061 378.384 391.027L379.274 390.514C379.274 390.514 379.359 390.496 379.394 390.514C379.428 390.531 379.445 390.599 379.445 390.685V394.776C379.445 395.186 379.514 395.477 379.651 395.631C379.787 395.785 379.976 395.785 380.25 395.631C380.524 395.477 380.712 395.238 380.849 394.93C380.986 394.622 381.054 394.262 381.054 393.851V389.76C381.054 389.76 381.072 389.606 381.106 389.538C381.14 389.469 381.191 389.418 381.226 389.384L382.116 388.87H382.15Z" fill="white"/>
<path d="M383.742 395.203C383.742 395.203 383.657 395.22 383.623 395.203C383.588 395.169 383.571 395.118 383.571 395.032V388.34C383.571 388.34 383.588 388.185 383.623 388.117C383.657 388.049 383.708 387.98 383.742 387.963L385.917 386.713C386.225 386.542 386.465 386.457 386.67 386.474C386.875 386.474 387.047 386.559 387.167 386.679C387.286 386.816 387.372 386.987 387.44 387.227C387.492 387.449 387.526 387.689 387.526 387.946C387.526 388.151 387.526 388.322 387.475 388.494C387.44 388.665 387.406 388.802 387.372 388.939C387.338 389.076 387.286 389.178 387.252 389.264C387.201 389.349 387.167 389.418 387.149 389.469C387.321 389.555 387.44 389.692 387.509 389.897C387.577 390.103 387.612 390.376 387.612 390.719C387.612 391.01 387.577 391.301 387.526 391.592C387.475 391.9 387.389 392.191 387.269 392.465C387.149 392.756 386.978 393.012 386.79 393.252C386.584 393.492 386.345 393.697 386.054 393.868L383.742 395.203ZM386.259 388.699C386.259 388.528 386.225 388.391 386.156 388.322C386.088 388.254 385.985 388.254 385.848 388.322L384.804 388.922V390.103L385.848 389.503C385.985 389.418 386.088 389.315 386.156 389.161C386.225 389.007 386.259 388.853 386.259 388.665V388.699ZM384.804 392.995L385.917 392.362C386.054 392.276 386.156 392.157 386.242 392.002C386.328 391.831 386.362 391.66 386.362 391.489C386.362 391.318 386.328 391.181 386.242 391.112C386.156 391.044 386.054 391.044 385.917 391.112L384.804 391.746V393.012V392.995Z" fill="white"/>
<path d="M390.437 383.992C390.728 383.821 390.984 383.735 391.224 383.735C391.464 383.735 391.669 383.77 391.84 383.872C392.012 383.975 392.149 384.112 392.251 384.3C392.354 384.488 392.405 384.694 392.405 384.899C392.405 384.968 392.405 385.019 392.354 385.088C392.32 385.156 392.286 385.19 392.251 385.207L391.378 385.721C391.378 385.721 391.258 385.772 391.224 385.772C391.19 385.772 391.138 385.755 391.104 385.721C391.104 385.721 391.07 385.687 391.036 385.652C391.001 385.618 390.967 385.601 390.916 385.567C390.865 385.55 390.796 385.533 390.71 385.55C390.625 385.55 390.539 385.601 390.419 385.67C390.334 385.721 390.248 385.772 390.18 385.841C390.094 385.909 390.026 385.978 389.974 386.046C389.906 386.115 389.872 386.2 389.82 386.286C389.786 386.371 389.769 386.474 389.769 386.577C389.769 386.679 389.786 386.748 389.837 386.799C389.872 386.851 389.957 386.868 390.06 386.868C390.163 386.868 390.3 386.851 390.454 386.799C390.625 386.765 390.83 386.697 391.07 386.645C391.31 386.577 391.532 386.56 391.721 386.56C391.909 386.56 392.063 386.628 392.183 386.731C392.303 386.833 392.405 386.987 392.457 387.193C392.525 387.398 392.542 387.655 392.542 387.98C392.542 388.34 392.491 388.682 392.388 389.007C392.286 389.35 392.149 389.658 391.96 389.966C391.772 390.274 391.549 390.548 391.31 390.804C391.053 391.061 390.779 391.267 390.471 391.438C390.163 391.609 389.889 391.712 389.632 391.729C389.375 391.746 389.17 391.729 388.981 391.609C388.793 391.506 388.656 391.369 388.553 391.164C388.451 390.976 388.399 390.736 388.399 390.479C388.399 390.411 388.399 390.359 388.451 390.291C388.485 390.223 388.519 390.188 388.553 390.171L389.444 389.658C389.444 389.658 389.563 389.606 389.598 389.606C389.632 389.606 389.666 389.623 389.7 389.658C389.717 389.658 389.752 389.709 389.786 389.743C389.82 389.777 389.872 389.829 389.923 389.846C389.991 389.88 390.06 389.897 390.145 389.88C390.231 389.88 390.351 389.829 390.488 389.76C390.728 389.623 390.916 389.469 391.087 389.298C391.241 389.127 391.327 388.939 391.327 388.733C391.327 388.631 391.293 388.562 391.241 388.528C391.19 388.494 391.104 388.477 390.984 388.494C390.865 388.494 390.728 388.528 390.539 388.579C390.351 388.631 390.145 388.682 389.889 388.75C389.426 388.87 389.084 388.802 388.879 388.579C388.673 388.34 388.553 387.929 388.553 387.347C388.553 387.056 388.605 386.748 388.69 386.423C388.776 386.097 388.913 385.789 389.067 385.481C389.238 385.173 389.426 384.899 389.666 384.643C389.906 384.386 390.163 384.18 390.454 384.009L390.437 383.992Z" fill="white"/>
<path d="M394.648 384.42C394.648 384.506 394.648 384.643 394.648 384.797C394.648 384.951 394.648 385.122 394.648 385.293C394.648 385.464 394.648 385.635 394.648 385.789C394.648 385.944 394.648 386.08 394.648 386.166C394.648 386.32 394.682 386.457 394.717 386.594C394.751 386.714 394.802 386.816 394.871 386.885C394.939 386.953 395.025 386.988 395.128 387.005C395.23 387.005 395.35 386.97 395.504 386.885C395.658 386.799 395.778 386.697 395.881 386.577C395.984 386.457 396.052 386.354 396.121 386.234C396.189 386.115 396.24 385.995 396.275 385.892C396.309 385.772 396.326 385.67 396.343 385.584C396.36 385.464 396.395 385.362 396.412 385.31C396.446 385.259 396.497 385.19 396.566 385.156L397.456 384.643C397.456 384.643 397.525 384.626 397.559 384.643C397.593 384.677 397.61 384.711 397.61 384.78C397.61 385.139 397.542 385.498 397.439 385.875C397.336 386.252 397.182 386.611 396.994 386.936C396.805 387.279 396.583 387.587 396.326 387.861C396.069 388.134 395.795 388.374 395.504 388.545C395.179 388.734 394.888 388.819 394.631 388.819C394.374 388.819 394.169 388.733 393.981 388.597C393.809 388.443 393.655 388.22 393.57 387.946C393.467 387.655 393.416 387.33 393.398 386.953C393.398 386.68 393.398 386.371 393.398 386.046C393.398 385.721 393.398 385.413 393.398 385.105C393.398 384.728 393.467 384.335 393.553 383.924C393.655 383.53 393.792 383.154 393.963 382.794C394.135 382.435 394.357 382.109 394.614 381.818C394.871 381.527 395.162 381.288 395.487 381.1C395.778 380.928 396.052 380.843 396.309 380.826C396.566 380.826 396.788 380.86 396.977 380.98C397.165 381.1 397.319 381.288 397.422 381.527C397.525 381.784 397.576 382.075 397.593 382.418C397.593 382.486 397.593 382.537 397.542 382.606C397.507 382.674 397.473 382.709 397.439 382.726L396.549 383.239C396.549 383.239 396.429 383.29 396.395 383.256C396.36 383.222 396.343 383.171 396.326 383.068C396.309 382.999 396.275 382.914 396.258 382.845C396.223 382.777 396.172 382.708 396.104 382.657C396.035 382.606 395.967 382.589 395.864 382.589C395.761 382.589 395.641 382.64 395.487 382.726C395.333 382.811 395.213 382.914 395.111 383.051C395.008 383.171 394.922 383.308 394.854 383.462C394.785 383.616 394.734 383.77 394.7 383.924C394.665 384.095 394.648 384.249 394.631 384.42H394.648Z" fill="white"/>
<path d="M400.623 378.206C400.914 378.035 401.188 377.933 401.411 377.898C401.651 377.864 401.839 377.898 402.01 377.984C402.181 378.087 402.301 378.258 402.387 378.515C402.472 378.771 402.524 379.097 402.524 379.49C402.524 380.004 402.455 380.483 402.318 380.894C402.181 381.322 401.976 381.698 401.719 382.023L402.558 384.009C402.558 384.009 402.575 384.077 402.575 384.112C402.575 384.18 402.575 384.231 402.524 384.3C402.489 384.368 402.455 384.403 402.421 384.42L401.514 384.95C401.428 385.002 401.36 385.002 401.325 384.967C401.291 384.933 401.257 384.882 401.24 384.831L400.486 383.05L399.87 383.41V385.635C399.87 385.635 399.853 385.789 399.819 385.858C399.784 385.926 399.733 385.977 399.699 386.012L398.826 386.525C398.826 386.525 398.74 386.542 398.689 386.525C398.654 386.491 398.637 386.44 398.637 386.354V379.661C398.637 379.661 398.654 379.507 398.689 379.439C398.723 379.37 398.774 379.302 398.826 379.285L400.658 378.224L400.623 378.206ZM399.87 381.784L400.623 381.339C400.812 381.236 400.966 381.082 401.086 380.894C401.205 380.705 401.274 380.483 401.274 380.192C401.274 379.901 401.205 379.73 401.086 379.696C400.966 379.661 400.812 379.696 400.623 379.798L399.87 380.243V381.784Z" fill="white"/>
<path d="M403.825 383.615C403.825 383.615 403.739 383.633 403.705 383.615C403.671 383.581 403.654 383.53 403.654 383.444V376.752C403.654 376.752 403.671 376.598 403.705 376.529C403.739 376.461 403.791 376.409 403.825 376.375L404.715 375.862C404.715 375.862 404.801 375.844 404.835 375.862C404.869 375.879 404.886 375.947 404.886 376.033V382.725C404.886 382.725 404.869 382.879 404.835 382.948C404.801 383.016 404.749 383.068 404.715 383.102L403.825 383.615Z" fill="white"/>
<path d="M406.342 382.161C406.342 382.161 406.256 382.178 406.222 382.161C406.188 382.126 406.17 382.075 406.17 381.989V375.297C406.17 375.297 406.188 375.143 406.222 375.074C406.256 375.006 406.307 374.955 406.342 374.92L408.516 373.671C408.824 373.5 409.064 373.414 409.269 373.414C409.475 373.414 409.646 373.5 409.766 373.619C409.886 373.756 409.971 373.928 410.04 374.167C410.091 374.39 410.125 374.629 410.125 374.886C410.125 375.091 410.125 375.263 410.074 375.434C410.04 375.605 410.005 375.742 409.971 375.879C409.937 375.999 409.886 376.118 409.851 376.204C409.8 376.29 409.766 376.358 409.749 376.409C409.92 376.495 410.04 376.632 410.108 376.837C410.177 377.043 410.211 377.317 410.211 377.659C410.211 377.95 410.177 378.224 410.125 378.532C410.074 378.823 409.988 379.131 409.851 379.405C409.731 379.679 409.56 379.953 409.372 380.192C409.167 380.432 408.927 380.637 408.636 380.808L406.324 382.143L406.342 382.161ZM408.858 375.656C408.858 375.485 408.824 375.348 408.756 375.28C408.687 375.211 408.584 375.211 408.447 375.28L407.403 375.879V377.06L408.447 376.461C408.584 376.375 408.687 376.273 408.756 376.118C408.824 375.964 408.858 375.81 408.858 375.622V375.656ZM407.403 379.953L408.516 379.319C408.653 379.234 408.756 379.114 408.841 378.96C408.927 378.789 408.961 378.617 408.961 378.446C408.961 378.275 408.927 378.138 408.841 378.07C408.756 378.001 408.653 378.001 408.516 378.07L407.403 378.703V379.97V379.953Z" fill="white"/>
<path d="M414.662 375.708C414.662 375.708 414.748 375.691 414.782 375.708C414.816 375.742 414.833 375.793 414.833 375.879V376.974C414.833 376.974 414.816 377.128 414.782 377.197C414.748 377.265 414.697 377.317 414.662 377.351L411.478 379.182C411.478 379.182 411.392 379.199 411.358 379.182C411.324 379.148 411.307 379.097 411.307 379.011V372.319C411.307 372.319 411.324 372.165 411.358 372.096C411.392 372.028 411.444 371.976 411.478 371.942L414.611 370.128C414.611 370.128 414.697 370.111 414.748 370.128C414.782 370.162 414.799 370.213 414.799 370.299V371.394C414.799 371.394 414.782 371.548 414.748 371.617C414.714 371.685 414.662 371.737 414.611 371.771L412.539 372.969V374.082L414.474 372.969C414.474 372.969 414.56 372.935 414.594 372.969C414.628 373.003 414.645 373.055 414.645 373.14V374.236C414.645 374.236 414.628 374.39 414.594 374.458C414.56 374.544 414.508 374.595 414.474 374.612L412.539 375.725V376.889L414.662 375.656V375.708Z" fill="white"/>
<path d="M675.393 188.829L636.529 211.252V323.296C636.529 341.834 626.65 358.967 610.625 368.262V256.114L584.722 241.154L545.858 263.577V375.741C545.858 392.276 554.778 405.73 567.293 413.004C571.727 415.589 588.985 425.533 593.402 428.067C605.986 435.324 622.165 436.368 636.546 428.067C676.625 404.925 701.313 362.168 701.313 315.902V203.755L675.41 188.795L675.393 188.829Z" fill="#8796F7"/>
<path d="M571.761 278.554V390.718C571.761 423.942 607.749 444.721 636.529 428.101C676.608 404.959 701.296 362.202 701.296 315.936V203.789L662.432 226.212V338.256C662.432 356.828 652.519 373.996 636.443 383.273C624.972 389.897 610.625 381.612 610.625 368.364V256.114L571.761 278.537V278.554Z" fill="#8796F7"/>
<path opacity="0.15" d="M701.296 203.789L662.432 226.212V338.256C662.432 356.828 652.537 373.978 636.443 383.273C633.67 384.865 630.742 385.601 627.866 385.601C618.877 385.601 610.608 378.412 610.608 368.364V368.244C626.65 358.95 636.512 341.834 636.512 323.296V211.252L675.376 188.812L701.279 203.789H701.296Z" fill="black"/>
<path opacity="0.15" d="M592.409 427.536C586.879 424.352 571.453 415.452 567.276 413.038C554.778 405.747 545.841 392.31 545.841 375.776V263.611L584.722 241.188L610.608 256.148L571.744 278.571V390.735C571.744 406.928 580.287 420.176 592.392 427.553L592.409 427.536Z" fill="black"/>
<path d="M636.529 211.269L662.432 226.212L701.296 203.789L675.393 188.829L636.529 211.269Z" fill="#455A64"/>
<path d="M584.773 241.171L610.694 256.131L571.761 278.554L545.858 263.611L584.773 241.171Z" fill="#455A64"/>
<path d="M662.432 226.212V256.131L701.296 233.692V203.789L662.432 226.212Z" fill="#37474F"/>
<path d="M636.529 211.269L662.432 226.212V256.131L636.529 241.172V211.269Z" fill="#263238"/>
<path d="M571.761 278.554V308.474L610.625 286.034V256.131L571.761 278.554Z" fill="#37474F"/>
<path d="M545.858 263.611L571.761 278.554V308.542L545.858 293.582V263.611Z" fill="#263238"/>
<path d="M657.433 65.8299C655.396 60.6436 652.571 57.0149 648.976 54.9267C648.205 54.4816 638.19 48.6963 635.964 47.4125C635.211 46.9675 634.423 46.608 633.584 46.3171C628.79 44.5883 623.038 45.6666 616.309 49.5521C606.105 55.4402 597.631 63.8272 590.885 74.7133C584.14 85.5994 579.175 97.29 576.007 109.768C572.823 122.246 571.248 134.091 571.248 145.285C571.248 157.591 572.754 167.091 575.785 173.784C578.028 178.73 580.801 182.188 584.123 184.139C585.287 184.824 594.994 190.387 597.083 191.619C598.247 192.304 599.48 192.817 600.764 193.125C605.763 194.358 611.242 193.262 617.165 189.839C621.069 187.58 625.144 184.122 629.39 179.449C633.635 174.776 637.248 169.402 640.21 163.343L635.827 154.904L624.835 151.207C626.907 147.921 628.688 144.514 630.126 140.971C630.913 143.95 632.197 145.918 633.995 146.859C635.793 147.818 637.813 147.647 640.056 146.346C644.165 143.967 647.828 139.842 651.03 133.971C654.232 128.1 656.714 121.27 658.495 113.482C660.258 105.711 661.148 97.7864 661.148 89.7245C661.148 80.105 659.916 72.1287 657.433 65.8299ZM616.96 114.098L616.481 120.551C616.035 124.967 614.512 127.792 612.714 129.64C612.868 127.124 613.279 124.557 613.964 121.955C614.717 119.062 615.727 116.443 616.977 114.098H616.96ZM605.849 166.389C603.041 168.015 600.404 168.991 597.922 169.351C597.733 168.974 597.528 168.597 597.357 168.204C595.747 164.609 594.72 159.765 594.292 153.723C594.669 153.963 605.66 160.313 607.526 161.391C607.818 161.563 608.109 161.699 608.417 161.819C609.324 162.179 610.3 162.316 611.31 162.264C609.495 163.942 607.681 165.345 605.866 166.389H605.849ZM630.691 74.9701L620.213 81.0122L619.323 86.1814L614.803 83.5455C618.518 79.3519 622.832 75.843 627.695 73.0359C630.348 71.5126 632.779 70.5369 634.988 70.109C635.176 70.5198 635.365 70.9648 635.536 71.4099C636.392 73.6179 637.042 76.1169 637.47 78.8898L630.691 74.9701Z" fill="#8796F7"/>
<path d="M640.741 120.945C640.689 121.527 640.655 122.331 640.655 123.358C640.655 126.593 641.374 127.791 642.846 126.953C644.148 126.2 645.432 124.334 646.716 121.321C648 118.309 649.027 114.543 649.849 110.007C650.653 105.472 651.064 100.645 651.064 95.5611C651.064 88.9028 650.208 83.357 648.479 78.9239C646.767 74.5078 644.148 71.6836 640.672 70.4512C637.18 69.2188 632.865 70.1088 627.695 73.07C619.151 77.9996 612.389 85.0516 607.372 94.2431C602.373 103.418 598.898 112.729 596.946 122.143C594.994 131.557 594.018 139.687 594.018 146.534C594.018 156.068 595.131 163.308 597.34 168.221C599.548 173.15 602.527 175.992 606.243 176.762C609.975 177.532 614.152 176.574 618.775 173.903C621.685 172.226 624.613 169.727 627.523 166.423C630.434 163.12 633.208 159.286 635.81 154.904L640.193 163.342C637.231 169.402 633.618 174.776 629.372 179.449C625.127 184.122 621.052 187.579 617.148 189.839C611.207 193.262 605.746 194.358 600.747 193.125C595.748 191.893 591.741 187.939 588.711 181.246C585.681 174.554 584.174 165.071 584.174 152.747C584.174 141.553 585.766 129.709 588.933 117.231C592.118 104.753 597.066 93.0621 603.811 82.176C610.557 71.2899 619.032 62.9028 629.236 57.0147C635.964 53.1293 641.716 52.068 646.51 53.7797C651.304 55.5085 654.934 59.5137 657.416 65.8126C659.881 72.1115 661.131 80.0878 661.131 89.7072C661.131 97.7691 660.241 105.677 658.478 113.465C656.714 121.253 654.215 128.065 651.013 133.953C647.811 139.842 644.148 143.949 640.039 146.329C637.796 147.63 635.776 147.784 633.978 146.842C632.18 145.884 630.896 143.932 630.109 140.954C628.448 145.062 626.342 148.999 623.825 152.782C621.292 156.547 618.758 159.183 616.207 160.655C613.296 162.333 610.677 162.726 608.4 161.836C606.105 160.929 604.291 158.738 602.972 155.246C601.637 151.755 600.986 147.099 600.986 141.262C600.986 134.227 601.825 127.398 603.486 120.791C605.147 114.184 607.475 108.398 610.471 103.418C613.467 98.4538 616.926 94.8422 620.829 92.5828C623.894 90.8027 626.222 90.3063 627.78 91.0766C629.338 91.8468 630.725 93.4044 631.923 95.7665L633.173 88.5262L643.651 82.4841L640.758 120.945H640.741ZM625.623 137.171C626.959 134.929 628.208 131.882 629.407 128.031C630.708 122.314 631.102 117.145 630.571 112.489C630.16 109.768 629.253 107.919 627.883 106.961C626.496 106.002 624.767 106.122 622.695 107.32C620.829 108.398 619.117 110.264 617.576 112.917C616.036 115.57 614.82 118.583 613.947 121.955C613.057 125.344 612.611 128.647 612.611 131.882C612.611 136.144 613.348 139.277 614.837 141.296C616.327 143.316 618.244 143.641 620.59 142.289C622.627 141.125 624.305 139.414 625.623 137.154V137.171Z" fill="#8796F7"/>
<path opacity="0.4" d="M620.213 81.0294L633.173 88.5093L643.634 82.4672L630.691 74.9873L620.213 81.0294Z" fill="black"/>
<path opacity="0.5" d="M619.323 86.2156L628.26 91.3505C629.869 92.3946 630.982 93.918 631.906 95.7666L633.156 88.5263L620.213 81.0464L619.323 86.2156Z" fill="black"/>
<path opacity="0.5" d="M602.955 155.247C601.637 151.755 600.969 147.082 600.969 141.245C600.969 134.21 601.808 127.398 603.469 120.774C604.154 118.052 604.958 115.451 605.883 113.003L600.387 109.836C598.949 113.91 597.802 118.001 596.946 122.109C594.977 131.523 594.018 139.653 594.018 146.5C594.018 149.05 594.104 151.43 594.258 153.638C594.258 153.672 594.258 153.706 594.258 153.723L607.475 161.391C605.609 160.313 604.102 158.259 602.938 155.247H602.955Z" fill="black"/>
<path opacity="0.4" d="M614.786 83.5796C611.995 86.7291 609.53 90.2893 607.372 94.2261C604.565 99.3953 602.236 104.599 600.387 109.836L605.883 113.003C607.184 109.528 608.708 106.327 610.471 103.401C613.467 98.4196 616.909 94.808 620.812 92.5658C623.894 90.8028 626.205 90.2893 627.763 91.0595L614.786 83.5625V83.5796Z" fill="black"/>
<path opacity="0.6" d="M630.571 112.489C631.119 117.641 630.571 122.4 629.407 128.031C628.208 131.865 626.958 134.912 625.606 137.171C624.288 139.414 622.61 141.125 620.572 142.306C618.227 143.641 616.309 143.333 614.837 141.297C613.348 139.294 612.628 136.144 612.628 131.9C612.628 131.146 612.628 130.393 612.697 129.64C614.392 127.98 615.916 125.378 616.481 120.568L616.96 114.115C617.148 113.722 617.371 113.311 617.593 112.934C619.117 110.281 620.829 108.416 622.713 107.337C624.784 106.139 626.53 106.019 627.9 106.995C629.287 107.954 630.177 109.802 630.588 112.507L630.571 112.489Z" fill="black"/>
<path opacity="0.4" d="M648.274 54.5331C647.692 54.2421 647.127 54.0025 646.527 53.7799C641.751 52.0512 635.981 53.1466 629.253 57.015C619.049 62.9202 610.574 71.2901 603.828 82.1933C599.274 89.5534 595.525 97.273 592.597 105.352L579.637 97.8721C582.565 89.7931 586.314 82.0564 590.885 74.7134C597.631 63.8273 606.106 55.4402 616.309 49.535C623.021 45.6667 628.773 44.5713 633.584 46.3C634.406 46.6081 635.193 46.9676 635.964 47.3955C637.916 48.5252 645.825 53.0782 648.291 54.5159L648.274 54.5331Z" fill="white"/>
<path opacity="0.5" d="M635.827 154.887C633.207 159.269 630.451 163.12 627.541 166.406C624.63 169.71 621.719 172.209 618.809 173.886C614.169 176.557 609.992 177.515 606.26 176.762C602.835 176.06 600.062 173.613 597.922 169.385C600.387 169.025 603.041 168.05 605.849 166.424C607.663 165.379 609.478 163.976 611.31 162.299C612.817 162.23 614.477 161.699 616.241 160.672C618.792 159.2 621.326 156.582 623.86 152.799C624.202 152.268 624.544 151.755 624.887 151.224L635.861 154.904L635.827 154.887Z" fill="black"/>
<path opacity="0.15" d="M596.586 191.328C593.779 189.702 585.184 184.773 584.088 184.139C580.767 182.171 577.993 178.713 575.768 173.784C572.737 167.108 571.231 157.609 571.231 145.302C571.231 134.091 572.823 122.246 575.99 109.768C577.035 105.729 578.233 101.757 579.637 97.8892L592.597 105.369C591.193 109.237 589.978 113.208 588.951 117.248C585.766 129.726 584.191 141.57 584.191 152.782C584.191 165.089 585.698 174.588 588.711 181.264C590.834 185.988 593.47 189.326 596.586 191.345V191.328Z" fill="black"/>
<path opacity="0.6" d="M651.047 95.5443C651.047 100.628 650.653 105.438 649.832 109.991C649.027 114.526 647.983 118.309 646.699 121.305C645.415 124.317 644.131 126.183 642.846 126.936C641.374 127.775 640.655 126.594 640.655 123.341C640.655 122.314 640.655 121.527 640.741 120.928L640.98 117.659L643.634 82.4673L637.471 78.8899C637.043 76.117 636.392 73.6351 635.519 71.41C635.365 70.965 635.176 70.5371 634.971 70.1263C637.077 69.7326 638.977 69.8353 640.655 70.4344C644.131 71.6667 646.75 74.491 648.462 78.907C650.174 83.3402 651.03 88.8688 651.03 95.5443H651.047Z" fill="black"/>
<path d="M84.8842 205.056L160.506 181.555L102.347 221.847L84.8842 205.056Z" fill="#8796F7"/>
<path d="M160.506 181.555L79.0803 194.991L61.6343 178.2L160.506 181.555Z" fill="#8796F7"/>
<path d="M79.0803 194.992V215.121L84.8842 205.056L160.506 181.555L79.0803 194.992Z" fill="#8796F7"/>
<path opacity="0.25" d="M79.0803 194.992V215.121L84.8842 205.056L160.506 181.555L79.0803 194.992Z" fill="black"/>
<path d="M79.0803 215.121L90.7052 210.653L84.8842 205.056L79.0803 215.121Z" fill="#8796F7"/>
<path opacity="0.25" d="M84.8842 205.056L90.7052 210.653L88.8562 211.372L84.8842 205.056Z" fill="black"/>
<path d="M65.7946 212.707C65.3495 212.707 64.9044 212.467 64.6818 212.057C64.3394 211.44 64.5448 210.653 65.1612 210.311C66.702 209.438 68.26 208.633 69.7838 207.897C70.4172 207.589 71.1876 207.863 71.4958 208.496C71.804 209.13 71.5301 209.9 70.8966 210.208C69.4071 210.91 67.9005 211.697 66.4281 212.536C66.2227 212.656 66.0172 212.707 65.7946 212.707Z" fill="#E0E0E0"/>
<path d="M51.225 326.361C50.9511 326.361 50.6771 326.275 50.4374 326.087C47.5954 323.896 44.9588 321.431 42.5962 318.761C42.1339 318.23 42.1682 317.426 42.6989 316.947C43.2297 316.467 44.0343 316.519 44.5137 317.049C46.7736 319.6 49.3075 321.962 52.0125 324.05C52.5775 324.478 52.6803 325.282 52.2351 325.847C51.9783 326.173 51.6017 326.344 51.225 326.344V326.361ZM38.2647 312.223C37.8366 312.223 37.4258 312.017 37.1861 311.641C35.2685 308.679 33.5907 305.496 32.1868 302.158C31.9129 301.508 32.2211 300.755 32.8717 300.481C33.5222 300.207 34.2756 300.515 34.5495 301.165C35.902 304.366 37.5114 307.413 39.3433 310.254C39.7199 310.853 39.5487 311.641 38.9666 312.034C38.744 312.171 38.5044 312.24 38.2647 312.24V312.223ZM30.509 294.661C29.944 294.661 29.4304 294.284 29.2763 293.72C28.3518 290.331 27.667 286.805 27.2561 283.227C27.1705 282.525 27.6841 281.892 28.386 281.807C29.088 281.721 29.7215 282.234 29.8071 282.936C30.218 286.394 30.8685 289.8 31.7588 293.052C31.9471 293.737 31.5362 294.439 30.8514 294.627C30.7316 294.661 30.6289 294.678 30.509 294.678V294.661ZM28.0094 274.327H26.7253C26.7253 270.715 26.965 267.172 27.4444 263.68C27.5471 262.978 28.1977 262.482 28.8825 262.585C29.5845 262.687 30.081 263.321 29.9783 264.022C29.516 267.394 29.2934 270.835 29.2934 274.241L28.0094 274.327ZM30.4405 256.56C30.3207 256.56 30.218 256.56 30.0981 256.508C29.4133 256.32 29.0024 255.618 29.1907 254.934C30.1152 251.493 31.3479 248.104 32.8032 244.852C33.0942 244.202 33.8647 243.928 34.4981 244.219C35.1487 244.51 35.4226 245.28 35.1316 245.913C33.7106 249.046 32.5464 252.298 31.6561 255.601C31.502 256.166 30.9884 256.543 30.4234 256.543L30.4405 256.56ZM38.1106 238.964C37.888 238.964 37.6483 238.895 37.4429 238.776C36.8437 238.399 36.6553 237.612 37.032 237.013C38.881 234.017 41.004 231.125 43.3153 228.369C43.7775 227.821 44.5822 227.753 45.13 228.215C45.6779 228.677 45.7464 229.481 45.2841 230.029C43.0413 232.682 41.004 235.489 39.2234 238.365C38.9837 238.759 38.5557 238.964 38.1277 238.964H38.1106ZM50.3176 224.124C49.9752 224.124 49.6328 223.987 49.376 223.713C48.8966 223.2 48.9137 222.378 49.4273 221.899C51.9954 219.485 54.769 217.192 57.6624 215.103C58.2273 214.693 59.032 214.813 59.46 215.394C59.8709 215.976 59.7511 216.764 59.169 217.192C56.3612 219.211 53.6733 221.437 51.1908 223.764C50.9339 224.004 50.6258 224.107 50.3176 224.107V224.124Z" fill="#E0E0E0"/>
<path d="M63.1752 333.515C63.004 333.515 62.8157 333.481 62.6445 333.395C61.0522 332.677 59.46 331.889 57.9534 331.05C57.3371 330.708 57.1145 329.921 57.4569 329.305C57.7993 328.688 58.5869 328.466 59.2032 328.808C60.6585 329.613 62.1651 330.366 63.7059 331.068C64.3565 331.359 64.6476 332.112 64.3565 332.762C64.1511 333.241 63.6717 333.515 63.1923 333.515H63.1752Z" fill="#E0E0E0"/>
<path d="M695.081 147.989L755.654 109.22L782.345 117.778L695.081 147.989Z" fill="#8796F7"/>
<path d="M695.081 147.989L747.436 104.342L735.811 90.9229L695.081 147.989Z" fill="#8796F7"/>
<path d="M747.436 104.342V114.475L695.081 147.989L747.436 104.342Z" fill="#8796F7"/>
<path opacity="0.25" d="M747.436 104.342V114.475L695.081 147.989L747.436 104.342Z" fill="black"/>
<path d="M756.168 103.504C755.826 103.504 755.483 103.367 755.226 103.093C754.747 102.579 754.781 101.758 755.295 101.278C757.093 99.6181 758.753 97.8037 760.243 95.8867C760.671 95.3218 761.475 95.2191 762.04 95.6642C762.605 96.0921 762.708 96.8966 762.263 97.4614C760.688 99.4811 758.942 101.415 757.024 103.178C756.784 103.401 756.459 103.521 756.151 103.521L756.168 103.504ZM765.807 90.7175C765.619 90.7175 765.413 90.6661 765.242 90.5806C764.608 90.2553 764.352 89.4851 764.66 88.8518C766.149 85.8906 767.279 82.7412 768.05 79.5062C768.204 78.8215 768.906 78.3936 769.591 78.5477C770.275 78.7188 770.703 79.4035 770.549 80.0881C769.745 83.5286 768.529 86.8663 766.954 89.9986C766.731 90.4436 766.269 90.7004 765.807 90.7004V90.7175ZM770.481 72.6253C770.481 72.6253 770.447 72.6253 770.429 72.6253C769.728 72.5911 769.18 71.992 769.197 71.2903C769.231 70.6056 769.248 69.9038 769.248 69.2192C769.248 66.6003 769.026 63.9473 768.58 61.3285C768.461 60.6267 768.94 59.9591 769.625 59.8564C770.31 59.7366 770.977 60.2159 771.097 60.9005C771.559 63.6563 771.799 66.4634 771.799 69.2192C771.799 69.9552 771.799 70.6741 771.748 71.4101C771.714 72.0947 771.149 72.6425 770.464 72.6425L770.481 72.6253ZM767.724 54.1224C767.194 54.1224 766.697 53.7972 766.509 53.2666C765.43 50.1685 764.044 47.0875 762.366 44.1435C762.023 43.5273 762.229 42.7399 762.845 42.3976C763.461 42.0381 764.249 42.2607 764.591 42.8769C766.338 45.9578 767.81 49.1757 768.94 52.4279C769.18 53.0954 768.82 53.8314 768.152 54.0539C768.016 54.1053 767.879 54.1224 767.724 54.1224ZM758.736 37.6734C758.359 37.6734 757.966 37.5023 757.726 37.1771C755.723 34.5753 753.446 32.0592 750.98 29.7143C750.467 29.2179 750.45 28.4134 750.929 27.8999C751.408 27.3864 752.23 27.3693 752.744 27.8486C755.312 30.2962 757.675 32.8979 759.763 35.6023C760.191 36.1672 760.089 36.9717 759.524 37.3996C759.284 37.5879 759.01 37.6734 758.736 37.6734ZM745.331 24.528C745.057 24.528 744.783 24.4424 744.56 24.2712C741.941 22.2857 739.099 20.42 736.137 18.7083C735.52 18.3489 735.315 17.5615 735.675 16.9625C736.034 16.3463 736.805 16.1409 737.421 16.5003C740.485 18.2633 743.413 20.1975 746.118 22.2515C746.683 22.6794 746.803 23.4839 746.375 24.0487C746.118 24.3739 745.742 24.5622 745.348 24.5622L745.331 24.528ZM610.779 19.5642C610.334 19.5642 609.906 19.3417 609.667 18.9137C609.307 18.2975 609.53 17.5102 610.129 17.1679C613.108 15.4562 616.19 13.8301 619.323 12.3581C619.973 12.05 620.726 12.3239 621.035 12.9743C621.343 13.6076 621.069 14.3779 620.418 14.686C617.354 16.1238 614.323 17.7156 611.413 19.393C611.207 19.5128 610.985 19.5642 610.779 19.5642ZM729.203 14.8742C729.015 14.8742 728.826 14.84 728.638 14.7544C725.59 13.2824 722.457 11.9302 719.307 10.7149C718.64 10.4582 718.314 9.72218 718.571 9.05463C718.828 8.38709 719.564 8.06188 720.232 8.31862C723.45 9.55101 726.652 10.9374 729.751 12.4437C730.384 12.7518 730.658 13.522 730.35 14.1554C730.127 14.6175 729.665 14.8742 729.186 14.8742H729.203ZM627.729 11.4167C627.215 11.4167 626.736 11.1086 626.53 10.5951C626.274 9.92758 626.599 9.19156 627.249 8.93482C630.451 7.68531 633.755 6.53851 637.06 5.54575C637.727 5.34035 638.446 5.73403 638.652 6.40157C638.857 7.08623 638.481 7.78801 637.796 7.99341C634.56 8.96905 631.324 10.0816 628.191 11.314C628.037 11.3825 627.883 11.3996 627.729 11.3996V11.4167ZM711.689 8.01053C711.569 8.01053 711.432 7.99341 711.312 7.95918C708.093 6.98354 704.789 6.11059 701.485 5.3917C700.8 5.23765 700.355 4.55299 700.509 3.86833C700.663 3.16655 701.348 2.73864 702.032 2.89269C705.405 3.6287 708.778 4.50164 712.065 5.51152C712.75 5.71691 713.127 6.43581 712.921 7.12047C712.75 7.6682 712.236 8.02764 711.689 8.02764V8.01053ZM645.706 5.87096C645.123 5.87096 644.593 5.47728 644.456 4.8782C644.302 4.19354 644.73 3.49177 645.415 3.33772C648.77 2.56748 652.194 1.91705 655.601 1.42067C656.286 1.31797 656.954 1.79723 657.057 2.49901C657.159 3.20079 656.68 3.85121 655.978 3.95391C652.639 4.45029 649.267 5.0836 645.979 5.83673C645.877 5.85385 645.791 5.87096 645.688 5.87096H645.706ZM693.335 3.90256C693.335 3.90256 693.215 3.90256 693.147 3.90256C689.808 3.40619 686.418 3.06385 683.029 2.84134C682.327 2.78999 681.779 2.19091 681.83 1.47202C681.881 0.770243 682.481 0.222515 683.2 0.273864C686.641 0.496379 690.117 0.855825 693.506 1.3522C694.208 1.4549 694.688 2.10533 694.585 2.80711C694.499 3.44042 693.934 3.90256 693.318 3.90256H693.335ZM664.299 2.99539C663.631 2.99539 663.083 2.48189 663.015 1.81435C662.963 1.11257 663.477 0.496379 664.196 0.427913C667.637 0.154049 671.113 0 674.554 0C675.256 0 675.838 0.564845 675.838 1.28374C675.838 1.98551 675.273 2.56748 674.554 2.56748C671.181 2.56748 667.774 2.72152 664.401 2.99539C664.367 2.99539 664.333 2.99539 664.299 2.99539Z" fill="#E0E0E0"/>
<path d="M629.389 567.704C629.389 567.704 629.389 567.567 629.389 567.498C629.389 567.498 629.389 567.464 629.389 567.43C629.389 567.361 629.389 567.31 629.355 567.241C629.355 567.156 629.355 567.07 629.287 566.967C629.253 566.865 629.218 566.762 629.167 566.659C628.979 566.249 628.619 565.855 628.14 565.53C628.14 565.495 628.105 565.495 628.088 565.478C628.02 565.444 627.968 565.41 627.934 565.376C627.9 565.341 627.814 565.29 627.763 565.256C627.763 565.256 627.712 565.222 627.695 565.204L490.455 485.972C490.353 485.921 490.284 485.869 490.181 485.835C487.716 484.466 484.942 483.85 482.203 483.952H482.083C479.738 484.072 477.427 484.757 475.338 485.955C475.338 485.955 475.338 485.955 475.304 485.955L465.339 491.689L292.267 591.598L270.215 604.316C270.215 604.316 270.164 604.35 270.147 604.367C268.863 605.377 268.178 606.832 268.092 608.338V620.542C268.092 622.374 268.983 624.171 270.78 625.232L272.955 626.482L407.472 704.122C408.653 704.807 410.211 705.149 411.769 705.115C413.207 705.115 414.628 704.773 415.724 704.139H415.775L600.849 597.298L627.695 581.807C627.797 581.739 627.849 581.688 627.951 581.636L628.105 581.534C628.944 580.952 629.355 580.216 629.389 579.48C629.389 579.274 629.338 568.354 629.389 567.618V567.704Z" fill="#8796F7"/>
<path opacity="0.25" d="M409.115 704.858C409.218 704.892 409.321 704.927 409.423 704.944C409.766 705.029 410.125 705.081 410.502 705.115C410.759 705.149 411.033 705.149 411.307 705.149C411.409 705.149 411.529 705.149 411.632 705.149V693.288C410.125 693.288 408.619 692.962 407.472 692.295L270.797 613.388C269.12 612.429 268.109 610.872 268.075 608.407V620.577C268.075 622.408 268.965 624.205 270.763 625.266L272.937 626.516L407.454 704.156C407.745 704.328 408.054 704.465 408.396 704.601C408.619 704.687 408.875 704.756 409.115 704.824V704.858Z" fill="black"/>
<path opacity="0.15" d="M629.389 579.548C629.338 580.284 628.944 581.02 628.105 581.602L627.951 581.705C627.849 581.773 627.797 581.825 627.695 581.876L600.849 597.367L415.775 704.191H415.724C414.628 704.824 413.207 705.166 411.769 705.183H411.649V693.322C413.087 693.322 414.628 692.979 415.724 692.346H415.775L627.951 569.843L628.105 569.74C628.944 569.159 629.355 568.423 629.389 567.687C629.338 568.423 629.389 579.343 629.389 579.548Z" fill="black"/>
<path opacity="0.4" d="M629.389 567.704C629.338 568.44 628.944 569.176 628.105 569.757L627.951 569.86L600.832 585.522L488.743 650.239L415.775 692.363H415.724C414.628 692.996 413.207 693.339 411.769 693.356C410.228 693.356 408.653 693.048 407.472 692.363L405.126 691.011L300.399 630.555L272.955 614.723L270.78 613.473C268.914 612.395 268.024 610.495 268.092 608.595V608.441C268.178 606.935 268.863 605.48 270.147 604.47C270.147 604.47 270.198 604.436 270.215 604.418L292.267 591.701L465.339 491.792L475.304 486.058C475.304 486.058 475.304 486.058 475.338 486.058C477.427 484.842 479.738 484.175 482.083 484.072H482.203C484.925 483.952 487.699 484.569 490.181 485.938C490.284 485.989 490.353 486.041 490.455 486.075L627.695 565.307C627.695 565.307 627.746 565.341 627.763 565.359C627.832 565.393 627.883 565.444 627.934 565.478C627.986 565.513 628.037 565.547 628.088 565.581C628.088 565.581 628.123 565.581 628.14 565.632C628.619 565.975 628.961 566.351 629.167 566.762C629.235 566.865 629.27 566.967 629.287 567.07C629.338 567.173 629.355 567.258 629.355 567.344C629.389 567.43 629.389 567.481 629.389 567.532C629.389 567.567 629.389 567.584 629.389 567.601C629.389 567.669 629.389 567.721 629.389 567.806V567.704Z" fill="black"/>
<path d="M629.389 567.703C629.338 568.439 628.944 569.175 628.105 569.757L627.951 569.86L600.832 585.521L488.743 650.239L415.775 692.363H415.724C414.628 692.996 413.207 693.338 411.769 693.355C410.228 693.355 408.653 693.047 407.472 692.363L405.126 691.011L300.399 630.555L272.955 614.722L270.78 613.473C268.914 612.394 268.024 610.494 268.092 608.595V608.441C268.777 608.252 269.616 608.098 270.592 608.013L295.16 605.582L422.623 592.899L442.518 590.913C446.9 590.485 450.821 588.893 451.249 587.37L455.238 574.053L480.132 490.713L481.998 484.517V484.431C482.066 484.294 482.118 484.14 482.186 484.038C484.908 483.918 487.682 484.551 490.164 485.921C490.267 485.972 490.336 486.023 490.438 486.057L496.396 489.515L627.66 565.29C627.66 565.29 627.712 565.324 627.729 565.341C627.797 565.375 627.849 565.427 627.9 565.461C627.951 565.495 628.003 565.529 628.054 565.564C628.054 565.564 628.088 565.564 628.105 565.615C628.585 565.957 628.927 566.334 629.133 566.745C629.201 566.847 629.235 566.95 629.253 567.053C629.304 567.156 629.321 567.241 629.321 567.327C629.355 567.412 629.355 567.464 629.355 567.515C629.355 567.549 629.355 567.566 629.355 567.583C629.355 567.652 629.355 567.703 629.355 567.789L629.389 567.703Z" fill="#8796F7"/>
<path opacity="0.25" d="M627.677 570.014C627.78 569.962 627.849 569.911 627.934 569.843L628.088 569.757C628.927 569.158 629.338 568.439 629.372 567.703C629.424 566.83 628.859 565.94 627.729 565.272L455.238 573.985L600.815 585.504L627.66 570.014H627.677Z" fill="black"/>
<path opacity="0.25" d="M407.454 692.328C408.636 693.013 410.194 693.338 411.752 693.321C413.19 693.304 414.594 692.979 415.707 692.345H415.741L488.709 650.222L422.606 592.83L405.126 690.993L407.454 692.345V692.328Z" fill="black"/>
<path d="M629.372 567.703C629.338 568.439 628.927 569.158 628.088 569.757L627.934 569.843L415.758 692.328H415.724C414.611 692.979 413.19 693.304 411.769 693.321L423.685 583.057C424.181 578.487 434.676 574.738 448.304 574.242L629.372 567.703Z" fill="#8796F7"/>
<path opacity="0.25" d="M482.203 483.97L481.518 490.56L472.855 573.095L472.821 573.335L472.616 575.355L470.732 593.293C470.253 597.863 459.758 601.629 446.096 602.125L433.837 602.57L421.545 603.015H420.809L295.588 607.534L268.075 608.544V608.39C268.161 606.883 268.846 605.428 270.13 604.419C270.13 604.419 270.181 604.384 270.198 604.367L292.25 591.65L465.356 491.741L475.286 486.007C475.286 486.007 475.286 486.007 475.321 486.007C477.409 484.791 479.721 484.124 482.066 484.021H482.186L482.203 483.97Z" fill="black"/>
<path d="M482.066 483.987L482.015 484.363V484.449L480.971 490.594L467.377 573.386L467.342 573.54L467.12 574.927L464.62 590.161C463.918 594.457 454.348 598.017 441.61 598.736L430.156 599.369L421.87 599.831L421.356 599.866L295.451 606.9L268.075 608.424V608.372C268.161 606.866 268.846 605.411 270.13 604.401C270.13 604.401 270.181 604.367 270.198 604.35L292.25 591.633L465.356 491.723L475.286 485.989C475.286 485.989 475.286 485.989 475.321 485.989C477.409 484.774 479.721 484.107 482.066 484.004V483.987Z" fill="#8796F7"/>
</g>
<defs>
<clipPath id="clip0_258_309">
<rect width="824" height="761" fill="white"/>
</clipPath>
</defs>
</svg>
