<svg xmlns="http://www.w3.org/2000/svg" width="1804" height="791" viewBox="0 0 1804 791" fill="none">
  <path d="M0.301179 462.333C0.644741 458.969 3.14988 455.725 7.55893 452.952L715.168 8.39962C721.367 4.5012 730.657 1.89806 741.336 1.06807C752.015 0.238088 762.794 1.27557 771.684 3.99189L1786.62 314.08C1798.09 317.582 1804.58 323.335 1803.96 329.46C1803.62 332.824 1801.11 336.068 1796.7 338.841L1089.11 783.387C1082.91 787.285 1073.62 789.888 1062.94 790.718C1052.26 791.555 1041.48 790.511 1032.59 787.795L17.6511 477.707C6.18468 474.204 -0.300055 468.457 0.301179 462.327V462.333ZM1800.71 329.397C1801.27 323.763 1795.3 318.469 1784.75 315.249L769.823 5.16142C761.649 2.65888 751.729 1.70314 741.909 2.47025C732.089 3.23736 723.543 5.633 717.845 9.21703L10.2359 453.763C6.17037 456.316 3.86563 459.296 3.56502 462.39C3.00673 468.03 8.97613 473.318 19.512 476.543L1034.45 786.625C1042.64 789.128 1052.55 790.083 1062.38 789.316C1072.2 788.549 1080.75 786.153 1086.46 782.569L1794.05 338.024C1798.12 335.471 1800.42 332.484 1800.72 329.397H1800.71Z" fill="#EAEFFE"/>
</svg>