<svg width="32" height="32" viewBox="0 0 32 32" fill="none" xmlns="http://www.w3.org/2000/svg">
<g id="fi_6738419">
<g id="01">
<path id="Vector" d="M22.5 5.83561C22.5 5.11042 22.715 4.4015 23.1179 3.79852C23.5208 3.19554 24.0935 2.72558 24.7635 2.44806C25.4334 2.17053 26.1707 2.09792 26.882 2.2394C27.5932 2.38088 28.2466 2.7301 28.7594 3.24289C29.2721 3.75568 29.6214 4.40902 29.7628 5.12028C29.9043 5.83155 29.8317 6.56879 29.5542 7.23879C29.2767 7.90878 28.8067 8.48144 28.2037 8.88434C27.6007 9.28723 26.8918 9.50228 26.1666 9.50228C25.1945 9.50129 24.2624 9.11467 23.575 8.42725C22.8876 7.73983 22.5009 6.80777 22.5 5.83561ZM28.8333 12.6973V19.1156C28.8333 19.9894 28.6612 20.8545 28.3268 21.6618C27.9925 22.469 27.5024 23.2024 26.8846 23.8203C26.2668 24.4381 25.5333 24.9282 24.7261 25.2625C23.9189 25.5969 23.0537 25.769 22.18 25.769H20.1666C19.9602 25.769 19.7565 25.8169 19.5718 25.909C19.387 26.0011 19.2261 26.1349 19.1019 26.2997L17.1 28.9557C16.9281 29.2241 16.6915 29.445 16.4119 29.598C16.1323 29.751 15.8187 29.8312 15.5 29.8312C15.1812 29.8312 14.8676 29.751 14.588 29.598C14.3084 29.445 14.0718 29.2241 13.9 28.9557L11.9 26.3023C11.7688 26.1444 11.6062 26.0155 11.4226 25.9236C11.239 25.8318 11.0383 25.7792 10.8333 25.769H8.83329C7.06518 25.769 5.36949 25.0666 4.11925 23.8164C2.869 22.5661 2.16663 20.8704 2.16663 19.1023V9.83565C2.16663 8.06754 2.869 6.37185 4.11925 5.12161C5.36949 3.87137 7.06518 3.16899 8.83329 3.16899H19.3049C19.5019 3.16958 19.6964 3.21399 19.8741 3.299C20.0518 3.38402 20.2085 3.5075 20.3326 3.66051C20.4567 3.81352 20.5453 3.99223 20.5918 4.18368C20.6383 4.37514 20.6417 4.57455 20.6017 4.76747C20.4547 5.54319 20.4674 6.34071 20.6389 7.11137C20.8732 8.14956 21.3971 9.10005 22.1496 9.85263C22.9022 10.6052 23.8527 11.129 24.8909 11.3634C25.6616 11.5349 26.4591 11.5475 27.2348 11.4006C27.4277 11.3605 27.6271 11.3639 27.8186 11.4104C28.01 11.457 28.1888 11.5455 28.3418 11.6696C28.4948 11.7938 28.6183 11.9504 28.7033 12.1281C28.7883 12.3059 28.8327 12.5003 28.8333 12.6973ZM11.5 15.1689C11.5 14.9052 11.4218 14.6475 11.2753 14.4282C11.1287 14.2089 10.9205 14.038 10.6769 13.9371C10.4332 13.8362 10.1651 13.8098 9.90651 13.8612C9.64786 13.9127 9.41029 14.0397 9.22382 14.2261C9.03735 14.4126 8.91036 14.6502 8.85891 14.9088C8.80747 15.1675 8.83387 15.4356 8.93479 15.6792C9.0357 15.9228 9.2066 16.1311 9.42587 16.2776C9.64513 16.4241 9.90292 16.5023 10.1666 16.5023C10.5199 16.5012 10.8584 16.3604 11.1083 16.1106C11.3581 15.8608 11.4989 15.5222 11.5 15.1689ZM16.8333 15.1689C16.8333 14.9052 16.7551 14.6475 16.6086 14.4282C16.4621 14.2089 16.2538 14.038 16.0102 13.9371C15.7666 13.8362 15.4985 13.8098 15.2398 13.8612C14.9812 13.9127 14.7436 14.0397 14.5572 14.2261C14.3707 14.4126 14.2437 14.6502 14.1922 14.9088C14.1408 15.1675 14.1672 15.4356 14.2681 15.6792C14.369 15.9228 14.5399 16.1311 14.7592 16.2776C14.9785 16.4241 15.2363 16.5023 15.5 16.5023C15.8533 16.5012 16.1918 16.3604 16.4416 16.1106C16.6914 15.8608 16.8322 15.5222 16.8333 15.1689ZM22.1666 15.1689C22.1666 14.9052 22.0884 14.6475 21.9419 14.4282C21.7954 14.2089 21.5872 14.038 21.3435 13.9371C21.0999 13.8362 20.8318 13.8098 20.5732 13.8612C20.3145 13.9127 20.077 14.0397 19.8905 14.2261C19.704 14.4126 19.577 14.6502 19.5256 14.9088C19.4741 15.1675 19.5005 15.4356 19.6015 15.6792C19.7024 15.9228 19.8733 16.1311 20.0925 16.2776C20.3118 16.4241 20.5696 16.5023 20.8333 16.5023C21.1866 16.5012 21.5251 16.3604 21.7749 16.1106C22.0248 15.8608 22.1656 15.5222 22.1666 15.1689Z" fill="#6265F0"/>
</g>
</g>
</svg>
